<svg xmlns="http://www.w3.org/2000/svg" aria-hidden="true" data-bbox="0 0 580.73 65.003" data-type="color" viewBox="0 0 580.73 65.003"><path d="m131.57 12.75-.02 4.45v41.05h-4.95V17.42l-25.74 40.83h-5.38l28.69-45.5zm14.94 45.5v-45.5H163c3.92 0 6.85 1 8.81 2.91s2.94 4.86 2.94 8.78a12.9 12.9 0 0 1-.87 4.94 9.4 9.4 0 0 1-2.32 3.43 7.86 7.86 0 0 1-3.24 1.83 11.7 11.7 0 0 1 2.62 1 9.6 9.6 0 0 1 2.63 2 9.8 9.8 0 0 1 2 3.27 12.8 12.8 0 0 1 .77 4.7 15.5 15.5 0 0 1-1.54 7.57 8.6 8.6 0 0 1-4.39 3.9 18.3 18.3 0 0 1-6.8 1.14Zm4.94-25.34h11.81a6.16 6.16 0 0 0 4.79-2.11 8.4 8.4 0 0 0 1.95-5.68q.12-4.39-1.89-6.15A7.52 7.52 0 0 0 163 17.2h-11.5Zm0 21h12a10.9 10.9 0 0 0 4.3-.77 5.7 5.7 0 0 0 2.85-2.72 12.15 12.15 0 0 0 1-5.53 8.26 8.26 0 0 0-1.08-4.33 7.25 7.25 0 0 0-2.93-2.75 8.9 8.9 0 0 0-4.15-1h-12Zm52.98 4.71a32 32 0 0 1-7.69-.83 11.1 11.1 0 0 1-5.51-3.19 15.05 15.05 0 0 1-3.23-6.92 54 54 0 0 1-1.08-12 53 53 0 0 1 1.11-12 15.7 15.7 0 0 1 3.34-7 11.3 11.3 0 0 1 5.5-3.34 28.8 28.8 0 0 1 7.6-.9 29.7 29.7 0 0 1 7.76.9 11.1 11.1 0 0 1 5.5 3.34 15.44 15.44 0 0 1 3.25 7 56 56 0 0 1 1.05 12 54 54 0 0 1-1.08 12 15.06 15.06 0 0 1-3.28 6.92 11.05 11.05 0 0 1-5.47 3.19 32 32 0 0 1-7.77.83m0-4.39a21.6 21.6 0 0 0 5.87-.68 7.4 7.4 0 0 0 3.93-2.62 13.1 13.1 0 0 0 2.2-5.6 55 55 0 0 0 .68-9.64 55.7 55.7 0 0 0-.72-10 13.1 13.1 0 0 0-2.22-5.69 7.14 7.14 0 0 0-3.9-2.53 23.6 23.6 0 0 0-5.84-.62 22.5 22.5 0 0 0-5.59.62 7.44 7.44 0 0 0-4 2.53 13.2 13.2 0 0 0-2.35 5.69 52.5 52.5 0 0 0-.77 10 57.5 57.5 0 0 0 .65 9.64 13 13 0 0 0 2.13 5.6 7.25 7.25 0 0 0 3.93 2.62 22.2 22.2 0 0 0 6 .68m46.31 4.39a32 32 0 0 1-6.93-.68 13.4 13.4 0 0 1-5.28-2.32 10.3 10.3 0 0 1-3.37-4.45 18.1 18.1 0 0 1-1.18-7V12.75h5v31.41a11.2 11.2 0 0 0 1.39 6.06 7.48 7.48 0 0 0 4.05 3.06 23.2 23.2 0 0 0 12.73 0 7.52 7.52 0 0 0 4-3.06 11.2 11.2 0 0 0 1.39-6.06V12.75h4.95v31.41a18.1 18.1 0 0 1-1.18 7 10.3 10.3 0 0 1-3.37 4.45 13.4 13.4 0 0 1-5.28 2.32 32 32 0 0 1-6.92.69m40.12-.37v-41h-14v-4.5h33v4.45h-14v41.05Zm44.97-41.05v-4.45h33v4.45Zm0 41.66v-4.45h33v4.45Zm0-20.86v-4.42h33V38Zm84.02-20.8v-4.45h33v4.45Zm0 41.66v-4.45h33v4.45Zm0-20.86v-4.42h33V38Zm-100.62-5.84a.88.88 0 0 1-1-1v-4.93a.88.88 0 0 1 1-1H322a.88.88 0 0 1 1 1v4.94a1 1 0 0 1-.28.75 1 1 0 0 1-.71.24Zm0 26.15a.88.88 0 0 1-1-1v-4.93a.88.88 0 0 1 1-1H322a.88.88 0 0 1 1 1v4.94a1 1 0 0 1-.28.75 1 1 0 0 1-.71.24Zm58.87-.06v-45.5h4l23.74 37v-37h4.89v45.5h-4L383 21.22v37Zm86.05 0v-45.5h17.93a18 18 0 0 1 4.33.53 9 9 0 0 1 6.49 6 20 20 0 0 1 1 6.9 19.3 19.3 0 0 1-.81 6.09A10.2 10.2 0 0 1 491 36a8.6 8.6 0 0 1-2.81 2 13 13 0 0 1-2.94.89l9.34 19.29h-5l-8.84-18.61c-.66 0-1.49 0-2.48-.06s-2-.06-3.15-.06-2.19 0-3.24-.06-2-.06-2.75-.06v18.92Zm5-22.62h12.24a11 11 0 0 0 3-.38 5.4 5.4 0 0 0 2.41-1.39 7 7 0 0 0 1.58-2.86 15.6 15.6 0 0 0 .62-4.82 14.3 14.3 0 0 0-.62-4.61 6.4 6.4 0 0 0-1.7-2.72 5.7 5.7 0 0 0-2.44-1.3 12.3 12.3 0 0 0-2.9-.34H469.1Zm92.23 22.62V43.17l-14.46-30.42h5.13l11.87 25.47 11.87-25.47h4.94l-14.4 30.42v15.08Z" data-color="1"/><path fill="#49b05e" d="M68 3.14c0 .63-2.91 1.14-6.5 1.14S55 3.77 55 3.14v-2C55 .51 57.86 0 61.45 0S68 .51 68 1.15Zm-6.5 5.94a94 94 0 0 1-19.61-1.9v12.7a94 94 0 0 0 19.61 1.89 94 94 0 0 0 19.61-1.89V7.18a94 94 0 0 1-19.66 1.9Zm0 21.61a93.2 93.2 0 0 1-19.61-1.9v12.7a94 94 0 0 0 19.61 1.9 94 94 0 0 0 19.61-1.9v-12.7a93.2 93.2 0 0 1-19.66 1.9Zm0 21.62a94 94 0 0 1-19.61-1.9V63.1A94 94 0 0 0 61.45 65a94 94 0 0 0 19.61-1.9V50.41a94 94 0 0 1-19.61 1.9ZM35.84 7.23l-8.92 14a69 69 0 0 0 9.1-1.4V7.2c-.02 0-.11.03-.18.03M21 30.59l-8.1 12.75c1.12 0 2.28.06 3.47.06A93.4 93.4 0 0 0 36 41.49V28.81a85 85 0 0 1-15 1.78m-4.6 21.72c-3.1 0-6.1-.14-8.92-.34L0 63.72A102 102 0 0 0 16.4 65 95 95 0 0 0 36 63.1V50.39a92.6 92.6 0 0 1-19.6 1.92" data-color="2"/><path d="M518.88 58.25a16.26 16.26 0 0 1-7.17-1.33 10.15 10.15 0 0 1-4.45-4.23 21.4 21.4 0 0 1-2.26-7.24 69 69 0 0 1-.68-10.38A63.4 63.4 0 0 1 505 25a20.5 20.5 0 0 1 2.44-7.2 10.86 10.86 0 0 1 4.73-4.3 17.5 17.5 0 0 1 7.51-1.42c1.61 0 13.26-.11 14.68 0v4.45h-13.93a11.4 11.4 0 0 0-6.9 1.82 9.9 9.9 0 0 0-3.4 5.94 49.4 49.4 0 0 0-1 10.85 64 64 0 0 0 .53 9 15.9 15.9 0 0 0 1.76 5.69 7 7 0 0 0 3.37 3 14 14 0 0 0 5.41.9h11.31L531.49 38h-11v-4h15.69v24.3Z" data-color="1"/></svg>