<svg xmlns="http://www.w3.org/2000/svg" viewBox="0 0 559.36 88.62"><defs><linearGradient id="a" x1="279.68" x2="279.68" y1="88.62" gradientUnits="userSpaceOnUse"><stop offset="0" stop-color="#00447d"/><stop offset=".11" stop-color="#024981"/><stop offset=".22" stop-color="#09568e"/><stop offset=".34" stop-color="#146ca2"/><stop offset=".47" stop-color="#238bbf"/><stop offset=".6" stop-color="#36b2e3"/><stop offset=".63" stop-color="#3cbeee"/><stop offset=".8" stop-color="#3bb5e9"/><stop offset=".84" stop-color="#3bb2e7"/></linearGradient></defs><path d="M324.82 54.64c0 10-7.68 18.18-17.2 18.2s-17.26-8.09-17.28-18.12 7.67-18.18 17.2-18.2 17.25 8.09 17.28 18.12M82.56 36.82v-.43C81.42 23 74.73 0 41.78 0H41C8.09 0 1.41 23 .3 36.39v.43a65 65 0 0 0-.2 8.31v17.36h50.68V45.61H20.69v-9.35C20.87 15.87 41 16.14 41 16.14h.74s20.26-.27 20.4 20.12v50.23h20.62V45.13a61 61 0 0 0-.2-8.31m35.9-.43H98v50.1h20.42Zm0-33.8H98v20.88h20.42Zm55.73 19.6h-19.51c-1.72 0-20.46 2.35-20.46 23.66v40.64h20.42V49.91c0-3.21 1.51-10.77 8-10.77h11.56Zm83.57 32.15v-.39c-.5-35-34.27-31.86-37.73-31.86v17s18.19-1.32 18.38 15.25c-.16 13.6-12.42 15.27-16.82 15.43h-14.7V2.59h-20.44v83.9h36.39c9 .15 34.47-1.3 34.91-31.72.02-.18.01-.3.01-.43m87.42-.12c0-18.94-16.9-34.27-37.66-34.22S270 35.45 270 54.4s16.91 34.27 37.67 34.22 37.56-15.45 37.51-34.4m53.58-32h-19.52c-1.71 0-20.45 2.35-20.45 23.66v40.61h20.42V49.91c0-3.21 1.51-10.77 8-10.77h11.56Zm78 23.66c0-21.31-18.74-23.76-20.46-23.76h-45v64.37h20.42V39.12h16.64c6.48 0 8 8.69 8 11.9v35.47h20.43Zm82.57-23.77h-35c-7.37-.23-35.81-.27-36.27 31.87v.77C488.5 85.14 514 86.59 523 86.44h36.39V70.55h-35.1c-4.4-.16-16.67-2.66-16.83-16.26.19-16.57 18.21-15.2 18.21-15.2h13l-11.82 21.19h20.84l11.66-21.14Z" data-name="Laag 2" style="fill:url(#a)"/></svg>