<svg xmlns="http://www.w3.org/2000/svg" id="AMKmotion_RGB" data-name="AMKmotion RGB" viewBox="0 0 624.04 163.72"><defs><style>.cls-1{fill:#1a1a18}</style></defs><path d="m37.95 0-38 99.94h27.06l7.88-21.34H72.4l7.47 21.34h29.2L70.56 0Zm3.15 59.71 12.88-39.09h.29l11.88 39.09ZM175.11 66.43h-.29L153.63 0h-41.95v99.94h26.06l-.57-76.75h.28l24.34 76.75h24.49l25.48-76.75h.29l-.43 76.75h26.06V0H197.3zM413.47 62.09a12.8 12.8 0 0 0-1.83-5.76 10.6 10.6 0 0 0-4.43-3.84 17.2 17.2 0 0 0-7.47-1.4 18 18 0 0 0-3.73.47 18.8 18.8 0 0 0-4.4 1.59 24.3 24.3 0 0 0-4.44 2.9 18.8 18.8 0 0 0-3.85 4.31 10.5 10.5 0 0 0-4.45-7.07 13.6 13.6 0 0 0-7.51-2.2 21.3 21.3 0 0 0-9.33 1.92 20.7 20.7 0 0 0-7.26 6.13h-.18l1.22-6.93h-8.23l-8.17 46.33-38.76-52L337.59.01h-32.04l-30.07 40.81h-.29V0h-26.63v99.94h26.63V54.55h.29l31.07 45.39h41.44l4.24-24.05a33.3 33.3 0 0 1 1.85-6.55 23 23 0 0 1 3.2-5.66 15.4 15.4 0 0 1 4.59-4 12 12 0 0 1 6-1.5 6.08 6.08 0 0 1 4.08 1.27 6.8 6.8 0 0 1 2.06 3.18 13.1 13.1 0 0 1 .51 4.26 34.5 34.5 0 0 1-.48 4.58l-5 28.45h8.83l4.21-24.03a33.3 33.3 0 0 1 1.85-6.55 23 23 0 0 1 3.2-5.66 15.4 15.4 0 0 1 4.59-4 12 12 0 0 1 6-1.5 6.08 6.08 0 0 1 4.08 1.27 6.8 6.8 0 0 1 2.06 3.18 12.6 12.6 0 0 1 .51 4.26 33 33 0 0 1-.48 4.58l-5 28.45h8.79l5.39-30.6a26.8 26.8 0 0 0 .4-7.23" class="cls-1"/><path d="M528 323.18a32.1 32.1 0 0 1 3.5-10 28.9 28.9 0 0 1 6.35-7.91 29.3 29.3 0 0 1 8.59-5.19 27.9 27.9 0 0 1 10.3-1.87 23.15 23.15 0 0 1 9.59 1.87 17.6 17.6 0 0 1 6.76 5.19 18.5 18.5 0 0 1 3.51 7.91 26.7 26.7 0 0 1 0 10 30.2 30.2 0 0 1-3.49 9.69 31.8 31.8 0 0 1-6.36 7.95 28.9 28.9 0 0 1-8.62 5.38 26.8 26.8 0 0 1-10.17 2 21.8 21.8 0 0 1-9.53-2 18.4 18.4 0 0 1-6.73-5.38 19.8 19.8 0 0 1-3.6-7.95 25.2 25.2 0 0 1-.1-9.69m9.36 0a23 23 0 0 0-.23 6.36 15.4 15.4 0 0 0 1.69 5.76 11 11 0 0 0 3.9 4.16 12 12 0 0 0 6.46 1.59 14.9 14.9 0 0 0 6.93-1.59 18.3 18.3 0 0 0 5.36-4.16 23 23 0 0 0 3.73-5.76 26 26 0 0 0 2-6.36 21 21 0 0 0 .14-6.6 16.3 16.3 0 0 0-1.89-5.75 10.66 10.66 0 0 0-4-4 11.7 11.7 0 0 0-6-1.49 14.75 14.75 0 0 0-6.59 1.49 18.6 18.6 0 0 0-5.38 4 23.8 23.8 0 0 0-4 5.75 24.5 24.5 0 0 0-2.17 6.6Z" style="fill:#3c9" transform="translate(-109.13 -247.11)"/><path d="M502.87 59.32h-12.69l-4.6 26.11q-.75 4.21 1.08 6.36a6 6 0 0 0 4.81 2.15 11.5 11.5 0 0 0 3.6-.51 15.4 15.4 0 0 0 2.69-1.17l-1.32 7.48c-1.06.32-2.25.61-3.58.89a20 20 0 0 1-4.14.42q-6.84 0-10.18-3.32t-2.07-10.53l4.92-27.88h-10.77l1.26-7.11h10.76l2-11 9.29-2.81-2.44 13.85h12.58ZM511.56 52.21h8.79l-8.41 47.73h-8.8Zm11.23-10.66h-9.92l1.74-9.92h9.92ZM524.38 76.07a32 32 0 0 1 3.49-10 29 29 0 0 1 15-13.1 27.9 27.9 0 0 1 10.3-1.87 23.2 23.2 0 0 1 9.59 1.87 17.5 17.5 0 0 1 6.75 5.19 18.6 18.6 0 0 1 3.52 7.91 26.9 26.9 0 0 1 0 10 30.2 30.2 0 0 1-3.49 9.69 32 32 0 0 1-6.36 7.95 29 29 0 0 1-8.62 5.38 26.8 26.8 0 0 1-10.17 2 21.8 21.8 0 0 1-9.53-2 18.24 18.24 0 0 1-6.73-5.38 19.66 19.66 0 0 1-3.6-7.95 25 25 0 0 1-.15-9.69m9.36 0a23 23 0 0 0-.24 6.36 15.6 15.6 0 0 0 1.7 5.76 11 11 0 0 0 3.9 4.16 12 12 0 0 0 6.46 1.59 14.9 14.9 0 0 0 6.92-1.59 18.2 18.2 0 0 0 5.39-4.16 23 23 0 0 0 3.73-5.76 27 27 0 0 0 2-6.36 21 21 0 0 0 .13-6.6 16.1 16.1 0 0 0-1.88-5.75 10.8 10.8 0 0 0-4-4 11.7 11.7 0 0 0-6-1.49 14.74 14.74 0 0 0-6.58 1.49 18.8 18.8 0 0 0-5.39 4 24.73 24.73 0 0 0-6.15 12.35ZM584.27 52.21h8.51l-1.34 7.59h.19a18.1 18.1 0 0 1 7.4-6.42 22.2 22.2 0 0 1 9.77-2.29q9.26 0 12.61 5.43t1.64 15.07l-5 28.35h-8.8l4.35-24.71c1-5.61 1-9.79.06-12.53s-3.34-4.24-7.16-4.5a15.4 15.4 0 0 0-6.76 1.46 16 16 0 0 0-5.25 4 22.4 22.4 0 0 0-3.71 6.22 38.7 38.7 0 0 0-2.25 8l-3.89 22.08h-8.77ZM185.67 144.06h4.57l6.06 16.06 6-16.06h4.57v19.33h-2.77v-16.73h-.06l-6.4 16.73h-2.77l-6.4-16.73h-.05v16.73h-2.75ZM211.92 144.06h10.84v2.43h-8.07v5.65h7.35v2.44h-7.35v6.37h8.07v2.44h-10.84ZM227.22 144.06h4.57l6.08 16.06 6-16.06h4.57v19.33h-2.77v-16.73h-.06l-6.4 16.73h-2.71l-6.4-16.73h-.05v16.73h-2.77ZM253.17 144.06h5.23a13.2 13.2 0 0 1 2.76.26 6.4 6.4 0 0 1 2.15.84 4.16 4.16 0 0 1 1.38 1.51 4.8 4.8 0 0 1 .5 2.26 4.1 4.1 0 0 1-1.08 3.06 6.24 6.24 0 0 1-2.91 1.54v.06a5.5 5.5 0 0 1 1.82.44 4.8 4.8 0 0 1 1.41.95 4.2 4.2 0 0 1 .93 1.42 5.54 5.54 0 0 1-.27 4.39 4.4 4.4 0 0 1-1.6 1.58 7.2 7.2 0 0 1-2.36.8 17 17 0 0 1-2.81.22h-5.15Zm2.77 8.25h1.52c.67 0 1.3 0 1.9-.08a4.9 4.9 0 0 0 1.58-.4 2.64 2.64 0 0 0 1.08-.93 3 3 0 0 0 .4-1.69 2.7 2.7 0 0 0-.33-1.41 2.6 2.6 0 0 0-.86-.89 3.5 3.5 0 0 0-1.15-.46 6.6 6.6 0 0 0-1.23-.12h-2.91Zm0 8.81h2.08a12 12 0 0 0 1.8-.13 4.4 4.4 0 0 0 1.51-.47 2.8 2.8 0 0 0 1-.95 3 3 0 0 0 .38-1.58 3.2 3.2 0 0 0-.44-1.79 3 3 0 0 0-1.16-1 5.1 5.1 0 0 0-1.62-.47 16 16 0 0 0-1.79-.11h-1.8ZM270.4 144.06h10.83v2.43h-8.06v5.65h7.34v2.44h-7.34v6.37h8.06v2.44H270.4ZM285.49 144.06h4.74a23 23 0 0 1 2.79.16 6.9 6.9 0 0 1 2.39.72 4.35 4.35 0 0 1 1.69 1.58 5.2 5.2 0 0 1 .64 2.77 4.23 4.23 0 0 1-1.15 3 4.7 4.7 0 0 1-1.28.94 5.5 5.5 0 0 1-1.56.52v.05a2.9 2.9 0 0 1 1 .65 5.8 5.8 0 0 1 .86 1.29l3.66 7.7h-3.16l-3-6.7a5 5 0 0 0-.67-1.08 2.1 2.1 0 0 0-.72-.57 2.4 2.4 0 0 0-.84-.21h-2.61v8.59h-2.78Zm2.78 8.31h2.35a5.12 5.12 0 0 0 3.09-.81 2.58 2.58 0 0 0 1.09-2.21 2.5 2.5 0 0 0-1-2.09 4.66 4.66 0 0 0-2.9-.77h-2.63ZM309.29 153.72a12.5 12.5 0 0 1 .62-4 9 9 0 0 1 1.83-3.15 8.4 8.4 0 0 1 2.92-2.09 10.4 10.4 0 0 1 7.86 0 8.4 8.4 0 0 1 2.93 2.09 9 9 0 0 1 1.83 3.15 12.2 12.2 0 0 1 .62 4 12.4 12.4 0 0 1-.62 4.05 9.1 9.1 0 0 1-1.82 3.16 8.1 8.1 0 0 1-2.92 2.06 11 11 0 0 1-7.89 0 8.1 8.1 0 0 1-2.92-2.06 9.1 9.1 0 0 1-1.82-3.16 12.7 12.7 0 0 1-.62-4.05m2.93 0a10.5 10.5 0 0 0 .38 2.8 7.3 7.3 0 0 0 1.15 2.42 5.65 5.65 0 0 0 2 1.71 6.73 6.73 0 0 0 5.73 0 5.6 5.6 0 0 0 2-1.71 7.3 7.3 0 0 0 1.15-2.42 10.4 10.4 0 0 0 0-5.64 7.5 7.5 0 0 0-1.2-2.42 5.8 5.8 0 0 0-2-1.68 6.61 6.61 0 0 0-5.59 0 5.8 5.8 0 0 0-2 1.68 7.3 7.3 0 0 0-1.19 2.42 10 10 0 0 0-.43 2.84M331.67 144.06h10.28v2.43h-7.51v5.65h7.17v2.44h-7.17v8.81h-2.77ZM357.24 146.49h-6v-2.43h14.79v2.43h-6v16.9h-2.77ZM368.93 144.06h2.77v8.08h9.25v-8.08h2.77v19.33h-2.77v-8.81h-9.25v8.81h-2.77ZM388.93 144.06h10.83v2.43h-8.06v5.65h7.34v2.44h-7.34v6.37h8.06v2.44h-10.83ZM418.01 144.06h2.91l8.17 19.33h-3l-2-4.87h-9.47l-2 4.87h-2.9Zm1.36 2.6-3.85 9.58h7.7ZM431.72 144.06h4.74a23 23 0 0 1 2.78.16 6.9 6.9 0 0 1 2.4.72 4.4 4.4 0 0 1 1.69 1.58 5.3 5.3 0 0 1 .64 2.77 4.4 4.4 0 0 1-.31 1.64 4.2 4.2 0 0 1-.84 1.31 4.7 4.7 0 0 1-1.28.94 5.6 5.6 0 0 1-1.56.52v.05a3 3 0 0 1 1 .65 5.8 5.8 0 0 1 .86 1.29l3.66 7.7h-3.16l-3-6.7a5 5 0 0 0-.66-1.08 2.1 2.1 0 0 0-.72-.57 2.4 2.4 0 0 0-.85-.21h-2.66v8.59h-2.77Zm2.77 8.31h2.38a5.08 5.08 0 0 0 3.08-.81 2.59 2.59 0 0 0 1.1-2.21 2.5 2.5 0 0 0-1-2.09 4.66 4.66 0 0 0-2.9-.77h-2.66ZM448.65 144.06h5.22a13.2 13.2 0 0 1 2.76.26 6.4 6.4 0 0 1 2.14.84 4.2 4.2 0 0 1 1.39 1.51 4.8 4.8 0 0 1 .5 2.26 4.1 4.1 0 0 1-1.08 3.06 6.24 6.24 0 0 1-2.91 1.54v.06a5.5 5.5 0 0 1 1.81.44 4.7 4.7 0 0 1 1.42.95 4.3 4.3 0 0 1 .92 1.42 4.7 4.7 0 0 1 .34 1.84 4.9 4.9 0 0 1-.6 2.55 4.44 4.44 0 0 1-1.61 1.58 7.2 7.2 0 0 1-2.35.8 17 17 0 0 1-2.81.22h-5.15Zm2.77 8.25h1.52c.66 0 1.3 0 1.9-.08a5 5 0 0 0 1.58-.4 2.64 2.64 0 0 0 1.08-.93 3.13 3.13 0 0 0 .4-1.69 2.53 2.53 0 0 0-1.19-2.3 3.6 3.6 0 0 0-1.15-.46 6.6 6.6 0 0 0-1.24-.12h-2.9Zm0 8.81h2.07a11.6 11.6 0 0 0 1.8-.13 4.3 4.3 0 0 0 1.51-.47 2.7 2.7 0 0 0 1-.95 2.9 2.9 0 0 0 .39-1.58 3.3 3.3 0 0 0-.44-1.79 3 3 0 0 0-1.17-1 5.1 5.1 0 0 0-1.62-.47 15 15 0 0 0-1.78-.11h-1.8ZM480.78 155.39q0 4.1-1.95 6.21a8.34 8.34 0 0 1-11.11 0q-2-2.11-2-6.21v-11.33h2.77v11a12.4 12.4 0 0 0 .24 2.53 5.5 5.5 0 0 0 .79 2 3.75 3.75 0 0 0 1.47 1.29 5.68 5.68 0 0 0 4.48 0 3.75 3.75 0 0 0 1.47-1.29 5.3 5.3 0 0 0 .79-2 12.4 12.4 0 0 0 .24-2.53v-11h2.77ZM485.57 144.06h4.74a23 23 0 0 1 2.78.16 7 7 0 0 1 2.4.72 4.4 4.4 0 0 1 1.69 1.58 5.3 5.3 0 0 1 .63 2.77 4.12 4.12 0 0 1-1.15 3 4.6 4.6 0 0 1-1.27.94 5.6 5.6 0 0 1-1.57.52v.05a3 3 0 0 1 1 .65 6.2 6.2 0 0 1 .86 1.29l3.65 7.7h-3.15l-3-6.7a5 5 0 0 0-.66-1.08 2.1 2.1 0 0 0-.72-.57 2.4 2.4 0 0 0-.85-.21h-2.66v8.59h-2.72Zm2.77 8.31h2.35a5.12 5.12 0 0 0 3.09-.81 2.59 2.59 0 0 0 1.1-2.21 2.48 2.48 0 0 0-1-2.09 4.63 4.63 0 0 0-2.89-.77h-2.66ZM517.34 147.49a8.3 8.3 0 0 0-2.23-1 12 12 0 0 0-3.09-.33 7.8 7.8 0 0 0-3 .57 6.9 6.9 0 0 0-2.35 1.59 7.1 7.1 0 0 0-1.51 2.41 8.73 8.73 0 0 0 0 6.1 7.3 7.3 0 0 0 1.56 2.38 7.1 7.1 0 0 0 2.33 1.54 7.5 7.5 0 0 0 2.82.54h1.2c.31 0 .58-.05.81-.08l.6-.12.5-.11v-5.87h-4.11v-2.27h6.85v10.05a17 17 0 0 1-2.22.57 18.4 18.4 0 0 1-3.68.29 11.9 11.9 0 0 1-4.19-.7 8.85 8.85 0 0 1-5.27-5.21 11.3 11.3 0 0 1-.74-4.17 10.6 10.6 0 0 1 .76-4.07 9 9 0 0 1 2.14-3.13 9.4 9.4 0 0 1 3.24-2 11.5 11.5 0 0 1 4.08-.71c.71 0 1.32 0 1.86.07a12 12 0 0 1 2.65.53l1.17.37ZM530.19 144.06h10.28v2.43h-7.51v5.65h7.18v2.44h-7.18v8.81h-2.77ZM549.31 144.06h2.9l8.18 19.33h-3l-2-4.87h-9.47l-2 4.87h-2.91Zm1.35 2.6-3.85 9.58h7.7ZM563.21 144.06h4.57l6.09 16.06 5.95-16.06h4.57v19.33h-2.77v-16.73h-.05l-6.4 16.73h-2.71l-6.4-16.73H566v16.73h-2.77ZM589.33 144.06h2.77v19.33h-2.77ZM597.01 144.06h2.77v16.89h8.09v2.44h-10.86ZM613.74 155.3l-7.57-11.24h3.25l5.76 8.67 5.62-8.67h3.24l-7.53 11.24v8.09h-2.77Z" class="cls-1"/></svg>