<svg xmlns="http://www.w3.org/2000/svg" width="161mm" height="192" viewBox="0 0 161 50.8"><desc>A software company based in Canonsburg, Pennsylvania, United States that specialised in engineering simulation</desc><path d="M154 44.1 92.9 194H134l61-149.9z" class="st0" style="fill:#ffb71b" transform="translate(-24.1 -10.5)scale(.265)"/><path d="M24.66 15.815 34.995 40.91h11.66L30.225 2.459z" class="st1"/><path d="M55 187q-2.925 0-5.25 1.18c-1.56.786-2.82 1.93-3.79 3.43v-3.93H37.7v27.6h8.49v-15.5q0-2.805 1.6-4.5c1.07-1.12 2.48-1.69 4.24-1.69 1.46 0 2.54.431 3.23 1.29q1.04 1.295 1.04 4.1v16.2h8.49v-16.6c0-3.9-.807-6.81-2.42-8.74-1.61-1.93-4.07-2.89-7.37-2.89zm30.1 12-4.66-1.07c-1.12-.299-1.91-.616-2.36-.955q-.671-.51-.672-1.4 0-1.235 1.12-1.91c1.12-.675 1.78-.675 3.09-.675 2.85 0 5.73 1.01 8.66 3.03l2.25-5.62c-1.5-1.09-3.19-1.93-5.06-2.53q-2.805-.899-5.79-.9c-2.33 0-4.39.376-6.21 1.12-1.82.749-3.22 1.78-4.21 3.09-.995 1.31-1.49 2.83-1.49 4.55 0 2.17.63 3.89 1.88 5.14 1.25 1.26 3.21 2.18 5.88 2.78l4.5 1.01c1.39.299 2.33.638 2.84 1.01q.758.565.759 1.57.001 1.126-1.1 1.77-1.095.646-3.06.646c-1.84 0-3.65-.28-5.45-.841a19 19 0 0 1-4.95-2.36l-2.25 5.84c1.53 1.09 3.36 1.92 5.48 2.5 2.12.579 4.45.87 7 .87 3.71 0 6.62-.759 8.74-2.28q3.18-2.28 3.18-6.27 0-3.315-1.94-5.25c-1.3-1.3-3.35-2.26-6.16-2.9zm62.9 3c-1.29-1.29-3.34-2.26-6.15-2.89l-4.67-1.07c-1.12-.299-1.91-.616-2.36-.955q-.675-.51-.675-1.4c0-.823.376-1.46 1.12-1.91s1.78-.675 3.09-.675c2.85 0 5.73 1.01 8.66 3.03l2.25-5.62c-1.5-1.09-3.19-1.93-5.06-2.53q-2.805-.898-5.79-.9-3.48.002-6.21 1.12c-1.82.749-3.23 1.78-4.22 3.09-.992 1.31-1.49 2.83-1.49 4.55 0 2.17.627 3.89 1.88 5.14 1.25 1.26 3.21 2.18 5.87 2.78l4.5 1.01c1.39.299 2.33.638 2.84 1.01q.76.565.759 1.57.001 1.126-1.1 1.77-1.095.646-3.06.646c-1.84 0-3.65-.28-5.45-.841a19 19 0 0 1-4.95-2.36l-2.25 5.84c1.54 1.09 3.36 1.92 5.48 2.5 2.12.579 4.45.87 7 .87 3.71 0 6.62-.759 8.74-2.28q3.18-2.28 3.18-6.27c-.005-2.21-.651-3.96-1.94-5.26z" class="st1" style="stroke-width:.265" transform="translate(11.1 -174.5)"/><path d="M112.64 50.98h8.215l15.37-37.63h-8.215l-6.625 16.165-6.625-16.165h-8.215l10.6 26.235z" class="st1"/></svg>