<svg xmlns="http://www.w3.org/2000/svg" xml:space="preserve" width="140" height="73" viewBox="0 0 140 73"><path fill="#fff" d="M29.077 20.809h6.465l10.722 28.672h-6.545l-2.169-6.386H26.828l-2.249 6.386h-6.385zm-.603 17.588h7.43L32.29 27.876h-.08zM52.13 26.109h-8.595v-5.3h23.493v5.3h-8.595v23.372H52.13zm18.192-5.3h21.443v5.3h-15.14v6.144H90.52v4.9H76.626v7.026h15.461v5.302H70.322zm45.138 9.637c-.402-2.851-3.132-5.019-6.265-5.019-5.662 0-7.791 4.818-7.791 9.838 0 4.778 2.129 9.597 7.791 9.597 3.855 0 6.023-2.65 6.506-6.424h6.104c-.645 7.147-5.584 11.726-12.61 11.726-8.874 0-14.095-6.627-14.095-14.898 0-8.514 5.221-15.14 14.095-15.14 6.305 0 11.605 3.694 12.367 10.32zM125.643 0H14.356C6.44 0 0 6.44 0 14.357v41.625C0 63.899 6.44 70.34 14.356 70.34h9.212v-3.771h-9.212c-5.837 0-10.586-4.748-10.586-10.586V14.357c0-5.837 4.749-10.586 10.586-10.586h111.286c5.837 0 10.586 4.749 10.586 10.586v41.625c0 5.838-4.749 10.586-10.586 10.586h-9.212v3.771h9.212c7.916 0 14.357-6.44 14.357-14.357V14.357C140 6.44 133.559 0 125.643 0M31.824 60.813h6.165v1.051h-4.916v2.985h4.312V65.9h-4.312v4.298h-1.249zm7.428 0h1.118v9.386h-1.118zm8.48 9.385H46.68v-1.077h-.027c-.473.841-1.235 1.235-2.208 1.235-1.788 0-2.34-1.025-2.34-2.484v-4.47h1.117v4.601c0 .829.525 1.367 1.381 1.367 1.354 0 2.011-.906 2.011-2.13v-3.838h1.118zm2.867-8.018H49.48v-1.367h1.118zm-1.119 1.222h1.118v6.796H49.48zm8.927 6.796h-1.116v-.92h-.027c-.367.75-1.235 1.078-2.169 1.078-2.09 0-3.128-1.656-3.128-3.576 0-1.919 1.025-3.536 3.103-3.536.696 0 1.696.263 2.194 1.065h.027v-3.497h1.116zm-3.154-.828c1.498 0 2.077-1.288 2.077-2.563 0-1.341-.604-2.577-2.143-2.577-1.525 0-2.039 1.303-2.039 2.631 0 1.274.659 2.509 2.105 2.509m5.561-1.314c.039.999.907 1.314 1.827 1.314.697 0 1.644-.157 1.644-1.013 0-.867-1.104-1.011-2.222-1.261-1.104-.251-2.222-.619-2.222-1.92 0-1.367 1.354-1.933 2.537-1.933 1.499 0 2.695.473 2.787 2.13h-1.117c-.079-.867-.842-1.145-1.578-1.145-.67 0-1.445.185-1.445.868 0 .803 1.183.934 2.222 1.183 1.117.25 2.221.619 2.221 1.934 0 1.616-1.511 2.143-2.892 2.143-1.524 0-2.813-.618-2.879-2.301zm8.559 3.049c-.513 1.328-.973 1.814-1.971 1.814-.264 0-.526-.026-.776-.118v-1.025c.21.065.435.157.657.157.46 0 .71-.223.921-.617l.459-1.157-2.694-6.757h1.262l1.985 5.561h.026l1.905-5.561h1.184zm4.589-3.049c.039.999.906 1.314 1.826 1.314.697 0 1.644-.157 1.644-1.013 0-.867-1.104-1.011-2.221-1.261-1.104-.251-2.223-.619-2.223-1.92 0-1.367 1.354-1.933 2.537-1.933 1.5 0 2.696.473 2.788 2.13h-1.118c-.079-.867-.841-1.145-1.577-1.145-.67 0-1.447.185-1.447.868 0 .803 1.185.934 2.223 1.183 1.118.25 2.222.619 2.222 1.934 0 1.616-1.512 2.143-2.893 2.143-1.524 0-2.813-.618-2.878-2.301zm7.441-4.654h1.354v.985h-1.354v4.221c0 .513.145.604.841.604h.513v.985h-.854c-1.158 0-1.618-.236-1.618-1.485v-4.325h-1.156v-.985h1.156v-2.038h1.118zm8.388 4.64c-.303 1.499-1.381 2.314-2.905 2.314-2.17 0-3.195-1.498-3.26-3.576 0-2.037 1.34-3.536 3.194-3.536 2.405 0 3.143 2.249 3.075 3.891h-5.087c-.039 1.185.631 2.235 2.116 2.235.921 0 1.565-.446 1.762-1.328zm-1.077-1.892c-.054-1.065-.855-1.921-1.96-1.921-1.17 0-1.867.882-1.945 1.921zm2.339-2.748h1.053v.998h.025c.5-.762 1.263-1.156 2.196-1.156.828 0 1.591.329 1.866 1.156a2.52 2.52 0 0 1 2.13-1.156c1.354 0 2.262.565 2.262 1.972v4.982h-1.117v-4.457c0-.84-.224-1.512-1.315-1.512-1.078 0-1.775.685-1.775 1.735v4.233h-1.116V65.74c0-.88-.276-1.512-1.275-1.512-1.328 0-1.814 1.224-1.814 1.735v4.233h-1.118v-6.794zm17.013 4.64c-.304 1.499-1.38 2.314-2.906 2.314-2.168 0-3.193-1.498-3.26-3.576 0-2.037 1.342-3.536 3.195-3.536 2.405 0 3.142 2.249 3.075 3.891h-5.088c-.038 1.185.632 2.235 2.117 2.235.92 0 1.564-.446 1.762-1.328zm-1.077-1.892c-.053-1.065-.854-1.921-1.96-1.921-1.17 0-1.867.882-1.946 1.921z"/></svg>