<svg xmlns="http://www.w3.org/2000/svg" xml:space="preserve" viewBox="0 0 180 37.4"><path d="M11.3 14.2c-1.2 0-2.4.3-3.5.9-1.2.7-1.5 1.4-1.5 2.7v10.4c0 3 2.6 3.8 5.1 3.8 1.9 0 3.7-.7 5-2 1.8-1.8 2-4.5 2-6.9 0-4.7-1.8-8.9-7.1-8.9m.9 22.1c-1.5 0-3-.2-4.3-.9-.7-.4-1.4-.9-2.2-.8 0 .6.1 1.3-.7 1.3H.8c-.4 0-.7-.3-.7-.7V.9C.1.5.4.2.8.2h4.8c.4 0 .7.3.7.7v10.7c1 0 1.2-.2 2.1-.5 1.6-.7 3.2-1.1 4.9-1.1 7.3 0 11.3 6.2 11.3 13-.1 7.4-4.6 13.3-12.4 13.3m29.2-13.7-3.9 1.3c-2.2.7-5.3 1.8-5.3 4.6 0 2.6 2.3 3.6 4.6 3.6 1.2 0 2.5-.2 3.5-1s1.1-1.6 1.1-2.8zm5.5 13.3h-4.2c-.8 0-.7-.7-.7-1.3h-.5c-.9 0-1.6.4-2.4.8-1.7.8-2.8 1-4.7 1-4.7 0-8.2-2.5-8.2-7.4 0-5.2 3.7-6.9 8.1-8.3l5.2-1.7c1.1-.4 2-.5 2-1.8 0-2.3-2.5-2.8-4.4-2.8-2.9 0-5.5.9-8 2.1-.3.1-.5.3-.8.3-.5 0-.6-.5-.6-.8v-3c0-.8.3-1 1-1.3C31.5 10.5 35 10 38 10c4.8 0 9.6 1.4 9.6 7v18.1c-.1.5-.4.8-.7.8m15.8-21.7c-1.2 0-2.4.3-3.5.9-1.2.7-1.5 1.4-1.5 2.7v10.4c0 3 2.6 3.8 5.1 3.8 1.9 0 3.7-.7 5-2 1.8-1.8 2-4.5 2-6.9 0-4.7-1.8-8.9-7.1-8.9m.9 22.1c-1.5 0-3-.2-4.3-.9-.7-.4-1.4-.9-2.2-.8 0 .6.2 1.3-.7 1.3h-4.2c-.4 0-.7-.3-.7-.7V.9c0-.4.3-.7.7-.7H57c.4 0 .7.3.7.7v10.7c1 0 1.2-.2 2.1-.5 1.6-.7 3.2-1.1 4.9-1.1C72 10 76 16.2 76 23c-.1 7.4-4.6 13.3-12.4 13.3m34.1-1.5c-2 .9-5.2 1.4-7.4 1.4-8.1 0-12.6-5-12.6-12.9 0-7.7 4.8-13.4 12.8-13.4 1.9 0 3.8.3 5.6.8 1 .3 2.5.5 2.5 1.8v2.7c0 .3-.2.6-.5.6s-.7-.2-1-.3c-1.7-.9-3.7-1.4-5.6-1.4-5.6 0-7.7 3.7-7.7 8.9 0 5 1.8 8.8 7.4 8.8 2.1 0 4.2-.6 6-1.5q.45-.3.9-.3c.7 0 .5 2.8.5 3.4 0 1-.1 1.1-.9 1.4m14.5-20.7c-5 0-6.4 4.9-6.4 9s1.4 9.2 6.4 9.2c4.9 0 6.3-4.9 6.3-9 0-4-1.4-9.2-6.3-9.2m8.4 19.8c-2.5 2.2-5.3 2.7-8.5 2.7s-5.9-.5-8.4-2.7c-3-2.7-4-6.7-4-10.6 0-4 .9-7.9 4-10.6 2.6-2.3 5.3-2.7 8.7-2.7 8.4 0 12.2 5.5 12.2 13.4 0 3.9-.9 7.7-4 10.5m26.1.9c-2 .9-5.2 1.4-7.4 1.4-8.1 0-12.6-5-12.6-12.9 0-7.7 4.8-13.4 12.8-13.4 1.9 0 3.8.3 5.6.8 1 .3 2.5.5 2.5 1.8v2.7c0 .3-.2.6-.5.6s-.7-.2-1-.3c-1.7-.9-3.7-1.4-5.6-1.4-5.7 0-7.7 3.7-7.7 8.9 0 5 1.8 8.8 7.4 8.8 2.1 0 4.2-.6 6.1-1.5q.45-.3.9-.3c.7 0 .5 2.8.5 3.4-.2 1-.3 1.1-1 1.4m24.9 1.1h-5.4c-.9 0-1-.2-1.4-.9l-7.4-10.7c-.3-.5-.8-.4-1.3-.4v11.3c0 .4-.3.7-.7.7h-4.8c-.4 0-.7-.3-.7-.7V.9c0-.4.3-.7.7-.7h4.8c.4 0 .7.3.7.7v19.3h.6c.4 0 .5-.1.8-.4l7.7-8.6c.4-.5.6-.8 1.2-.8h4.7c.3 0 .7.2.7.6s-.4.7-.6 1l-8.8 9.5 9.6 12.9c.3.3.5.7.5 1.1-.1.3-.6.4-.9.4M174.5.3V1h-1.4v3.6h-.8V1H171V.3zm4.7 4.2L179 2V.8c-.1.4-.2.9-.4 1.3l-.8 2.4h-.9l-.8-2.5c-.1-.3-.2-.8-.3-1.2V2l-.2 2.5h-.8l.3-4.3h1.3l.7 2.1c.1.3.2.6.3 1.1.1-.4.2-.8.3-1.1l.7-2.1h1.2l.3 4.3z" style="fill:#114b9a"/></svg>