<svg xmlns="http://www.w3.org/2000/svg" width="150" height="35" viewBox="0 0 150 35"><path fill="#002a42" d="M6.636 0v9.836h.078c1.366-1.873 3.279-2.81 5.777-2.81 5.738 0 8.548 4.996 8.548 10.266 0 5.699-2.693 11.164-9.056 11.164-2.342 0-4.293-1.015-5.581-2.928h-.078v2.342H0V0zm3.825 12.1c-1.795 0-4.06 1.25-4.06 5.426 0 3.552 1.016 5.855 4.021 5.855 2.967 0 3.981-3.083 3.981-5.855 0-2.576-1.014-5.426-3.942-5.426m11.737-4.488h6.636V27.87h-6.636zm0-2.538h6.636V0h-6.636zm16.806 1.952c2.42 0 4.255 1.054 5.426 3.123h.078V7.612h6.363l-.002 18.063-.005.279c-.083 3.41-1.114 9.02-10.103 9.02l-.505-.004c-4.531-.077-8.696-1.243-9.449-6.475h6.636c.156.897.507 1.444 1.132 1.756.585.312 1.405.43 2.42.43 3.162 0 3.474-2.225 3.474-4.724v-1.913h-.078c-1.21 1.874-3.24 2.967-5.387 2.967-6.128 0-8.9-4.371-8.9-10.07 0-5.387 3.162-9.915 8.9-9.915m1.6 5.074c-2.927 0-3.864 2.576-3.864 5.075 0 2.38 1.093 4.762 3.826 4.762 2.81 0 4.02-2.186 4.02-4.723 0-2.577-1.015-5.114-3.981-5.114M52.572 0h7.26v10.149h9.564V0h7.26v27.87h-7.26V16.394h-9.564V27.87h-7.26zm35.913 7.026c7.26 0 10.89 5.465 10.578 12.335H84.19c.118 2.771 1.718 4.606 4.528 4.606 1.6 0 3.162-.742 3.787-2.225h6.206c-1.21 4.684-5.543 6.713-10.07 6.713-6.597 0-11.086-3.981-11.086-10.773 0-6.206 4.957-10.656 10.929-10.656m0 4.489c-2.342 0-3.904 1.678-4.294 4.137h8.236c-.117-2.264-1.717-4.137-3.942-4.137m30.865 2.303v8.86c0 1.718 0 3.592.78 5.192h-6.674c-.235-.624-.313-1.25-.39-1.913-1.718 1.796-4.256 2.498-6.676 2.498-3.864 0-6.908-1.951-6.908-6.128 0-5.021 4.161-5.926 8.18-6.485l1.56-.21c.715-.098 1.406-.2 2.048-.33 1.132-.235 1.756-.626 1.756-1.874 0-1.523-1.834-2.108-3.2-2.108-1.835 0-3.006.82-3.318 2.537H100.3c.117-2.654 1.366-4.372 3.162-5.426 1.796-1.015 4.137-1.405 6.44-1.405l.488.004.477.011c4.44.148 8.482 1.425 8.482 6.777m-6.402 4.567c-.874.546-2.429.685-3.806 1.018l-.643.165c-1.325.367-2.382 1.014-2.382 2.486 0 1.64 1.288 2.303 2.772 2.303 3.161 0 4.215-1.796 4.06-5.972M141.542 0v27.87h-6.324v-2.342h-.078c-1.288 1.913-3.24 2.928-5.582 2.928-6.363 0-9.056-5.465-9.056-11.164 0-5.27 2.811-10.266 8.549-10.266 2.498 0 4.41.937 5.777 2.771h.078V0zm-10.344 12.1c-3.045 0-4.06 2.85-4.06 5.426 0 2.772 1.015 5.855 4.06 5.855 3.24 0 3.942-3.083 3.942-5.66 0-2.927-1.054-5.62-3.942-5.62M146.497.108c1.905 0 3.503 1.504 3.503 3.474a3.483 3.483 0 0 1-3.503 3.513c-1.915 0-3.522-1.504-3.522-3.513 0-1.97 1.607-3.474 3.522-3.474m0 .513c-1.635 0-2.887 1.29-2.887 2.961 0 1.71 1.252 3 2.887 3 1.616 0 2.868-1.29 2.868-3 0-1.672-1.252-2.96-2.868-2.96m.215.935c.971 0 1.429.382 1.429 1.167 0 .738-.467 1.046-1.074 1.112l1.168 1.803h-.683l-1.111-1.756h-.673v1.756h-.635V1.556zm-.944.513v1.299h.664c.56 0 1.074-.028 1.074-.673 0-.503-.403-.611-.805-.624z"/></svg>