<svg xmlns="http://www.w3.org/2000/svg" fill="none" class="ep-logo" viewBox="0 0 395 291"><path fill="currentColor" fill-rule="evenodd" d="M282.92 133.343c0 20.553-3.974 40.02-11.072 57.406a.68.68 0 0 1-.628.421h-6.102a.686.686 0 0 1-.622-.969c6.15-13.576 9.58-28.687 9.58-44.612 0-58.99-47.06-106.81-105.11-106.81s-105.11 47.82-105.11 106.81c0 15.925 3.43 31.036 9.58 44.612a.685.685 0 0 1-.622.969h-6.102a.68.68 0 0 1-.628-.421c-7.098-17.386-11.072-36.853-11.072-57.406C55.012 59.7 106.031 0 168.966 0S282.92 59.7 282.92 133.343m-2.721 4.082c0 19.174-3.831 37.342-10.679 53.586a.261.261 0 0 1-.483-.195c5.436-14.224 8.44-29.85 8.44-46.248 0-65.94-48.582-119.396-108.511-119.396S60.455 78.627 60.455 144.568c0 16.398 3.004 32.024 8.44 46.248a.26.26 0 0 1-.483.195c-6.848-16.244-10.678-34.412-10.678-53.586 0-69.135 49.8-125.18 111.232-125.18s111.233 56.045 111.233 125.18m-97.641 53.796h8.152v-28.072l17.2-18.026 31.099 46.098h19.265l-39.08-57.932 37.291-39.768h-19.677l-46.098 48.85v-48.85h-33.609l-23.944 82.426h-.963l-24.081-82.426H82.518v97.7h15v-79.949h.963l23.668 79.949h20.778l23.669-79.399h.963v79.399h14.999m175.122-28.812v28.468h12.071v-28.368L395 119.455h-13.178l-17.604 30.279h-.704l-17.604-30.279h-13.479zM0 119.549v71.422h48.486v-10.462H12.071v-20.32h32.794v-10.361H12.07v-19.817h35.51v-10.462zm278.99 71.328 24.344-71.422h18.006l24.243 71.422h-12.674l-7.042-21.125h-27.261l-7.041 21.125zm22.735-31.386h20.923l-10.16-30.077h-.704zm-195.148 65.225v-8.252h-3.011V215h7.664v1.464h-3.011v8.252zm-72.523 33.825C18.543 265.722 15 275.201 15 287.361v3.064l65.487-.024c15.69 0 25.473-9.075 25.473-23.557 0-13.034-9.201-22.689-22.567-22.689-6.392 0-10.557 1.738-14.14 4.924h-.582l1.356-18.344h31.865l-.249-9.152H60.48l-.568 8.361c-3.843-5.266-10.583-8.361-19.06-8.361-14.65 0-23.746 8.521-25.565 22.883H26.49c.957-8.904 5.266-13.213 14.075-13.213 7.18 0 11.394 3.16 11.394 9.479v1.819c0 5.841-3.065 9.192-10.245 12.447zm24.119-3.016c-2.7 2.842-6.415 5.204-11.098 7.42l-8.042 3.926c-6.607 3.064-10.82 6.702-11.586 13.596h31.61c-1.7-2.649-2.795-5.759-3.234-9.246-.087-.692.466-1.288 1.163-1.288h8.88c.606 0 1.112.456 1.218 1.052 1.168 6.526 5.585 9.665 13.5 9.665 8.814 0 13.753-4.441 13.753-12.551v-2.414c0-7.531-4.745-12.068-13.075-12.068-6.586 0-10.75 2.413-13.366 7.048H57.823zM112.522 215v9.716h1.642v-4.16h4.516v4.16h1.642V215h-1.642v4.092h-4.516V215zm65.134 28.586c-4.507 0-7.583-3.357-7.583-8.545s3.076-8.545 7.583-8.545c3.662 0 6.432 2.183 7.324 6.103h-2.887c-.587-2.441-2.113-3.591-4.461-3.591-2.887 0-4.695 1.948-4.695 5.375v1.362c0 3.404 1.808 5.329 4.695 5.329 2.301 0 3.803-1.08 4.437-3.521h2.888c-.892 3.944-3.639 6.033-7.301 6.033m9.107-16.879v16.668h11.315v-2.442h-8.498v-4.742h7.653v-2.418h-7.653v-4.625h8.287v-2.441zm13.372 16.668v-16.668h2.817v14.156h8.099v2.512zm12.455-16.668v16.668h11.315v-2.442h-8.498v-4.742h7.653v-2.418h-7.653v-4.625h8.286v-2.441zm13.371 16.668v-16.668h6.926c3.239 0 5.423 1.808 5.423 4.437 0 1.784-.752 2.887-2.371 3.592v.14c1.854.54 2.934 1.785 2.934 3.827 0 2.841-2.089 4.672-5.587 4.672zm2.817-2.301h4.367c1.549 0 2.817-.563 2.817-2.16v-.681c0-1.15-.728-2.159-2.888-2.159h-4.296zm0-7.23h3.991c1.432 0 2.653-.564 2.653-2.09v-.657c0-1.221-.775-2.089-2.676-2.089h-3.968zm11.954-7.137v16.668h2.817v-6.667h3.85c2.324 0 2.887 1.032 2.887 2.394v1.643c0 1.174.118 1.949.775 2.63h3.146v-.071c-.892-.681-1.104-1.573-1.104-2.911v-1.807c0-1.785-.704-2.864-2.441-3.193v-.141c1.784-.704 2.7-1.878 2.7-3.803 0-2.77-2.348-4.742-5.729-4.742zm6.808 7.63h-3.991v-5.259h3.92c1.949 0 3.029.775 3.029 2.23v.775c0 1.479-1.057 2.254-2.958 2.254m6.921 9.038 5.681-16.668h4.202l5.658 16.668h-2.958l-1.644-4.93h-6.361l-1.644 4.93zm5.305-7.325h4.883l-2.371-7.019h-.164zm13.604-6.831v14.156h2.817v-14.156h5.165v-2.512h-13.146v2.512zm9.495 14.156v-16.668h2.817v16.668zm5.462-16.668v16.668h2.677v-13.123h.14l6.785 13.123h3.92v-16.668h-2.629v13.17h-.164l-6.832-13.17zm22.953 16.879c-4.554 0-7.488-3.357-7.488-8.545 0-5.165 3.075-8.545 7.7-8.545 3.779 0 6.526 1.995 7.465 5.798h-2.864c-.728-2.3-2.23-3.286-4.601-3.286-3.005 0-4.813 1.925-4.813 5.352v1.362c0 3.544 1.784 5.446 5.047 5.446 2.512 0 4.461-1.456 4.461-3.568v-.752h-4.343v-2.253h7.066v8.78h-2.465v-2.207h-.164c-.892 1.62-2.723 2.418-5.001 2.418m-141.207 12.405c0 5.188 3.099 8.545 7.771 8.545s7.747-3.357 7.747-8.545-3.076-8.545-7.747-8.545c-4.672 0-7.771 3.357-7.771 8.545m7.771 6.033c-3.076 0-4.907-1.901-4.907-5.352v-1.338c0-3.474 1.831-5.376 4.907-5.376 3.052 0 4.883 1.902 4.883 5.376v1.338c0 3.451-1.831 5.352-4.883 5.352m16.131 2.512c-4.108 0-6.573-2.347-6.573-6.268v-10.611h2.817v10.494c0 2.559 1.244 3.803 3.756 3.803s3.756-1.268 3.756-3.803v-10.494h2.817v10.611c0 3.897-2.465 6.268-6.573 6.268m9.094-16.879v16.668h2.817v-6.667h3.85c2.324 0 2.888 1.033 2.888 2.394v1.644c0 1.174.117 1.948.774 2.629h3.146v-.07c-.892-.681-1.103-1.573-1.103-2.911v-1.808c0-1.784-.705-2.864-2.442-3.193v-.141c1.784-.704 2.7-1.878 2.7-3.803 0-2.77-2.348-4.742-5.728-4.742zm6.808 7.63h-3.991v-5.259h3.921c1.948 0 3.028.775 3.028 2.231v.774c0 1.479-1.056 2.254-2.958 2.254m16.683 9.038v-14.156h-5.164v-2.512h13.146v2.512h-5.165v14.156zm8.639-16.668 3.451 16.668h4.155l3.169-13.991h.164l3.146 13.991h4.179l3.427-16.668h-2.817l-2.676 14.227h-.164l-3.17-14.227h-4.037l-3.17 14.227h-.164l-2.653-14.227zm23.008 16.668v-16.668h11.104v2.442h-8.287v4.625h7.653v2.417h-7.653v4.743h8.498v2.441zm13.372-16.668v16.668h2.676v-13.123h.141l6.784 13.123h3.921v-16.668h-2.629v13.17h-.165l-6.831-13.17zm20.207 16.668v-14.156h-5.165v-2.512h13.146v2.512h-5.164v14.156zm14.18-6.644v6.644h2.817v-6.62l5.893-10.048H311.6l-4.108 7.067h-.164l-4.108-7.067h-3.146zm8.254.658v-2.324h6.057v2.324zm7.866-10.682v16.668h2.817v-7.043h7.465v-2.465h-7.465v-4.648h8.193v-2.512zm12.707 16.668v-16.668h2.817v16.668zm5.463-16.668v16.668h2.817v-7.043h7.465v-2.465h-7.465v-4.648h8.193v-2.512zm16.905 16.668v-14.156h-5.165v-2.512h13.147v2.512h-5.165v14.156zm9.495-16.668v16.668h2.817v-7.137h7.747v7.137h2.817v-16.668h-2.817v7.02h-7.747v-7.02zm-197.263 37.618 5.681-16.667h4.202l5.657 16.667h-2.958l-1.643-4.929h-6.362l-1.643 4.929zm5.305-7.324h4.883l-2.371-7.019h-.164zm11.469-9.343v16.667h2.676v-13.122h.141l6.784 13.122h3.921v-16.667h-2.63v13.17h-.164l-6.831-13.17zm16.169 16.667v-16.667h3.897l6.831 13.17h.164v-13.17h2.629v16.667h-3.92l-6.784-13.122h-.141v13.122zm16.168-16.667v16.667h2.817v-16.667zm9.266 16.667-5.329-16.667h2.934l4.484 14.226H230l4.507-14.226h2.911l-5.352 16.667zm10.761-16.667v16.667h11.315v-2.441h-8.498v-4.742h7.653v-2.418h-7.653v-4.625h8.287v-2.441zm13.372 16.667v-16.667h6.902c3.38 0 5.728 1.972 5.728 4.742 0 1.925-.916 3.099-2.7 3.803v.141c1.737.328 2.441 1.408 2.441 3.192v1.808c0 1.338.212 2.23 1.104 2.911v.07h-3.146c-.657-.68-.775-1.455-.775-2.629v-1.643c0-1.362-.563-2.395-2.887-2.395h-3.85v6.667zm2.817-9.038h3.991c1.901 0 2.958-.774 2.958-2.253v-.775c0-1.455-1.08-2.23-3.029-2.23h-3.92zm11.337 4.015c.469 3.333 2.981 5.235 6.761 5.235 4.037 0 6.455-1.855 6.455-4.954 0-2.652-1.76-4.202-4.859-4.695l-2.019-.305c-2.465-.399-3.099-1.15-3.099-2.254v-.422c0-1.362 1.197-2.136 3.263-2.136 1.996 0 3.076.751 3.616 2.817h2.84c-.61-3.287-2.887-5.141-6.432-5.141-3.615 0-6.104 1.878-6.104 4.789 0 2.699 1.808 4.202 4.86 4.695l2.042.328c2.441.399 3.075 1.127 3.075 2.254v.446c0 1.455-1.291 2.254-3.615 2.254s-3.498-.822-3.944-2.911zm13.612 5.023 5.681-16.667h4.202l5.657 16.667h-2.958l-1.643-4.929h-6.362l-1.643 4.929zm5.305-7.324h4.883l-2.371-7.019h-.164zm11.469-9.343v16.667h2.817v-6.667h3.85c2.324 0 2.887 1.033 2.887 2.395v1.643c0 1.174.118 1.949.775 2.629h3.146v-.07c-.892-.681-1.104-1.573-1.104-2.911v-1.808c0-1.784-.704-2.864-2.441-3.192v-.141c1.784-.704 2.7-1.878 2.7-3.803 0-2.77-2.348-4.742-5.728-4.742zm6.808 7.629h-3.991v-5.258h3.92c1.949 0 3.029.775 3.029 2.23v.775c0 1.479-1.057 2.253-2.958 2.253m11.617 9.038v-6.643l-5.893-10.024h3.146l4.108 7.066h.165l4.108-7.066h3.075l-5.892 10.047v6.62zM141.266 222.78a.6.6 0 0 0-.599.598v67.024a.599.599 0 0 0 1.197 0v-67.024a.6.6 0 0 0-.598-.598" clip-rule="evenodd"/></svg>