<svg xmlns="http://www.w3.org/2000/svg" id="Layer_1" viewBox="0 0 347 133"><defs><style>.st0{fill:#f03d40}.st1{fill:#646462}</style></defs><path d="M333.29 41.43c.22-6.78.32-13.57.7-20.34.39-6.76 1.07-13.51 1.62-20.33h11.2c-1.83 20.08-3.66 40.06-5.49 60.16h-11.18c-4.7-13.74-10.96-26.97-14.21-41.22-.94 13.72-1.88 27.4-2.82 41.2h-11.27c1.82-20.01 3.64-40.03 5.47-60.07.43-.07.68-.15.94-.15 3.24 0 6.48.02 9.72 0 .81 0 1.24.22 1.53 1.04 2.42 7.02 4.95 14.01 7.34 21.04 2 5.91 3.86 11.86 5.78 17.8.11.32.25.64.38.95.1-.03.2-.05.3-.08zM174.73 25.43c0 7.32-.84 13.49-2.97 19.43-1.67 4.66-3.99 8.94-7.84 12.22-3.17 2.7-6.85 4.16-10.98 4.58-3.1.32-6.12.05-9.08-.88-4.76-1.5-7.99-4.78-10.21-9.09-1.87-3.63-2.71-7.54-3.08-11.61-.52-5.75-.11-11.42 1.08-17.03 1.14-5.35 3.09-10.38 6.41-14.82 4.28-5.74 10.04-8.29 17.1-8.23 4.49.04 8.65 1.01 12.14 4.03 2.33 2.01 3.98 4.5 5.09 7.36 1.87 4.85 2.33 9.93 2.34 14.04m-13.68-.39c0-1.51.12-3.03-.03-4.53-.19-1.97-.42-3.97-.94-5.88-1.04-3.84-3.99-5.53-7.46-4.44-1.72.55-3.05 1.75-3.83 3.3-1.15 2.29-2.24 4.67-2.95 7.12-1.89 6.53-2.21 13.26-1.86 20.01.13 2.63.43 5.27 1.66 7.69 2.16 4.24 7.13 4.84 10 1.04 1.2-1.59 2.16-3.47 2.82-5.37 2.13-6.12 2.64-12.51 2.58-18.95h.01ZM99.29 60.93H86.7l5.4-59.55c3.46-.32 6.87-.72 10.3-.91 4.15-.24 8.31-.14 12.37.91 6.32 1.63 10.74 5.26 12.37 11.82 1.67 6.71-1.42 14.2-7.36 17.72-1.19.71-2.46 1.28-3.87 2 4.98 2.27 6.05 6.8 6.91 11.39 1.02 5.5 1.89 11.02 2.84 16.62h-12.65c-.28-1.42-.61-2.82-.83-4.24-.66-4.26-1.21-8.53-1.96-12.77-.27-1.5-.87-2.99-1.57-4.36-.87-1.71-2.44-2.53-4.38-2.55-.91-.01-1.83 0-2.93 0-.68 7.95-1.36 15.92-2.04 23.94v-.02Zm4.56-51.47c-.52 6.34-1.03 12.46-1.54 18.67 1.38 0 2.56.09 3.72-.02 3.4-.3 5.74-2.2 7.25-5.15 1.47-2.87 1.56-5.93.66-8.95-.7-2.35-2.28-4.12-4.8-4.51-1.66-.26-3.4-.05-5.3-.05h.01ZM44.17.74h12.94c-.12 1.65-.22 3.29-.37 4.92-.63 6.98-1.27 13.96-1.91 20.93-.5 5.52-1.07 11.04-1.49 16.57-.15 1.97.02 3.94.9 5.83 1.63 3.5 8 3.6 9.74.54.76-1.34 1.54-2.79 1.79-4.28.62-3.76.99-7.57 1.38-11.37.49-4.88.91-9.76 1.35-14.64.41-4.56.81-9.13 1.23-13.69.15-1.59.35-3.18.53-4.82h12.66c0 1.02.07 2.02-.01 3.01q-.72 8.205-1.5 16.41c-.38 4.08-.8 8.15-1.21 12.22-.35 3.54-.59 7.09-1.08 10.61-.52 3.75-1.57 7.36-3.54 10.64-2.61 4.34-6.46 6.79-11.39 7.69-4.54.83-9.03.73-13.39-.8-5.92-2.08-9.08-6.44-9.92-12.58-.61-4.48-.12-8.93.26-13.39.44-5.26.92-10.52 1.39-15.78.53-5.95 1.08-11.9 1.63-18.02zM283.15 47.09H270.4c-1.39 4.58-2.77 9.15-4.18 13.83H253.6c6.76-20.09 13.49-40.09 20.24-60.17h15.11c2.77 20.04 5.52 40.01 8.3 60.14H284.8c-.54-4.54-1.09-9.11-1.65-13.8m-.69-8.4c-.87-9.18-1.72-18.26-2.58-27.29-2.39 9.04-4.79 18.1-7.23 27.29zM183.45 1.46c5.63-.74 11.14-1.41 16.69-.98 4.48.35 8.86 1.3 12.6 4.05 3.86 2.84 6.09 6.74 6.58 11.43.76 7.2-1.37 13.46-7.11 18.13-3.29 2.68-7.26 3.99-11.43 4.53-2.65.34-5.35.36-8.17.53-.66 7.23-1.32 14.49-1.98 21.79h-12.6c1.81-19.89 3.6-39.66 5.41-59.48Zm10.04 28.31c1.07 0 1.99.03 2.9 0 4.73-.16 7.78-2.29 9.39-6.75.91-2.53.98-5.18.35-7.79-.63-2.65-2.21-4.49-4.92-5.22-1.89-.51-3.79-.65-5.85-.02-.61 6.5-1.23 13.01-1.86 19.79h-.01ZM227.04.76h29.01c-.31 3.26-.61 6.44-.93 9.84h-15.91c-.52 4.79-1.02 9.37-1.54 14.15h15.49c-.34 3.31-.66 6.42-1 9.67H237c-.54 5.53-1.07 10.93-1.63 16.57h17.44c-.36 3.49-.69 6.73-1.02 9.96h-30.22c1.82-20.07 3.64-40.09 5.47-60.19M36.73.78c-.32 3.25-.63 6.39-.96 9.71H19.86c-.53 4.79-1.03 9.41-1.57 14.29h15.48c-.32 3.33-.62 6.4-.93 9.62H17.65c-.53 5.56-1.05 10.96-1.59 16.58h17.42l-.99 9.93H2.23C4.06 40.85 5.88 20.87 7.71.78z" class="st0"/><path d="M151.5 83.71c1.32 2.22 2.34 4.45 4.09 6.41 1.49-2.07 1.8-4.39 2.51-6.62h2.53c-.65 3.27-1.86 6.13-3.75 8.85.83 1.19 1.68 2.42 2.55 3.66-2.43.6-2.81.47-4.46-1.64-.41.28-.83.58-1.27.85-2.08 1.26-4.29 1.77-6.65.96-4.23-1.45-5.51-6.84-2.42-10.38.94-1.08 2.12-1.96 3.09-2.84-.39-1.73-1.02-3.42-1.09-5.14-.17-4.06 3.26-6.82 7.61-5.39 2.43.8 3.53 4.62 1.95 7.04-.71 1.1-1.79 1.98-2.76 2.89-.5.47-1.14.8-1.92 1.34ZM149.12 85c-2.31 1.34-3.54 3.49-3.24 5.54.25 1.71 1.04 3.07 2.76 3.65 1.69.57 3.65-.2 5-1.91-1.48-2.38-2.97-4.79-4.52-7.28m1.44-3.18c.79-.61 1.48-1.05 2.03-1.61 1.1-1.11 1.85-2.39 1.52-4.05-.28-1.42-.96-2.14-2.03-2.16-1.03-.02-2.26.83-2.52 1.95-.47 2-.33 3.94.99 5.87ZM297.55 72.41h2.54c-.71 7.95-1.91 15.79-2.75 23.76h-2.7c-1.84-5.99-3.67-11.98-5.51-17.96h-.24c-.66 5.94-1.33 11.87-2.01 17.93h-2.65c.96-7.84 1.93-15.71 2.91-23.69h2.79c1.78 5.95 3.58 11.99 5.39 18.03.07-.02.14-.03.2-.05.66-5.95 1.33-11.9 2.01-18.02zM74.18 72.44c.32-.04.58-.09.83-.1 1.32-.05 2.17.57 2.54 1.85 1.66 5.67 3.33 11.33 4.97 16.91.69-6.15 1.39-12.37 2.1-18.67h2.6c-.95 7.91-1.89 15.77-2.85 23.73h-2.7c-1.89-6.23-3.8-12.49-5.65-18.61-.68 6.04-1.38 12.26-2.09 18.59H71.3c.96-7.91 1.91-15.78 2.87-23.71h.01ZM206.6 84.79c2.08 1.19 2.44 3 2.71 4.83.32 2.13.56 4.26.85 6.53h-2.88c-.26-2.05-.53-4.12-.79-6.19a7 7 0 0 0-.13-.8c-.64-3.08-2.04-3.67-4.69-3.17-.4 3.34-.82 6.73-1.24 10.2h-2.85c.95-7.92 1.89-15.74 2.86-23.8 2.04 0 4.05-.22 5.99.05 4.14.57 5.48 4.09 4.7 7.39-.56 2.37-2.08 3.96-4.53 4.97Zm-4.59-1.35c2.53.81 5.94-.56 6.28-4.64.27-3.23-1.28-4.33-3.84-4.34-1.11 0-1.48.43-1.57 1.49-.23 2.5-.57 4.99-.87 7.49M42.94 85.98c-.41 3.41-.81 6.76-1.22 10.2h-2.85c.95-7.86 1.89-15.63 2.85-23.59 2.33-.32 4.68-.63 6.99.06 4.81 1.44 4.8 7.22 2.23 10.06-.74.82-1.75 1.4-2.72 2.15 2.07 1.46 2.25 3.78 2.48 6.13.17 1.7.53 3.37.83 5.17h-2.96c-.26-2.02-.53-4.09-.8-6.15-.03-.21 0-.43-.06-.64-.62-3.07-1.97-3.92-4.77-3.39m.32-2.48c2.07.43 3.75-.13 5.04-1.6 1.38-1.58 1.63-3.5.96-5.45-.52-1.53-3.11-2.56-4.49-1.87-.24.12-.48.47-.51.74-.35 2.7-.66 5.41-.99 8.18ZM108.63 72.8c-.22.7-.42 1.31-.63 1.99-.33 0-.65.05-.95 0-4.15-.81-6.89 1.01-8.56 4.47-1.74 3.6-2.07 7.46-.89 11.33.91 2.99 3.53 4.22 6.38 3.06.28-2.42.55-4.87.85-7.48-1.12-.07-2.11-.13-3.31-.2.14-.76.26-1.42.39-2.15h5.98c-.22 2.14-.41 4.21-.65 6.27-.18 1.55-.45 3.09-.6 4.64-.07.7-.34 1.03-1.01 1.24-4.6 1.44-10.11.2-11.36-6.22-1.09-5.58-.13-10.74 4.01-14.96 2.38-2.43 7.1-3.33 10.35-1.99M321.62 72.73c-.26.76-.48 1.41-.73 2.13-.51-.05-.98-.09-1.45-.16-3.09-.43-5.61.65-7.22 3.24-2.56 4.11-2.98 8.59-1.41 13.18.75 2.19 2.89 3.33 5.16 2.89.37-.07.92-.49.97-.82.35-2.33.59-4.67.88-7.16h-2.93c-.49-1.97-.27-2.3 1.44-2.3h4.53c-.15 1.28-.28 2.32-.39 3.38-.29 2.62-.55 5.25-.89 7.86-.04.33-.4.77-.71.88-4.16 1.44-9.71.79-11.38-5.18-1.45-5.17-.66-10.06 2.43-14.46 2.42-3.43 7.01-4.95 11.7-3.49ZM181.68 86.57c-.38 3.3-.73 6.38-1.1 9.58h-2.9c.96-7.84 1.91-15.65 2.88-23.56 2.37-.32 4.62-.57 6.83.02 2.88.77 4.52 3.41 4.25 6.41-.46 5.15-4.05 7.67-8.36 7.56-.48-.01-.96 0-1.6 0Zm.36-2.52c3.59.88 6.46-1.35 6.63-4.97.15-3.11-1.6-5.36-5.55-4.24-.36 3.06-.73 6.14-1.09 9.2ZM22.97 86.57c-.38 3.29-.75 6.43-1.12 9.63H19.1c0-.49-.05-.95 0-1.4.59-4.85 1.19-9.71 1.79-14.56.28-2.24.6-4.47.86-6.71.07-.61.21-1.09.91-1.08 1.98.03 4.01-.16 5.93.21 2.71.53 4.15 2.57 4.28 5.34.25 5.08-3.02 8.54-8.11 8.57h-1.8zm.34-2.47c3.53.6 5.7-.76 6.46-4 .85-3.63-1.06-6.42-5.32-5.29-.37 3.04-.75 6.12-1.14 9.29M222.06 84.89c-.37 3.08-.71 5.89-1.07 8.92h7.3c-.09.89-.15 1.57-.23 2.35h-10.28c.97-7.91 1.92-15.72 2.9-23.68h9.76c-.06.76-.12 1.42-.19 2.22h-6.9c-.34 2.64-.67 5.16-1.03 7.88h6.45c-.09.85-.15 1.51-.23 2.31zM235.94 93.3c.7.19 1.41.4 2.12.58 2.68.67 5.14-.53 5.67-2.85.43-1.89-.2-3.53-1.5-4.88-.78-.81-1.71-1.48-2.51-2.27-1.28-1.26-2.33-2.64-2.65-4.51-.55-3.23 1.17-6.09 4.38-6.89 1.95-.48 3.91-.43 5.91.37-.15.81-.27 1.48-.43 2.32-.7-.17-1.26-.43-1.82-.42-1.16.04-2.44-.05-3.44.41-1.8.83-2.28 3.2-1.21 5.05.39.69.96 1.29 1.53 1.85.95.96 2.03 1.78 2.92 2.79 2.46 2.76 2.59 6.66.41 9.33-1.21 1.48-2.87 2.07-4.67 2.26-1.06.11-2.18.09-3.21-.16-2.67-.65-2.34-.61-1.5-2.97ZM327.26 95.45c.24-.77.45-1.42.68-2.14.85.22 1.57.42 2.29.58 2.24.47 4.22-.2 5.14-1.73 1-1.66.71-4-.83-5.67-1.05-1.15-2.3-2.12-3.33-3.28-.74-.83-1.47-1.77-1.84-2.8-1.42-3.93.91-7.58 5.09-8.09 1.65-.2 3.31-.21 5.01.6-.19.74-.38 1.44-.52 1.99-1.45-.06-2.74-.31-3.97-.13-2.6.38-3.85 2.77-2.58 5.07.71 1.28 1.87 2.33 2.95 3.37 1.33 1.28 2.62 2.54 3.17 4.38 1.36 4.56-1.21 8.44-5.94 8.87-1.78.16-3.54-.02-5.33-1v-.02ZM126.52 72.69c-.24.99-.39 1.66-.55 2.33-1.11-.15-2.1-.39-3.1-.4-1.47-.02-2.81.47-3.47 1.91-.72 1.55-.54 3.05.67 4.33.77.82 1.57 1.62 2.4 2.37 1.63 1.47 2.98 3.1 3.35 5.35.7 4.2-1.81 7.5-6.06 7.84-1.06.08-2.15 0-3.21-.19-2.34-.4-2.4-.57-1.46-2.92.7.19 1.41.41 2.14.57 2.13.48 4.13-.17 5.06-1.62 1.02-1.59.94-3.69-.47-5.41-1.12-1.36-2.5-2.5-3.74-3.76-1.34-1.37-1.99-3.01-2.03-4.94-.04-2.02.8-3.55 2.38-4.68 2.47-1.77 5.14-1.41 8.08-.79h.01ZM.2 95.5c.23-.79.42-1.44.65-2.2.7.18 1.25.36 1.82.45.74.12 1.49.28 2.23.25 3.01-.14 4.81-2.79 3.62-5.56-.53-1.23-1.48-2.35-2.44-3.31-1.67-1.68-3.51-3.17-4.02-5.68-.68-3.31 1.4-6.58 4.72-7.07 1.31-.19 2.69-.13 4.02 0 1.66.16 1.8.5 1.21 2.11-.07.19-.19.37-.31.59-.71-.16-1.38-.35-2.06-.45-1.91-.28-3.48.42-4.3 1.85-.77 1.34-.53 3.23.75 4.62 1.05 1.15 2.26 2.15 3.38 3.23 1.92 1.86 2.64 4.16 2.24 6.77-.49 3.25-2.51 4.64-5.37 5.26-2.02.43-4.06.15-6.14-.84zM265.46 72.58c-.26 1.08-.41 1.75-.58 2.46-1.07-.16-2.05-.37-3.05-.44-1.44-.09-2.65.43-3.39 1.74-.8 1.4-.75 2.85.21 4.1.77 1.01 1.74 1.9 2.69 2.75 2.08 1.86 3.63 3.94 3.46 6.94-.17 3.12-1.67 5.13-4.67 6.03-2.1.63-4.67.39-6.9-.73.2-.65.41-1.34.66-2.14.67.19 1.23.35 1.79.49 2.48.66 4.78-.05 5.73-1.77 1.02-1.85.4-4.4-1.46-6.14-1.1-1.03-2.21-2.05-3.24-3.15-.97-1.04-1.59-2.29-1.7-3.75-.29-4.01 2.1-6.58 6.44-6.76 1.25-.05 2.52.22 4.01.37M274.9 96.19h-2.92c.97-7.93 1.93-15.77 2.9-23.72h2.92c-.97 7.9-1.92 15.73-2.9 23.72M61.96 96.18h-2.89c.96-7.94 1.91-15.81 2.88-23.76.59-.03 1.07-.07 1.54-.07.41 0 .83.05 1.38.09zM99.03 112.35c3.34 0 4.77 2.44 4.77 4.86s-1.43 4.86-4.77 4.86h-3.45v5.43H92.9v-15.16h6.14-.01Zm-.13 7.3c1.58 0 2.22-1.21 2.22-2.44s-.62-2.46-2.16-2.46h-3.39v4.91h3.33ZM113.4 117.23h2.55v10.28h-2.55v-1.61c-.68 1.12-2.05 1.87-3.52 1.87-2.75 0-4.95-2.22-4.95-5.41s2.11-5.39 5.02-5.39c1.41 0 2.77.62 3.45 1.69zm-.04 5.13c0-1.76-1.45-3.01-2.97-3.01-1.65 0-2.9 1.36-2.9 3.01s1.25 3.04 2.93 3.04c1.58 0 2.95-1.32 2.95-3.04zM126.16 117.32l-.51 2.42c-.59-.31-1.12-.37-1.5-.37-1.67 0-2.6 1.67-2.6 4.55v3.59h-2.57v-10.28h2.55v2.2c.55-1.72 1.67-2.46 2.95-2.46.62 0 1.28.13 1.67.35zM133.51 117.23v2.02h-2.18v8.25h-2.55v-8.25h-1.85v-2.02h1.85v-3.78h2.55v3.78zM140.19 122.36c0-3.26 2.53-5.39 5.46-5.39s5.48 2.13 5.48 5.39-2.55 5.41-5.48 5.41-5.46-2.16-5.46-5.41m8.37 0c0-1.76-1.32-3.01-2.9-3.01s-2.88 1.25-2.88 3.01 1.3 3.04 2.88 3.04 2.9-1.23 2.9-3.04M159.07 114.02c-1.74 0-2.24.97-2.22 2.22v.99h2.29v2.02h-2.29v8.25h-2.55v-8.25h-1.96v-2.02h1.96v-.86c0-2.95 1.41-4.73 4.27-4.73h1.21v2.38zM169.3 125.11h5.9v2.4h-8.58v-15.16h2.68zM186.92 123.26h-7.97c.29 1.43 1.39 2.2 2.93 2.2 1.1 0 2.18-.48 2.77-1.32l1.72 1.3c-.95 1.5-2.77 2.33-4.64 2.33-3.06 0-5.39-2.2-5.39-5.41s2.44-5.39 5.39-5.39 5.24 2.09 5.24 5.3c0 .29-.02.62-.04.99Zm-2.48-1.78c-.15-1.41-1.25-2.24-2.68-2.24s-2.49.68-2.79 2.24h5.48zM188.62 124.34h2.4c0 .7.62 1.36 1.69 1.36 1.01 0 1.67-.51 1.67-1.17 0-.57-.44-.84-1.21-1.01l-1.36-.35c-2.31-.62-2.9-1.85-2.9-3.15 0-1.61 1.58-3.06 3.83-3.06 1.83 0 3.89.92 3.87 3.21h-2.44c0-.7-.64-1.14-1.36-1.14-.79 0-1.34.46-1.34 1.1 0 .53.51.84 1.1.97l1.65.44c2.31.59 2.73 2.05 2.73 2.99 0 2.09-2.09 3.23-4.18 3.23s-4.09-1.23-4.14-3.43ZM196.54 132.53v-2.33h1.25c1.34 0 1.72-1.1 1.69-2.27v-10.69h2.55v10.65c0 2.86-1.28 4.64-4.16 4.64h-1.34Zm2.57-18.93c0-.9.75-1.56 1.65-1.56s1.67.66 1.67 1.56-.75 1.56-1.67 1.56-1.65-.68-1.65-1.56M204.43 122.36c0-3.26 2.53-5.39 5.46-5.39s5.48 2.13 5.48 5.39-2.55 5.41-5.48 5.41-5.46-2.16-5.46-5.41m1.79-8.45c0-.79.68-1.41 1.5-1.41s1.45.62 1.45 1.41-.66 1.41-1.45 1.41-1.5-.62-1.5-1.41m6.58 8.45c0-1.76-1.32-3.01-2.9-3.01s-2.88 1.25-2.88 3.01 1.3 3.04 2.88 3.04 2.9-1.23 2.9-3.04m-2.16-8.45c0-.79.68-1.41 1.5-1.41s1.47.62 1.47 1.41-.66 1.41-1.47 1.41-1.5-.62-1.5-1.41M223.31 114.02c-1.74 0-2.25.97-2.22 2.22v.99h2.29v2.02h-2.29v8.25h-2.55v-8.25h-1.96v-2.02h1.96v-.86c0-2.95 1.41-4.73 4.27-4.73h1.21v2.38zM224.43 122.36c0-3.26 2.53-5.39 5.46-5.39s5.48 2.13 5.48 5.39-2.55 5.41-5.48 5.41-5.46-2.16-5.46-5.41m8.36 0c0-1.76-1.32-3.01-2.9-3.01s-2.88 1.25-2.88 3.01 1.3 3.04 2.88 3.04 2.9-1.23 2.9-3.04M244.94 117.32l-.51 2.42c-.59-.31-1.12-.37-1.5-.37-1.67 0-2.6 1.67-2.6 4.55v3.59h-2.58v-10.28h2.55v2.2c.55-1.72 1.67-2.46 2.95-2.46.62 0 1.28.13 1.67.35zM245.77 124.34h2.4c0 .7.62 1.36 1.69 1.36 1.01 0 1.67-.51 1.67-1.17 0-.57-.44-.84-1.21-1.01l-1.36-.35c-2.31-.62-2.9-1.85-2.9-3.15 0-1.61 1.58-3.06 3.83-3.06 1.83 0 3.89.92 3.87 3.21h-2.44c0-.7-.64-1.14-1.36-1.14-.79 0-1.34.46-1.34 1.1 0 .53.51.84 1.1.97l1.65.44c2.31.59 2.73 2.05 2.73 2.99 0 2.09-2.09 3.23-4.18 3.23s-4.09-1.23-4.14-3.43h-.01Z" class="st1"/></svg>