<svg xmlns="http://www.w3.org/2000/svg" class="w-[130px] xl:w-[197px] h-[47px] xl:h-[70px] transition-all" viewBox="0 0 2455.41 766.9"><defs><style>.cls-1{fill:#fff;fill-rule:evenodd;stroke-width:0}</style></defs><g id="Vordergrund"><path d="M28.83 99.5v513c0 45.89 31.56 60.94 31.56 60.94s82.16 43.91 97.49 52.05 30.4 11.42 40.93 11.42c55.66 0 69.33-48.74 69.33-72.29v-193.5h124.39v150.54c0 24.35 31.33 48.74 31.33 48.74l92.98 47.24s38.2 20.46 61.67 20.46 40.63-12.03 54.76-31.89S650.13 637 650.13 637s121.56 68.61 186.54 68.61 112.24-35.52 112.24-35.52S982.3 702 1022.3 702c28.72 0 47.25-21.06 47.25-21.06l71.31 42.11s20.47 14.75 46.34 14.75c56.56 0 68.3-53.55 68.3-66.8V525.09s71.31 98.99 90.25 124.27c18.94 25.27 44.53 39.4 44.53 39.4l47.54 28.28s33.99 23.17 70.41 23.17c45.73 0 69.49-39.71 69.49-70.11s-30.08-62.57-30.08-62.57l-57.16-69.81-51.45-64.08s28.28-13.25 42.13-24.07c11.39-8.9 25.88-23.77 33.39-33.11 7.52-9.34 24.97-30.99 32.19-51.75s11.55-40.91 11.55-62.87-5.22-45.74-15.46-72.51c-10.24-26.78-28.88-53.86-45.14-73.42-16.25-19.56-38.5-41.53-63.47-60.77s-43.94-29.5-71.01-42.43c-27.08-12.93-64.98-19.93-82.43-19.93h-183.55c-56.28 5.64-77.18 42.65-77.18 67.92v336.83c-12.21-28.28-30.22-35.8-30.22-35.8s6.91-39.12 6.91-66.8c0-21.67-9.92-42.13-18.04-54.46s-12.05-18.96-27.98-35.19-27.08-26.18-41.53-37.02-38.5-27.38-66.2-35.19c-27.7-7.82-64.68-9.18-64.68-9.18s-44.54-1.96-81.23 18.5c-36.7 20.46-48.74 55.66-48.74 55.66v-74.16c-.3-4.67-3.91-23.93-10.84-34.75s-20.76-21.36-20.76-21.36L531.6 46.61s-17.16-15.55-50.85-15.55c-64.7 0-88.19 46.94-88.19 69.66v175.73H268.17V156.83s-1.63-15.95-7.96-24.67-17.74-19.26-17.74-19.26l-71.31-62.33s-21.37-20.1-54.15-20.1c-55.06 0-88.14 45.14-88.14 69.06Zm84.51-93.97c33.96 0 56.47 9.08 69.9 19.75 13.43 10.66 84.9 75.43 84.9 75.43s26.06 25.27 26.06 50.55v97.54h71.48V100.7c0-31.2 15.8-55.29 37.91-72.66S448.61 5.53 480.6 5.53s44.23 4.74 66.74 18.96l89.64 65.55s14.22 9.48 24.88 26.85c10.66 17.38 13.43 46.99 13.43 46.99s33.96-27.25 102.67-27.25 121.43 34.75 121.43 34.75 65.95 39.89 91.82 79.38V108.2c0-31.2 16.19-58.84 32.78-75.43 16.58-16.59 49.16-27.25 69.7-27.25h192.12c30.6 0 80.56 13.43 120.84 35.74s83.72 59.04 125.58 111.17 56.04 100.7 56.04 148.88-15.94 91.39-39.45 122.03c-26.06 33.96-68.32 58.45-68.32 58.45l93.01 114.1s32.57 34.68 32.57 73.48c0 44.23-35.94 94.38-95.57 94.38-37.12 0-69.5-16.98-89.25-27.25s-64.37-36.72-75.03-47.78-65.55-82.93-65.55-82.93v79.38c0 13.43-19.35 81.75-94.38 81.75-33.17 0-76.22-30.41-76.22-30.41l-39.1-24.09s-21.32 14.22-50.94 14.22c-34.75 0-74.24-25.67-74.24-25.67s-54.1 27.64-104.25 27.64S729 700.57 729 700.57l-59.63-27.25s-7.9 92.41-95.17 92.41c-24.48 0-142.56-59.24-142.56-59.24s-65.95-31.99-65.95-82.53V497.99h-71.48v174.94c0 30.41-21.72 90.83-94.78 90.83-38.31 0-75.43-24.88-75.43-24.88L49.76 698.6S0 674.89 0 616.84V100.7c0-17.77 10.11-50.58 43.44-72.66C73.85 7.9 91.22 5.53 113.34 5.53" class="cls-1"/><path d="M1437.91 0h249.79s68.06 47.96 120.63 115.34 71.82 125.02 71.82 172.53-1.69 119.62-78.18 206.24c0 0 39.02 40.42 57.92 71.09 18.91 30.68 26.96 48.19 26.96 70.59s-6.7 47.68-13.79 68.22-21.56 52.91-21.56 52.91h-212.99s26.96-38.11 26.96-81.56-29.66-72.11-29.66-72.11l-87.59-109.15s43.45-30.05 64-73.84c20.55-43.8 30.57-88.36 30.57-136.33s-14.57-96.1-46.05-139.82c-28.98-40.25-46.75-59.01-82.56-89.12C1485.17 30.59 1437.91 0 1437.91 0" class="cls-1"/><path d="M1753.02 0h238.77s37.81 28.74 90.39 96.12 72.25 144.23 72.25 191.74-1.11 119.62-77.61 206.24c0 0 38.18 39.36 57.09 70.03 18.9 30.68 26.15 49.25 26.15 71.65s-3.91 48.14-10.99 68.69c-7.09 20.55-19.92 52.45-19.92 52.45h-227.46s33.21-72.68 29.44-118.15c-6.55-78.8-81.18-143.91-81.18-143.91s39.88-39.41 55.9-85.05c15.75-44.89 22.89-68.43 22.89-116.4s-21.54-107.44-51.14-152.46c-26.46-40.25-36.81-52.57-69.59-85.96-26.47-26.96-55-54.99-55-54.99Z" class="cls-1"/><path d="M2047.38 0h238.77s24.28 19.48 75.23 88.1c51.43 69.28 65.42 152.25 65.42 199.76s-1.11 119.62-77.61 206.24c0 0 38.18 39.36 57.09 70.03 18.91 30.68 26.15 49.25 26.15 71.65s-3.9 48.14-10.99 68.69-19.92 52.45-19.92 52.45h-227.46s33.21-72.68 29.44-118.15c-6.55-78.8-81.18-143.91-81.18-143.91s39.88-39.41 55.9-85.05c15.75-44.89 26.05-68.43 26.05-116.4 0-34.34-16.09-111.76-45.69-156.78-26.46-40.25-33.6-53.29-60.66-83.32C2072.63 25.25 2047.37 0 2047.37 0ZM2410.05 1.21c7.62 0 15.06 1.97 22.32 5.9 7.26 3.89 12.91 9.49 16.96 16.78 4.05 7.26 6.08 14.84 6.08 22.74 0 7.82-2.01 15.34-6.02 22.56-3.97 7.22-9.56 12.84-16.78 16.85-7.18 3.97-14.7 5.96-22.56 5.96s-15.4-1.99-22.62-5.96c-7.18-4.01-12.78-9.62-16.79-16.85-4.01-7.22-6.01-14.74-6.01-22.56s2.02-15.48 6.08-22.74c4.09-7.3 9.76-12.89 17.03-16.78 7.25-3.93 14.7-5.89 22.32-5.9Zm0 7.52c-6.38 0-12.6 1.64-18.65 4.93-6.02 3.25-10.73 7.92-14.14 14.02-3.41 6.06-5.12 12.37-5.12 18.95s1.66 12.81 4.99 18.83c3.37 5.98 8.07 10.65 14.08 14.02 6.02 3.33 12.29 4.99 18.83 4.99s12.81-1.66 18.83-4.99c6.02-3.37 9.74-8.04 13.07-14.02 3.32-6.02 5.94-12.29 5.94-18.83s-1.71-12.89-5.12-18.95c-3.37-6.09-8.08-10.77-14.14-14.02-6.05-3.29-12.25-4.93-18.59-4.93Zm-19.91 62.99V22.87h16.78q8.61 0 12.45 1.38c2.57.88 4.61 2.45 6.14 4.69 1.52 2.25 2.29 4.63 2.29 7.16 0 3.57-2.23 6.68-4.8 9.33-2.53 2.65-4.95 4.13-9.16 4.45 1.73.72 3.11 1.58 4.15 2.59 1.96 1.92 4.37 5.16 7.22 9.69l5.96 9.56h-9.63l-4.33-7.7c-3.41-6.06-6.16-9.85-8.24-11.37-1.44-1.12-3.55-1.68-6.32-1.68h-4.63v20.76h-7.88Zm7.88-27.49h9.57q6.855 0 9.33-2.04c1.68-1.36 2.53-3.17 2.53-5.41 0-1.44-.41-2.73-1.21-3.85-.8-1.16-1.92-2.03-3.37-2.59-1.41-.56-4.03-.84-7.88-.84h-8.96v14.74ZM47.39 118.01v-13.55c0-24.07 24.17-59.06 67.18-59.06s68.67 33.79 68.67 58.76v190.03H410.7V101.76c0-21.67 19.48-56.36 67.32-56.36s69.31 33.19 69.31 56.66v506.38c0 9.01-9.75 56.86-69.01 56.86s-67.62-50.25-67.62-56.86v-209.6H183.24v201.78c0 46.04-32.55 65.88-68.97 65.88s-66.88-24.67-66.88-57.16zM779.8 340.01s46.34-17.41 46.34-56.08c0-17.9-21.06-32.94-41.83-32.94s-41.83 12.02-41.83 32.94c0 34.75 37.32 56.08 37.32 56.08m-26.48 104.65s-52.05 24.16-52.05 58.77c0 16.25 9.02 49.83 51.45 49.83s70.11-31.47 70.11-31.47zm80.33-46.24 59.27 63.18 34.91-38.8s11.12-13.68 31.29-13.68 39.12 13.98 39.12 38.35-21.67 43.01-21.67 43.01l-28.58 30.39 38.5 43.33s12.05 10.52 12.05 28.28-14.15 43.31-41.23 43.31-48.14-30.37-48.14-30.37l-20.76-24.37s-58.99 54.74-150.74 54.74-144.41-52.03-144.41-123.95 55.68-113.72 101.09-133.88c0 0-44.53-36.72-44.53-91.48s47.24-105.9 132.98-105.9 131.78 50.25 131.78 105.3-33.69 86.06-68.29 105.6l-12.65 6.93ZM1171.68 171.39v112.55h88.63s51.95-.75 51.95-57.01-58.27-55.53-58.27-55.53h-82.32Zm-63.32-120.84h151.65c26.18 0 77.34 7.57 116.44 34.35s74.3 74.04 74.3 160.68-64.68 118.23-64.68 118.23-21.37 12.95-44.53 19.56c27.08 37.02 106.51 146.83 106.51 146.83s31.9 35.52 31.9 67.71-27.08 64.68-66.5 64.68-57.16-32.79-57.16-32.79l-183.55-249.13v228.97c0 20.17-12.93 54.98-67.39 54.98s-66.37-36.62-66.37-54.38V102.06c0-28.28 29.67-51.51 60.65-51.51h8.72Z" class="cls-1"/></g></svg>