<svg xmlns="http://www.w3.org/2000/svg" width="133" height="41.2" viewBox="0 0 133 41.2"><g fill="#ef7d00"><path d="M76.06 9.9c0-.35-.21-.49-.63-.49h-.65v1.72h.28v-.73h.27l.44.73h.32l-.48-.76c.26-.03.45-.16.45-.47m-1 .25v-.5h.34c.17 0 .37.02.37.23 0 .25-.19.27-.4.27h-.32Z"/><path d="M75.37 8.69c-.82 0-1.53.62-1.53 1.55 0 .88.64 1.55 1.53 1.55.81 0 1.52-.62 1.52-1.55s-.71-1.55-1.52-1.55m0 2.83c-.74 0-1.2-.58-1.2-1.28 0-.76.52-1.28 1.19-1.28s1.19.53 1.19 1.28c0 .76-.52 1.28-1.19 1.28Z"/><path d="M73.56 17.86c-.49-.69-1.15-1.24-1.95-1.66-2.17-1.14-5.37-1.4-9.11-1.4-2.76 0-3.63-1-3.63-2.59 0-1.06 1.01-3.52 5.64-3.53 3.81 0 5.8 2.1 5.7 3.13h3.28C73.62 7.6 68.3 5.4 64.5 5.4c-5.71 0-8.91 2.81-8.91 6.89 0 1.59.4 2.92 1.3 3.91.72.8 1.77 1.37 3.18 1.66h-5.18V5.44h-3.15v12.42H35.49V5.44h-3.5v12.42h-.46V5.44h-3.27v3.61c-2.08-2.23-4.98-3.61-8.19-3.61-5.93 0-10.8 4.71-11.4 10.76-.04.41-.06.82-.06 1.24v.42h-.46V5.44H4.87v12.42H0v.67h4.9v10.9h3.28v-10.9h.5c.19 2.23.97 4.29 2.17 6 2.09 2.97 5.45 4.9 9.24 4.9 3.21 0 6.11-1.38 8.19-3.61v3.61-.07a9.3 9.3 0 0 1-.75 3.51c-1.3 3-4.14 5.07-7.44 5.07s-6.14-2.08-7.44-5.07a9.3 9.3 0 0 1-.75-3.51H8.64c.01 1.22.2 2.4.54 3.51 1.48 4.83 5.81 8.33 10.91 8.33s9.44-3.5 10.91-8.33c.34-1.11.53-2.29.54-3.51V18.53h.5c.19 2.23.97 4.29 2.17 6 2.09 2.97 5.45 4.9 9.24 4.9 3.2 0 6.09-1.37 8.17-3.59v3.59h3.28v-10.9h13.59c2.38.54 2.83 1.57 2.84 3.06 0 1.25-.45 2.22-1.27 2.94-1.17 1.02-3.1 1.51-5.55 1.51-2.16 0-3.72-.63-4.71-1.51-.95-.84-1.39-1.91-1.33-2.84h-3.28c-.03 1.02.17 1.98.56 2.84 1.31 2.89 4.74 4.79 8.77 4.79 3.48 0 8.03-1.04 9.57-4.79.34-.84.54-1.82.53-2.95 0-1.22-.23-2.22-.64-3.05h5.52v-.67h-5.92Zm-48.53 6.67c-1.34 1.03-2.99 1.64-4.77 1.64s-3.43-.61-4.77-1.64c-1.81-1.38-3.06-3.53-3.35-6h16.25c-.29 2.47-1.55 4.62-3.35 6Zm3.41-6.67H12.07v-.43c0-.42.03-.83.08-1.23.56-4.24 3.98-7.51 8.11-7.51s7.55 3.26 8.11 7.51c.05.4.08.81.08 1.23v.43Zm19.95 6.67c-1.34 1.03-2.99 1.64-4.77 1.64s-3.43-.61-4.77-1.64c-1.81-1.38-3.06-3.53-3.35-6h16.25c-.29 2.47-1.55 4.62-3.35 6ZM6.54 3.27c.91 0 1.64-.73 1.64-1.63a1.641 1.641 0 0 0-3.28-.01c0 .9.73 1.63 1.64 1.63Z"/></g><g fill="#ef7d06"><path d="M79.23 26.3h2.92v2.84h-2.92zM91.4 21.91c-.19-1.35-1.14-2.04-2.48-2.04-1.24 0-2.99.67-2.99 3.96 0 1.81.8 3.72 2.88 3.72 1.41 0 2.36-.9 2.59-2.48h2.4c-.44 2.84-2.19 4.38-4.99 4.38-3.41 0-5.28-2.42-5.28-5.62s1.79-5.85 5.37-5.85c2.52 0 4.67 1.26 4.9 3.93zM94.4 23.69c0-3.3 2.02-5.72 5.49-5.72s5.49 2.42 5.49 5.72-2.02 5.75-5.49 5.75-5.49-2.4-5.49-5.75m8.59 0c0-1.87-.95-3.83-3.09-3.83s-3.09 1.96-3.09 3.83.95 3.85 3.09 3.85 3.09-1.96 3.09-3.85M106.73 26.3h2.92v2.84h-2.92zM121.11 29.14h-2.36v-1.51h-.04c-.59 1.09-1.89 1.81-3.09 1.81-2.86 0-4.06-1.41-4.06-4.27v-6.9h2.4v6.67c0 1.91.76 2.61 2.08 2.61 2 0 2.67-1.28 2.67-2.97v-6.31h2.4v10.88ZM122.85 14.12h2.4v8.54l4.33-4.4h2.95l-4.17 4 4.57 6.88h-2.92l-3.32-5.28-1.43 1.39v3.89h-2.4V14.12Z"/></g></svg>