<svg xmlns="http://www.w3.org/2000/svg" width="410.946" height="312.575"><path d="M268.912 103.795h161.685v51.254h-95.541v40.272h80.842v47.593h-80.842V338.1h-66.144zM28.226 404.982h410.228v10.983H28.226v-10.983" style="fill:maroon;fill-opacity:1;fill-rule:evenodd;stroke:none" transform="translate(-27.508 -103.39)"/><g style="font-size:318.18850708px;font-style:normal;font-weight:400;fill:#000;fill-opacity:1;stroke:none;font-family:Bitstream Vera Sans"><path d="M31.65 100.367h92.598l35.734 138.586 35.579-138.586h92.287v227.766h-57.486V154.434l-44.59 173.699h-52.047L89.291 154.434v173.699H31.65z" style="font-family:Arial Black;-inkscape-font-specification:Arial Black" transform="matrix(.97076 0 0 1.03012 -27.508 -103.39)"/></g><g style="font-size:46.58981323px;font-style:normal;font-weight:400;fill:#000;fill-opacity:1;stroke:none;font-family:Bitstream Vera Sans"><path d="M361.714 283.349h10.305v25.137h16.084v8.213h-26.389zM403.39 283.349v9.19h5.096v6.757h-5.096v8.576q0 1.547.296 2.048.455.773 1.592.773 1.024 0 2.867-.591l.682 6.392q-3.435.75-6.415.75-3.458 0-5.096-.887t-2.434-2.684q-.773-1.82-.773-5.87v-8.507h-3.413v-6.757h3.413v-4.436zM438.31 283.349v33.35h-8.667v-3.572q-1.82 2.275-3.322 3.071-2 1.047-4.459 1.047-4.936 0-7.552-3.754-2.594-3.753-2.594-9.122 0-6.006 2.867-9.19 2.89-3.186 7.325-3.186 2.16 0 3.913.728a8.9 8.9 0 0 1 3.14 2.184V283.35zm-9.282 21.202q0-2.844-1.205-4.231-1.206-1.41-3.049-1.41-1.615 0-2.707 1.341-1.092 1.342-1.092 4.505 0 2.957 1.115 4.345 1.136 1.365 2.798 1.365 1.775 0 2.957-1.388 1.183-1.387 1.183-4.527" style="font-family:Arial Black;-inkscape-font-specification:Arial Black" transform="matrix(.95187 0 0 1.05056 -27.508 -103.39)"/></g><g style="font-size:50.40774155px;font-style:normal;font-weight:400;fill:#000;fill-opacity:1;stroke:none;font-family:Bitstream Vera Sans"><path d="m48.212 375.264-12.897-28.083v22.3q0 3.075.664 3.839.91 1.034 2.88 1.034h1.181v.91H28.423v-.91h1.181q2.117 0 3.003-1.28.542-.788.542-3.594v-21.807q0-2.215-.493-3.2-.344-.714-1.28-1.181-.91-.492-2.953-.492v-.911h9.451l12.11 26.115 11.913-26.115h9.451v.91h-1.157q-2.14 0-3.027 1.28-.542.789-.542 3.594v21.807q0 3.077.69 3.84.91 1.034 2.88 1.034h1.156v.91H57.171v-.91h1.181q2.142 0 3.003-1.28.542-.788.542-3.594v-22.3l-12.873 28.084zM77.748 361.21q-.025 5.021 2.436 7.877 2.462 2.855 5.784 2.855 2.216 0 3.84-1.206 1.65-1.23 2.757-4.185l.763.493q-.518 3.372-3.003 6.153-2.486 2.757-6.227 2.757-4.062 0-6.966-3.15-2.88-3.176-2.88-8.517 0-5.784 2.954-9.008 2.978-3.25 7.458-3.25 3.79 0 6.227 2.511 2.436 2.485 2.437 6.67zm0-1.427h10.436q-.123-2.167-.517-3.052a4.86 4.86 0 0 0-1.846-2.166q-1.207-.788-2.535-.788-2.043 0-3.668 1.6-1.6 1.575-1.87 4.406M102.853 345.31v7.409h5.267v1.723h-5.267v14.62q0 2.19.615 2.953.64.764 1.625.764.811 0 1.575-.493.764-.516 1.181-1.501h.96q-.861 2.412-2.436 3.643-1.575 1.206-3.25 1.206-1.131 0-2.214-.616a3.87 3.87 0 0 1-1.6-1.796q-.517-1.182-.517-3.619v-15.161h-3.57v-.813q1.354-.541 2.758-1.82a14.7 14.7 0 0 0 2.535-3.078q.566-.934 1.575-3.42zM123.06 372.016q-3.47 2.683-4.356 3.1-1.33.616-2.83.616-2.34 0-3.865-1.6-1.5-1.6-1.501-4.209 0-1.648.738-2.855 1.01-1.674 3.495-3.15 2.51-1.477 8.32-3.594v-.886q0-3.372-1.084-4.627-1.058-1.255-3.1-1.255-1.552 0-2.462.836-.935.837-.935 1.92l.049 1.428q0 1.132-.591 1.747-.566.616-1.501.616-.91 0-1.502-.64-.566-.64-.566-1.748 0-2.116 2.166-3.889t6.08-1.772q3.002 0 4.922 1.01 1.452.762 2.142 2.387.443 1.058.443 4.332v7.654q0 3.224.123 3.963.123.714.393.96.296.246.665.246.393 0 .69-.172.516-.32 1.993-1.797v1.379q-2.757 3.69-5.267 3.691-1.206 0-1.92-.836-.714-.837-.739-2.855m0-1.6v-8.59q-3.715 1.476-4.8 2.092-1.943 1.083-2.78 2.264a4.38 4.38 0 0 0-.837 2.585q0 1.772 1.058 2.953 1.059 1.157 2.437 1.157 1.87 0 4.922-2.461M140.388 340.265v29.905q0 2.116.295 2.805.321.69.96 1.059.64.345 2.388.344v.886h-11.052v-.886q1.551 0 2.117-.32t.886-1.058.32-2.83V349.69q0-3.815-.172-4.676-.173-.886-.566-1.206-.369-.32-.96-.32-.64 0-1.625.394l-.418-.862 6.72-2.756zM167.955 343.71v13.12h6.08q2.091 0 3.051-.912.985-.934 1.305-3.667h.91v11.298h-.91q-.025-1.945-.517-2.856a3.03 3.03 0 0 0-1.33-1.353q-.836-.468-2.51-.468h-6.08v10.485q0 2.535.32 3.348.247.615 1.035 1.058 1.082.59 2.264.59h1.206v.911h-14.325v-.91h1.182q2.067 0 3.002-1.206.591-.788.591-3.79v-21.562q0-2.535-.32-3.347-.246-.615-1.009-1.059a4.6 4.6 0 0 0-2.264-.59h-1.182v-.911h24.835l.32 7.335h-.862q-.64-2.34-1.501-3.422a4.76 4.76 0 0 0-2.092-1.6q-1.23-.492-3.84-.492zM193.011 340.265q1.034 0 1.748.738.738.714.738 1.747t-.738 1.773a2.34 2.34 0 0 1-1.748.738q-1.034 0-1.772-.738a2.42 2.42 0 0 1-.739-1.773q0-1.033.714-1.747a2.45 2.45 0 0 1 1.797-.738m2.043 11.79v18.115q0 2.115.295 2.83.32.69.91 1.034.617.344 2.216.344v.886h-10.953v-.886q1.65 0 2.215-.32.566-.32.887-1.058.344-.738.344-2.83v-8.689q0-3.667-.221-4.75-.173-.788-.542-1.083-.369-.32-1.009-.32-.69 0-1.674.369l-.344-.886 6.793-2.757zM207.828 356.83q3.963-4.776 7.556-4.776 1.847 0 3.175.936 1.33.91 2.117 3.027.542 1.476.542 4.529v9.624q0 2.14.344 2.904.27.615.862.96.615.345 2.24.344v.886h-11.15v-.886h.467q1.575 0 2.191-.467.64-.492.886-1.428.099-.369.098-2.313v-9.23q0-3.077-.812-4.455-.788-1.404-2.683-1.403-2.929 0-5.833 3.2v11.888q0 2.289.27 2.83.345.714.936 1.058.615.32 2.461.32v.886h-11.15v-.886h.493q1.723 0 2.314-.861.615-.886.615-3.347V361.8q0-4.06-.197-4.947-.173-.886-.566-1.206-.37-.32-1.01-.32-.688 0-1.648.369l-.37-.886 6.794-2.757h1.058zM232.195 340.265q1.035 0 1.748.738.738.714.738 1.747t-.738 1.773a2.34 2.34 0 0 1-1.748.738q-1.034 0-1.772-.738a2.42 2.42 0 0 1-.738-1.773q0-1.033.713-1.747a2.45 2.45 0 0 1 1.797-.738m2.043 11.79v18.115q0 2.115.295 2.83.32.69.911 1.034.615.344 2.215.344v.886h-10.953v-.886q1.65 0 2.216-.32.565-.32.886-1.058.345-.738.344-2.83v-8.689q0-3.667-.221-4.75-.173-.788-.542-1.083-.369-.32-1.009-.32-.69 0-1.674.369l-.344-.886 6.793-2.757zM255.012 352.054v7.68h-.813q-.934-3.619-2.412-4.923-1.452-1.305-3.716-1.305-1.723 0-2.782.911-1.058.91-1.058 2.018 0 1.38.788 2.363.763 1.01 3.1 2.142l3.594 1.747q4.997 2.437 4.997 6.424 0 3.077-2.338 4.972-2.314 1.87-5.194 1.87-2.067 0-4.726-.738-.811-.246-1.329-.246-.565 0-.886.64h-.812v-8.048h.812q.69 3.446 2.634 5.193t4.356 1.747q1.7 0 2.757-.984 1.083-1.01 1.083-2.412 0-1.698-1.206-2.855-1.182-1.157-4.75-2.93-3.57-1.77-4.677-3.199-1.107-1.403-1.107-3.544 0-2.781 1.895-4.652 1.92-1.87 4.947-1.87 1.329 0 3.224.565 1.255.37 1.674.37.394 0 .615-.173.222-.172.517-.763zM266.654 340.265v16.49q2.731-3.002 4.331-3.84 1.6-.86 3.2-.86 1.92 0 3.298 1.058 1.38 1.058 2.043 3.322.468 1.575.468 5.76v7.975q0 2.14.344 2.928.247.591.837.936.591.344 2.166.344v.886h-11.076v-.886h.517q1.575 0 2.19-.467.616-.492.862-1.428.075-.394.074-2.313v-7.975q0-3.692-.394-4.849-.369-1.156-1.206-1.723-.836-.59-2.018-.59-1.206 0-2.51.64-1.305.639-3.126 2.584v11.913q0 2.313.246 2.88.27.565.96.96.713.368 2.436.368v.886h-11.174v-.886q1.5 0 2.363-.467.492-.246.787-.936.296-.689.296-2.805v-20.405q0-3.865-.197-4.75-.173-.886-.566-1.206-.37-.32-1.01-.32-.516 0-1.673.394l-.345-.862 6.744-2.756zM290.971 340.265q1.035 0 1.748.738.738.714.738 1.747t-.738 1.773a2.34 2.34 0 0 1-1.748.738q-1.034 0-1.772-.738a2.42 2.42 0 0 1-.738-1.773q0-1.033.714-1.747a2.45 2.45 0 0 1 1.796-.738m2.043 11.79v18.115q0 2.115.296 2.83.32.69.91 1.034.615.344 2.215.344v.886h-10.952v-.886q1.648 0 2.215-.32.566-.32.886-1.058.345-.738.344-2.83v-8.689q0-3.667-.221-4.75-.172-.788-.542-1.083-.369-.32-1.009-.32-.69 0-1.673.369l-.345-.886 6.793-2.757zM305.788 356.83q3.963-4.776 7.557-4.776 1.845 0 3.175.936 1.329.91 2.117 3.027.54 1.476.541 4.529v9.624q0 2.14.345 2.904.27.615.861.96.615.345 2.24.344v.886h-11.15v-.886h.468q1.575 0 2.19-.467.64-.492.886-1.428.099-.369.099-2.313v-9.23q0-3.077-.812-4.455-.788-1.404-2.683-1.403-2.93 0-5.833 3.2v11.888q0 2.289.27 2.83.345.714.936 1.058.615.32 2.46.32v.886h-11.149v-.886h.492q1.723 0 2.314-.861.615-.886.615-3.347V361.8q0-4.06-.197-4.947-.171-.886-.566-1.206-.369-.32-1.009-.32-.69 0-1.649.369l-.37-.886 6.794-2.757h1.059zM330.45 367.044q-2.066-1.01-3.174-2.806-1.108-1.822-1.108-4.012 0-3.348 2.51-5.76 2.536-2.412 6.474-2.412 3.225 0 5.587 1.575h4.775q1.059 0 1.23.074a.38.38 0 0 1 .247.197q.148.222.148.788 0 .64-.124.886a.5.5 0 0 1-.27.197q-.173.074-1.23.074h-2.93q1.378 1.771 1.378 4.528 0 3.15-2.412 5.39t-6.473 2.24q-1.674 0-3.421-.492-1.083.935-1.477 1.65-.37.689-.37 1.18 0 .42.395.813.418.394 1.6.566.689.099 3.445.172 5.07.123 6.572.345 2.289.32 3.643 1.698 1.378 1.379 1.378 3.397 0 2.78-2.609 5.218-3.84 3.594-10.017 3.593-4.75 0-8.024-2.141-1.846-1.23-1.846-2.56 0-.59.27-1.181.42-.91 1.723-2.535.173-.222 2.511-2.659-1.28-.763-1.821-1.353a2.1 2.1 0 0 1-.517-1.379q0-.861.689-2.018.714-1.157 3.249-3.273m4.283-13.808q-1.822 0-3.052 1.452t-1.231 4.455q0 3.888 1.674 6.03 1.28 1.624 3.248 1.624 1.872 0 3.077-1.403 1.206-1.402 1.206-4.405 0-3.914-1.698-6.129-1.256-1.624-3.224-1.624m-4.53 22.028q-1.156 1.256-1.747 2.339-.59 1.083-.59 1.993 0 1.182 1.427 2.068 2.46 1.526 7.113 1.526 4.43 0 6.523-1.575 2.115-1.551 2.116-3.323 0-1.28-1.255-1.822-1.28-.54-5.07-.64-5.537-.147-8.516-.566M364.195 352.054v7.68h-.812q-.935-3.619-2.412-4.923-1.452-1.305-3.716-1.305-1.723 0-2.782.911-1.058.91-1.058 2.018 0 1.38.788 2.363.762 1.01 3.1 2.142l3.594 1.747q4.997 2.437 4.997 6.424 0 3.077-2.338 4.972-2.314 1.87-5.194 1.87-2.067 0-4.726-.738-.811-.246-1.329-.246-.565 0-.886.64h-.812v-8.048h.812q.69 3.446 2.634 5.193t4.356 1.747q1.699 0 2.757-.984 1.083-1.01 1.083-2.412 0-1.698-1.206-2.855-1.182-1.157-4.75-2.93-3.57-1.77-4.677-3.199-1.107-1.403-1.107-3.544 0-2.781 1.895-4.652 1.92-1.87 4.947-1.87 1.328 0 3.224.565 1.255.37 1.674.37.394 0 .615-.173.222-.172.517-.763zM409.14 366.035l.811.172-2.855 9.057h-25.844v-.91h1.256q2.116 0 3.027-1.379.517-.787.517-3.642v-21.537q0-3.126-.69-3.913-.959-1.083-2.854-1.083h-1.256v-.911h15.113v.91q-2.659-.024-3.741.493-1.059.518-1.452 1.304-.394.788-.394 3.766v20.97q0 2.044.394 2.807.295.516.91.763.615.246 3.84.246h2.437q3.84 0 5.39-.566t2.83-1.994q1.28-1.452 2.56-4.554M419.181 345.31v7.409h5.267v1.723h-5.267v14.62q0 2.19.616 2.953.64.764 1.624.764.813 0 1.575-.493.764-.516 1.182-1.501h.96q-.862 2.412-2.437 3.643-1.575 1.206-3.249 1.206-1.132 0-2.215-.616a3.87 3.87 0 0 1-1.6-1.796q-.517-1.182-.517-3.619v-15.161h-3.569v-.813q1.355-.541 2.757-1.82a14.7 14.7 0 0 0 2.535-3.078q.565-.934 1.575-3.42zM442.54 372.73q-1.65 1.722-3.225 2.485a7.9 7.9 0 0 1-3.397.739q-3.691 0-6.448-3.077-2.757-3.102-2.757-7.95 0-4.85 3.052-8.86 3.052-4.038 7.852-4.037 2.978 0 4.922 1.895v-4.16q0-3.865-.197-4.75-.172-.886-.566-1.206t-.984-.32q-.64 0-1.699.394l-.32-.862 6.72-2.756h1.107v26.065q0 3.963.173 4.849.196.861.59 1.206.42.344.96.344.665 0 1.772-.418l.271.861-6.695 2.782h-1.132zm0-1.723V359.39q-.148-1.674-.886-3.052-.739-1.378-1.969-2.068-1.206-.713-2.363-.713-2.166 0-3.864 1.944-2.24 2.56-2.24 7.482 0 4.972 2.166 7.63 2.166 2.634 4.824 2.634 2.24 0 4.332-2.24" style="font-family:times new roman;-inkscape-font-specification:times new roman" transform="matrix(.9678 0 0 1.03327 -27.508 -103.39)"/></g></svg>