<svg xmlns="http://www.w3.org/2000/svg" viewBox="0 0 3147 986"><defs><style>.cls-2{fill:#ed6f1a}.cls-3{fill:#000}</style></defs><path d="M1415.26 305.13c0-88.37 70.4-157.61 162.96-157.61s163.08 69.24 163.08 157.61-70.4 157.92-163.08 157.92-162.96-69.66-162.96-157.92m266.55.11c0-59.13-45.91-102.19-103.75-102.19s-103.64 43.06-103.64 102.19 45.91 102.08 103.64 102.08 103.75-43.06 103.75-102.08M1890.73 457.08V207.45h-104.32l-.34-54.2h267.55v54.2h-104.18v249.63zM2132.94 457.08V153.25h59.59v303.83zM2286.27 305.13c0-88.37 70.4-157.61 162.96-157.61s163.07 69.24 163.07 157.61-70.4 157.92-163.07 157.92-162.96-69.66-162.96-157.92m266.54.11c0-59.13-45.9-102.19-103.75-102.19s-103.63 43.06-103.63 102.19 45.91 102.08 103.63 102.08 103.75-43.06 103.75-102.08M2705.87 457.08V153.27h59.1l179.85 218.63V153.25h59.26v303.83h-58.57l-180.06-218.25v218.25h-59.59ZM1349.15 838.07V534.24h154.22c72.12 0 118.11 41.18 118.11 104.86s-42.1 104.64-114.57 104.64h-98.1l-.08 94.34h-59.59Zm59.72-148.62h97.57c35.49 0 55.34-19.83 55.34-50.6s-19.85-50.38-55.34-50.38h-97.57v100.97ZM1674.77 838.07V534.24h154.22c72.12 0 118.11 41.18 118.11 104.86s-42.1 104.64-114.57 104.64h-98.1l-.08 94.34h-59.59Zm59.72-148.62h97.57c35.49 0 55.34-19.83 55.34-50.6s-19.85-50.38-55.34-50.38h-97.57v100.97ZM2000.38 838.08V534.25h59.59l-.34 249.63h181.06v54.2zM2279.96 838.08V534.25h59.6v303.83zM2409.07 838.07V534.24h248.42v54.07h-189.16v71.56h137.32v51.82h-137.32v72.14h189.5v54.24zM2718.55 838.08V534.25l114.03-.06c112.79-.05 172.24 64.35 172.24 152.45s-59.45 151.44-172.24 151.44zM2777.8 784l54.62-.11c77.95-.18 112.92-38.35 112.92-97.15s-34.97-98.61-112.92-99.01l-54.62-.28v196.56ZM1264.72 153.27 1149.38 308.2l-113.45-154.93h-59.38v7.04l70.41 96.1 102.42 139.24 113.91-154.4v215.83h59.26V153.27zM976.55 457.08h59.26V328.95l-59.26-80.56zM1173.81 534.1h-47.58l-102.18 205.18H1087l62.5-131.42 79.49 166.85 6.64 13.94H999.47l-24.59 49.37h348.18z" class="cls-3"/><path d="M478.73 825.83c-85.51 0-171.06-32.29-236.56-96.98-104.05-102.78-129.77-259.79-64.03-390.72 7.14-14.23 24.45-20.03 38.74-12.84 14.24 7.15 19.99 24.5 12.84 38.74-54.49 108.51-33.18 238.62 53.01 323.77 109.43 108.09 286.41 106.98 394.5-2.43 52.27-52.93 80.8-123.15 80.35-197.75-.46-74.6-29.86-144.48-82.77-196.75-86.2-85.15-216.55-104.86-324.38-49.04-14.16 7.3-31.56 1.8-38.89-12.36-7.33-14.15-1.79-31.56 12.36-38.89 130.09-67.34 287.41-43.56 391.46 59.24 132.06 130.45 133.38 344.03 2.92 476.11-65.75 66.56-152.64 99.92-239.54 99.92Z" class="cls-2"/><path d="M476.01 715.37c-87.05.01-166.69-50.45-203.24-131.09-24.6-54.28-26.55-114.96-5.51-170.86 21.04-55.91 62.52-100.23 116.78-124.83 54.25-24.58 114.94-26.55 170.85-5.51 55.92 21.04 100.24 62.51 124.84 116.77 40.05 88.39 18.71 191.79-53.13 257.3-5.21 4.77-13.34 4.41-18.12-.84-4.77-5.23-4.4-13.35.84-18.12 63.6-58 82.49-149.52 47.04-227.75-21.75-48.03-61-84.74-110.5-103.36-49.47-18.62-103.2-16.89-151.23 4.87-48.04 21.75-84.75 61-103.37 110.5-18.62 49.49-16.89 103.2 4.87 151.23 35.44 78.24 116.56 124.35 202.26 114.78 7.14-.7 13.38 4.28 14.18 11.32.79 7.04-4.28 13.39-11.32 14.18-8.45.94-16.89 1.4-25.25 1.4Z" class="cls-2"/><path d="M478.81 610.74c-66.93 0-121.37-54.44-121.37-121.37S411.88 368 478.81 368s121.38 54.44 121.38 121.37-54.45 121.37-121.38 121.37m0-178.61c-31.56 0-57.25 25.69-57.25 57.25s25.69 57.25 57.25 57.25 57.26-25.69 57.26-57.25-25.69-57.25-57.26-57.25" class="cls-2"/><path d="M-.06-.2h3147v986H-.06z" style="fill:none"/></svg>