<svg xmlns="http://www.w3.org/2000/svg" xmlns:xlink="http://www.w3.org/1999/xlink" id="Layer_1" viewBox="0 0 704.23 375.43"><defs><linearGradient id="linear-gradient" x1="156.31" x2="136.93" y1="39.47" y2="127.35" gradientUnits="userSpaceOnUse"><stop offset=".64" stop-color="#fff"/><stop offset=".71" stop-color="#fcfcfc"/><stop offset=".76" stop-color="#f4f4f4"/><stop offset=".79" stop-color="#e5e5e5"/><stop offset=".82" stop-color="#d1d1d1"/><stop offset=".85" stop-color="#b7b7b7"/><stop offset=".88" stop-color="#969696"/><stop offset=".9" stop-color="#707070"/><stop offset=".93" stop-color="#434343"/><stop offset=".95" stop-color="#121212"/><stop offset=".95"/></linearGradient><linearGradient id="linear-gradient1" x1="18.01" x2="130.62" y1="176.43" y2="134.65" gradientUnits="userSpaceOnUse"><stop offset=".69" stop-color="#fff"/><stop offset=".75" stop-color="#fcfcfc"/><stop offset=".78" stop-color="#f4f4f4"/><stop offset=".81" stop-color="#e5e5e5"/><stop offset=".84" stop-color="#d1d1d1"/><stop offset=".86" stop-color="#b7b7b7"/><stop offset=".88" stop-color="#969696"/><stop offset=".9" stop-color="#707070"/><stop offset=".92" stop-color="#434343"/><stop offset=".94" stop-color="#121212"/><stop offset=".95"/></linearGradient><linearGradient id="linear-gradient2" x1="-4.14" x2="73.62" y1="98.75" y2="191.8" gradientUnits="userSpaceOnUse"><stop offset="0" stop-color="#fff"/><stop offset=".22" stop-color="#fcfcfc"/><stop offset=".34" stop-color="#f4f4f4"/><stop offset=".45" stop-color="#e5e5e5"/><stop offset=".55" stop-color="#d1d1d1"/><stop offset=".63" stop-color="#b7b7b7"/><stop offset=".71" stop-color="#969696"/><stop offset=".79" stop-color="#707070"/><stop offset=".86" stop-color="#434343"/><stop offset=".93" stop-color="#121212"/><stop offset=".95"/></linearGradient><linearGradient xlink:href="#linear-gradient2" id="linear-gradient3" x1="4077.23" x2="4155.84" y1="98.75" y2="192.82" gradientTransform="matrix(-1 0 0 1 4271.83 0)"/><linearGradient id="linear-gradient4" x1="49.44" x2="125.29" y1="35.77" y2="43.74" gradientUnits="userSpaceOnUse"><stop offset="0" stop-color="#fff"/><stop offset=".23" stop-color="#fcfcfc"/><stop offset=".36" stop-color="#f4f4f4"/><stop offset=".47" stop-color="#e5e5e5"/><stop offset=".57" stop-color="#d1d1d1"/><stop offset=".67" stop-color="#b7b7b7"/><stop offset=".75" stop-color="#969696"/><stop offset=".83" stop-color="#707070"/><stop offset=".91" stop-color="#434343"/><stop offset=".98" stop-color="#121212"/><stop offset="1"/></linearGradient><linearGradient xlink:href="#linear-gradient4" id="linear-gradient5" x1="161.58" x2="158.4" y1="154.41" y2="82.39"/><linearGradient id="linear-gradient6" x1="72.01" x2="57.15" y1="81.02" y2="89.32" gradientUnits="userSpaceOnUse"><stop offset=".15" stop-color="#fff"/><stop offset=".34" stop-color="#fcfcfc" stop-opacity=".99"/><stop offset=".46" stop-color="#f4f4f4" stop-opacity=".97"/><stop offset=".55" stop-color="#e5e5e5" stop-opacity=".93"/><stop offset=".64" stop-color="#d1d1d1" stop-opacity=".87"/><stop offset=".71" stop-color="#b7b7b7" stop-opacity=".8"/><stop offset=".79" stop-color="#969696" stop-opacity=".71"/><stop offset=".85" stop-color="#707070" stop-opacity=".61"/><stop offset=".92" stop-color="#434343" stop-opacity=".49"/><stop offset=".98" stop-color="#121212" stop-opacity=".35"/><stop offset="1" stop-opacity=".3"/></linearGradient><linearGradient xlink:href="#linear-gradient2" id="linear-gradient7" x1="-7.13" x2="75.29" y1="94.56" y2="193.19"/><filter id="luminosity-noclip" width="190.46" height="195.46" x="0" y="0" color-interpolation-filters="sRGB" filterUnits="userSpaceOnUse"><feFlood flood-color="#fff" result="bg"/><feBlend in="SourceGraphic" in2="bg"/></filter><style>.st10{fill:#fff}</style><mask id="mask" width="190.46" height="195.46" x="0" y="0" maskUnits="userSpaceOnUse"><g style="filter:url(#luminosity-noclip)"><path d="M148.87 88.97c-2.58 9.9-20.78 34.25-20.78 34.25L141 128.2s8.3-21.7 12.13-30.08c-1.26-2.95-2.7-5.9-4.34-8.84.03-.1.05-.2.07-.3Z" style="fill:url(#linear-gradient)"/><path d="m132.19 138.41-8.93-8.31s-8.36 11.38-11.8 14.26c2.08.9 4.15 1.69 6.22 2.37 2.72-2.56 14.52-8.31 14.52-8.31Z" style="fill:url(#linear-gradient1)"/><path d="M27.03 148.28a80.6 80.6 0 0 1-8.49-16.93c-3.21-8.88-4.84-18.22-4.84-27.76 0-3.04.17-6.04.5-9.02H0v.65c0 11.31 1.96 22.36 5.82 32.86a95 95 0 0 0 16.07 27.9 95.2 95.2 0 0 0 14.69 14.26c-5.72-5.15-8.94-12.67-9.54-21.96Z" style="fill:url(#linear-gradient2)"/><path d="M176.28 94.58c.33 2.97.5 5.98.5 9.02 0 9.54-1.63 18.87-4.85 27.76-.72 1.99-1.53 3.95-2.4 5.88-.2 3.79-.78 7.37-1.77 10.7a37 37 0 0 1-2.9 7.08c-1.75 3.25-3.96 6.12-6.63 8.56-5.1 4.68-11.53 7.56-18.94 8.61-8.07 5.19-30.05 9.98-30.05 9.98l1.21 8.09 4.11-.12c21.28-4.25 40.09-17.36 54.02-34.16a95 95 0 0 0 16.07-27.9c3.86-10.5 5.82-21.56 5.82-32.85v-.65H176.3Z" style="fill:url(#linear-gradient3)"/><path d="M57.66 47.81q1.245-1.695 2.79-3.12c6.04-5.54 14.96-7.41 25.81-5.39 3.3.61 6.72 1.59 10.18 2.9 2.65-1.54 5.29-2.95 7.94-4.21-8.65-4.83-17.4-8.25-25.72-9.98-3.68-.76-7.23-1.19-10.64-1.3a80.7 80.7 0 0 0-20.61 10.86l10.25 10.25Z" style="fill:url(#linear-gradient4)"/><path d="M169.29 127.89c-1.19-11.84-5.72-24.94-12.91-37.64-.97 2.6-2.05 5.22-3.25 7.86 3.11 7.29 5.01 14.5 5.51 21.08.73 9.75-1.54 17.67-6.59 23.02l9.21 9.21c3.23-4.45 6-9.19 8.26-14.18.16-2.99.09-6.11-.23-9.35" style="fill:url(#linear-gradient5)"/><path d="M66.5 71.6a58 58 0 0 1-.85-4.79c-.43.45-.86.91-1.29 1.37-.62.66-1.25 1.31-1.87 1.99q-1.605 1.755-3.18 3.57c-1 1.16-1.98 2.33-2.94 3.5-.29.35-.56.7-.84 1.06-.31.38-.61.76-.91 1.14 2.05 7.7 5.57 15.6 10.33 23.27.19-.3.39-.6.58-.9.21-.32.41-.65.63-.97q.54-.825 1.11-1.65c.22-.33.44-.66.67-.99.38-.54.76-1.09 1.15-1.63.24-.33.47-.66.72-.99.39-.54.79-1.07 1.19-1.6.25-.33.5-.67.76-1 .41-.53.82-1.05 1.24-1.57.18-.22.35-.45.53-.67-3.27-6.39-5.67-12.84-7.04-19.12Z" style="fill:url(#linear-gradient6)"/><path d="M40.41 173.08c10.78 7.6 34.77 22.38 34.77 22.38l10.05-12s-19.56-3.61-25.14-6.29c-1.11.08-2.2.14-3.27.14-6.27 0-11.81-1.43-16.42-4.23Z" style="fill:url(#linear-gradient7)"/></g></mask></defs><path d="M265.66 224.65h-8.7v-7.87h17.76v47.78h-9.06zm-1.46-21.96c0-3.3 2.56-5.95 6.04-5.95s6.13 2.65 6.13 5.95c0 3.48-2.56 6.13-6.13 6.13s-6.04-2.66-6.04-6.13m22.18 14.09h9.06V223h.73c2.01-4.03 6.77-7.41 13.73-7.41 10.8 0 17.48 8.06 17.48 18.31v30.66h-9.06v-29.11c0-6.77-4.94-11.35-10.98-11.35-6.68 0-11.9 5.22-11.9 12.17v28.28h-9.06v-47.78Zm51.76 0h9.06V223h.73c2.01-4.03 6.77-7.41 13.73-7.41 10.8 0 17.48 8.06 17.48 18.31v30.66h-9.06v-29.11c0-6.77-4.94-11.35-10.98-11.35-6.68 0-11.9 5.22-11.9 12.17v28.28h-9.06v-47.78Zm48.7 23.89c0-14.37 10.62-25.08 25.08-25.08S437 226.39 437 240.67s-10.62 25.08-25.17 25.08-24.99-10.71-24.99-25.08m40.92 0c0-9.52-6.59-16.66-15.93-16.66s-15.74 7.23-15.74 16.66 6.59 16.57 15.74 16.57 15.93-6.96 15.93-16.57m10.22-23.89h9.61l13.09 39.27h.73l13-39.27h9.89l-17.03 47.78H455.1zm47.41 23.89c0-14.37 9.25-25.08 22.43-25.08 9.25 0 13.64 5.49 15.47 8.06h.73v-6.87h9.06v37.35c0 1.46.92 2.2 2.38 2.2h2.2v8.24h-6.5c-3.94 0-6.96-2.47-6.96-6.59h-.64c-1.65 2.29-5.68 7.78-15.2 7.78-13.27 0-22.97-10.53-22.97-25.08Zm38.9.1c0-10.62-6.77-16.75-14.92-16.75s-14.83 6.96-14.83 16.75 6.59 16.66 14.92 16.66c9.06 0 14.83-7.6 14.83-16.66m24.77 9.79v-25.9h-8.7v-7.87h9.25v-13.64h8.51v13.64h14.1v7.87h-14.1v25.81c0 4.3 1.74 6.13 5.95 6.13h7.6v7.96h-7.69c-8.97 0-14.92-4.12-14.92-14.01Zm37.6-25.91h-8.7v-7.87h17.76v47.78h-9.06zm-1.47-21.96c0-3.3 2.56-5.95 6.04-5.95s6.13 2.65 6.13 5.95c0 3.48-2.56 6.13-6.13 6.13s-6.04-2.66-6.04-6.13m22.36 14.09h9.06V223h.73c2.01-4.03 6.77-7.41 13.73-7.41 10.8 0 17.48 8.06 17.48 18.31v30.66h-9.06v-29.11c0-6.77-4.94-11.35-10.98-11.35-6.68 0-11.9 5.22-11.9 12.17v28.28h-9.06v-47.78Zm60.49 60.97h21.05c4.21 0 5.95-1.92 5.95-6.22v-13.82h-.73c-1.74 2.93-6.22 8.06-15.47 8.06-13.18 0-22.43-10.62-22.43-25.17s9.79-24.99 22.97-24.99c9.34 0 13.55 5.67 15.2 7.78h.64v-6.59h8.88v54.83c0 9.89-5.95 14.01-14.92 14.01h-21.14v-7.87Zm27.28-37.17c0-8.97-5.77-16.57-14.83-16.57-8.24 0-14.83 6.5-14.83 16.57s6.22 16.75 14.74 16.75 14.92-6.13 14.92-16.75m-325.27 73.88h-8.7v-7.87h17.76v47.78h-9.06zm-1.47-21.97c0-3.3 2.56-5.95 6.04-5.95s6.13 2.65 6.13 5.95c0 3.48-2.56 6.13-6.13 6.13s-6.04-2.66-6.04-6.13m22.33 14.1h9.06v6.22h.73c2.01-4.03 6.77-7.42 13.73-7.42 10.8 0 17.48 8.06 17.48 18.31v30.67h-9.06v-29.11c0-6.77-4.94-11.35-10.99-11.35-6.68 0-11.9 5.22-11.9 12.17v28.29h-9.06v-47.78Zm48.87 23.89c0-14.37 9.25-25.08 22.43-25.08 9.25 0 13.64 5.49 15.47 8.06h.73v-27.74h9.06v68.65h-8.88v-6.59h-.64c-1.65 2.11-5.86 7.78-15.2 7.78-13.18 0-22.98-10.53-22.98-25.08Zm38.9.09c0-10.62-6.77-16.75-14.92-16.75s-14.83 6.96-14.83 16.75 6.59 16.66 14.92 16.66c9.06 0 14.83-7.6 14.83-16.66m19.34 6.69v-30.67h9.06v29.11c0 6.77 4.94 11.26 10.98 11.26 6.68 0 11.9-5.13 11.9-12.08v-28.29h9.06v47.78h-9.06v-6.22h-.73c-2.01 4.03-6.77 7.42-13.73 7.42-10.8 0-17.48-8.06-17.48-18.31m49.11 3.66 8.42-1.92c.82 5.67 4.76 8.51 10.89 8.51s9.43-2.65 9.43-6.68c0-11.53-27.19-2.38-27.19-21.51 0-8.15 7.05-13.91 17.48-13.91 8.7 0 16.29 4.67 17.76 13.27l-7.96 2.29c-.82-4.85-4.67-7.51-10.07-7.51s-8.51 2.47-8.51 5.95c0 10.44 27.64 1.19 27.64 20.69 0 9.25-7.51 15.47-18.95 15.47-10.53 0-17.76-5.4-18.95-14.65Zm51.02-.55v-25.91h-8.7v-7.87h9.25v-13.64h8.51v13.64h14.1v7.87h-14.1v25.81c0 4.3 1.74 6.13 5.95 6.13h7.6v7.96h-7.69c-8.97 0-14.92-4.12-14.92-14Zm30.14-33.78h8.97v7.51h.64c1.65-4.03 6.32-8.7 12.82-8.7h3.39v9.06h-4.58c-8.24 0-12.17 6.32-12.17 15.38v24.53h-9.06v-47.78Zm32.15 60.6h6.13c3.84 0 5.77-1.65 7.14-5.04l3.02-7.78h-2.29l-17.03-47.78h9.89l12.54 39.09h.73l13.55-39.09h9.98l-22.79 59.59c-2.47 6.41-7.51 9.25-14.83 9.25h-6.04zm-397.57-55.4h-5.9v-5.34h5.9v-4.66c0-6.71 4.04-9.5 10.13-9.5h4.91v5.34h-4.85c-2.86 0-4.04 1.3-4.04 4.22v4.6h9.13v5.34h-9.13v27.08h-6.15zm17.55 10.87c0-9.75 7.21-17.02 17.02-17.02s17.02 7.33 17.02 17.02-7.21 17.02-17.08 17.02-16.96-7.27-16.96-17.02m27.77 0c0-6.46-4.47-11.31-10.81-11.31s-10.68 4.91-10.68 11.31 4.47 11.24 10.68 11.24 10.81-4.72 10.81-11.24m12.28-16.21h6.09v5.09h.43c1.12-2.73 4.29-5.9 8.7-5.9h2.3v6.15h-3.11c-5.59 0-8.26 4.29-8.26 10.44v16.65h-6.15zM439.79 71.58c0-8.64 7-15.64 15.64-15.64h91.28v-25.3h-91.28c-22.61 0-40.94 18.33-40.94 40.94v50.34c0 22.61 18.33 40.94 40.94 40.94h91.28v-25.3h-91.28c-8.64 0-15.64-7-15.64-15.64zm157.52 0c0-8.64 7-15.64 15.64-15.64h91.28v-25.3h-91.28c-22.61 0-40.94 18.33-40.94 40.94v50.34c0 22.61 18.33 40.94 40.94 40.94h91.28v-25.3h-91.28c-8.64 0-15.64-7-15.64-15.64zM256.96 30.64h25.3v132.22h-25.3zm91.44.01h-40.41c-14.05 0-25.44 11.34-25.53 25.37h65.94v-.06c8.58.07 15.51 7.04 15.51 15.63v91.28h25.3V71.59c0-22.57-18.26-40.86-40.81-40.94" class="st10"/><path d="M190.46 94.58c-.08-12.62-2.59-24.87-7.48-36.42a94.8 94.8 0 0 0-20.41-30.27c-8.75-8.75-18.93-15.61-30.27-20.41C120.56 2.52 108.09 0 95.24 0 82.38 0 69.91 2.52 58.17 7.49A94.8 94.8 0 0 0 27.9 27.9c-8.75 8.75-15.61 18.93-20.41 30.27C2.6 69.71.09 81.96 0 94.58v.65c0 11.29 1.96 22.34 5.82 32.85a95 95 0 0 0 16.07 27.9 95.2 95.2 0 0 0 14.69 14.26c1.25.98 2.54 1.92 3.84 2.83 10.78 7.6 23.07 12.95 36.07 15.55l2.75.55.97-5.36-2.59-.57a80.6 80.6 0 0 1-17.52-6.07c5.36-.39 11.17-1.73 17.32-4.04 6.58-2.47 13.32-5.98 20-10.34 5.31 2.77 10.67 5.03 15.99 6.68 6.85 2.12 13.34 3.17 19.33 3.17 2.26 0 4.45-.16 6.56-.46-8.07 5.19-17.02 8.98-26.44 11.05l-2.59.57.97 5.36 2.75-.55c21.28-4.25 40.67-15.84 54.59-32.64a95 95 0 0 0 16.07-27.9c3.86-10.5 5.82-21.56 5.82-32.85v-.65ZM29.04 128.82c-1.73 7.09-2.38 13.62-2.01 19.47a80.6 80.6 0 0 1-8.49-16.93c-3.21-8.88-4.84-18.22-4.84-27.76 0-3.04.17-6.04.5-9.02a80.76 80.76 0 0 1 16.49-40.82c-1.76 7.6-1.64 16.43.47 26.12 1.64 7.51 4.42 15.19 8.16 22.8-4.7 8.81-8.21 17.65-10.28 26.14m66.2-106.76c12.98 0 25.5 3.04 36.76 8.73-6.78 0-14.39 1.64-22.58 4.96a100 100 0 0 0-5.04 2.23c-8.65-4.83-17.4-8.25-25.72-9.98-3.68-.76-7.23-1.19-10.64-1.3 8.63-3.05 17.8-4.64 27.22-4.64M57.66 47.81q1.245-1.695 2.79-3.12c6.04-5.54 14.96-7.41 25.81-5.39 3.3.61 6.72 1.59 10.18 2.9-10.47 6.11-20.88 14.39-30.48 24.3a164 164 0 0 0-11.32 12.93c-.26-.97-.5-1.94-.71-2.91-2.6-11.91-1.26-21.91 3.73-28.72Zm.45 110.73c-1.7-1.46-3.06-3.27-4.1-5.38-2.85-5.79-3.18-13.87-.87-23.51.29-1.2.63-2.42.99-3.64 2.3 2.93 4.73 5.81 7.31 8.61.04.05.09.09.13.14 8.63 9.38 18.18 17.36 28.05 23.54-12.91 5.73-24.55 6.23-31.5.23Zm93.95-16.34c-.35.37-.71.73-1.09 1.07-7.24 6.65-18.7 7.99-32.28 3.79-.34-.1-.68-.23-1.01-.34 2.72-2.56 5.38-5.25 7.98-8.06l1.47-1.59-3.15-4.73-2.37 2.49c-3.3 3.46-6.71 6.64-10.15 9.51-11.74-5.1-23.46-13.69-33.63-24.77-.17-.19-.34-.37-.51-.56-4.72-5.21-8.86-10.7-12.34-16.32 3.3-5.25 7.13-10.43 11.43-15.41 1.61-1.87 3.26-3.67 4.95-5.41 10.52-10.89 22.25-19.22 33.58-23.77q2.91-1.17 5.67-1.95c1.38-.39 2.72-.72 4.03-.97 6.47-1.25 12.07-.75 16.42 1.49 1.15.59 2.22 1.31 3.19 2.15 5.12 4.42 7.28 12.19 6.19 22.01-.09.78-.19 1.57-.32 2.37-.14.89-.32 1.8-.51 2.72l-.15.67c-.17.79-.36 1.58-.57 2.38-2.58 9.9-7.8 20.71-15.06 31.02l-1.62 2.3 4.59 3.08 1.56-2.14c5.97-8.22 10.96-16.73 14.79-25.12 3.11 7.29 5.01 14.5 5.51 21.08.73 9.75-1.54 17.67-6.59 23.02Zm19.87-10.84c-.72 1.99-1.53 3.95-2.4 5.88.16-2.99.09-6.11-.23-9.35-1.19-11.84-5.72-24.94-12.91-37.64 2.07-5.54 3.6-10.98 4.51-16.17 1.17-6.66 1.31-12.78.46-18.2a80.7 80.7 0 0 1 14.93 38.71c.33 2.97.5 5.98.5 9.02 0 9.54-1.63 18.87-4.85 27.76Z" class="st10" style="mask:url(#mask)"/></svg>