<svg xmlns="http://www.w3.org/2000/svg" xml:space="preserve" id="Layer_1" x="0" y="0" viewBox="0 0 341.44 67.5"><style>.st1{fill:#1696bc}</style><path d="m80.64 38.91-9.9-18.58h-3.17v26.06h3.35V27.74l9.94 18.65h3.13V20.33h-3.35zm10.59.98c2.28.09 5.12.19 7.26-.97 2.2-1.16 3.42-3.4 3.18-5.83-.25-2.52-1.94-4.55-4.43-5.29-1.77-.49-3.72-.49-5.49 0-2.93.81-4.61 2.68-4.61 5.14v7.76c0 1.21.3 2.23.93 3.13 1 1.34 2.75 2.3 4.81 2.62.5.08 1 .13 1.5.13.57 0 1.16-.05 1.79-.16 2.37-.37 4.07-1.38 5.07-2.99l.42-.69-2.83-1.71-.43.61c-.57.8-1.48 1.29-2.74 1.46-.84.16-1.63.16-2.48 0-1.05-.18-1.94-.65-2.38-1.24-.2-.29-.28-.57-.28-1.01v-.97c.23 0 .47.01.71.01m-.71-6.95c0-1.2 1.47-1.74 2.09-1.92 1.19-.31 2.56-.31 3.74 0 1.16.32 1.96 1.29 2.06 2.45.09 1.1-.46 2.04-1.49 2.52-1.65.79-4.22.75-5.91.72-.17 0-.34-.01-.49-.01zm34.47 5.38c0 .52-.02.57-.37.95l-3.09 3.24-3.1-3.25c-.38-.38-.39-.42-.39-.94V27.66h-3.35v10.66c0 .52-.02.56-.41.95l-3.09 3.24-3.08-3.23c-.36-.38-.38-.44-.38-.96V27.66h-3.38v10.66c0 1.45.37 2.27 1.59 3.53l4.6 4.71h1.35l4.48-4.74 4.48 4.74h1.35l4.61-4.72c1.22-1.26 1.59-2.08 1.59-3.53V27.66h-3.38v10.66zm16.87-10c-2.17-.79-5.13-.8-7.26.44v-8.58h-3.38v26.2h3.24v-.9c1.28.82 2.93 1.2 4.52 1.2.81 0 1.61-.1 2.33-.3 2.89-.76 4.62-2.68 4.62-5.14v-7.72c-.02-2.35-1.49-4.25-4.07-5.2m-7.27 4.9c0-1.35 2.04-2.16 4.02-2.16 1.09 0 2.13.24 2.84.67.73.43 1.08 1 1.08 1.73v7.79c0 1.2-1.47 1.74-2.1 1.92-.51.14-1.15.22-1.85.22-1.48 0-3.99-.61-3.99-2.9zm25.52 7.41c0 1.83-2.07 2.66-3.99 2.66-1.93 0-3.99-.85-3.99-2.41V27.66h-3.35v13.21c0 3.96 3.7 5.73 7.39 5.73 1.55-.03 2.87-.36 3.94-.99v.78h3.35V27.66h-3.35zm9.85-12.16v-.84h-3.31v18.76h3.38v-13.1c0-.61.33-1.15.97-1.61 1.38-1 3.69-1.24 4.89-.84l.89.3.56-3.29-.71-.18c-2.08-.55-4.75-.43-6.67.8m20.13-.81v13.28c0 .5-.09.82-.3 1.1-.59.79-1.96 1.28-3.59 1.28h-.13l-.09.03c-1.16-.05-2.15-.3-2.86-.72-.69-.42-.97-.87-.97-1.59V27.66h-3.38v13.42c0 1.86.93 3.43 2.63 4.43 2.31 1.38 5.99 1.74 8.7.29v2.46c-.03 1.32-1.48 1.87-2.1 2.04-.51.14-1.15.22-1.85.22-.86 0-2.97-.15-3.92-1.54l-.41-.59-2.84 1.52.38.71c1.28 2.4 4.35 3.25 6.79 3.25.97 0 1.91-.13 2.75-.38 2.85-.75 4.55-2.7 4.55-5.21V27.66z" style="fill:#484a4a"/><path d="M198.9 32.45h11.25v1.78H198.9c0 1.12-.1 6.67.14 7.37.56 1.64 3.01 2.2 4.65 2.2h6.47v1.78h-6.47v-.03c-2.97.03-6.54-1.36-6.54-4.68V21.09h13v1.75H198.9zm19.08 13.28c-2.87.17-4.3-.73-4.3-3.84V21.13h1.75v20.79c0 1.82.73 2.24 2.55 2.24zm4.4-4.89c0 .56.11 1.01.42 1.47.59.8 1.68 1.36 2.9 1.57.94.17 1.82.17 2.76 0 1.29-.17 2.48-.7 3.25-1.78l1.5.91c-1.01 1.64-2.73 2.34-4.51 2.62-1.05.17-1.99.21-3.04.03-1.78-.28-3.39-1.08-4.3-2.31-.56-.8-.77-1.68-.77-2.66v-7.76c0-2.31 1.75-3.74 4.02-4.37a9.7 9.7 0 0 1 5.07 0c4.54 1.36 5.31 7.41 1.08 9.65-2.45 1.33-6.05.84-8.39.84v1.79zm0-3.32c1.5-.07 5.21.31 7.55-.8 2.97-1.4 2.41-5.59-.7-6.47a8.4 8.4 0 0 0-4.16 0c-1.5.42-2.69 1.33-2.69 2.69zm27.43 3.56c0 2.31-1.75 3.77-3.98 4.37v.03c-1.64.42-3.46.42-5.1 0-2.17-.59-3.98-2.06-3.98-4.47v-8c0-2.38 1.85-3.81 3.98-4.4.8-.21 1.68-.35 2.55-.35.84 0 1.71.14 2.55.35 2.24.63 3.98 2.06 3.98 4.4h-1.75c0-1.4-1.19-2.31-2.73-2.73a8 8 0 0 0-2.06-.28c-.73 0-1.43.1-2.1.28-1.29.35-2.69 1.19-2.69 2.76v7.97c0 1.57 1.36 2.41 2.69 2.8 1.29.35 2.87.35 4.16 0h.04c1.5-.42 2.69-1.33 2.69-2.73zm6.71-20.02v7.37h4.16V30c-1.4 0-2.76 0-4.16.03v10.73c0 2.94 2.17 3.22 4.47 3.29v1.61c-3.18.17-6.22-.98-6.22-4.86V30h-3.01v-1.57h3.01v-7.37zm6.68 24.53V28.44h1.71v1.89c1.5-2.13 4.82-2.52 7.27-1.89l-.28 1.64c-2.31-.77-6.92.42-6.92 3.22v12.3h-1.78zm23.03-4.54c0 2.17-1.5 3.56-3.53 4.26-1.5.49-3.11.56-4.68.31-2.62-.45-4.86-1.96-4.86-4.58v-8.11c0-2.31 1.75-3.77 3.98-4.37.84-.24 1.68-.35 2.55-.35s1.75.1 2.55.35c2.24.59 3.98 2.06 3.98 4.37v8.12zm-1.75 0v-8.11c0-1.36-1.19-2.27-2.69-2.69-.66-.17-1.36-.28-2.1-.28s-1.43.1-2.1.28c-1.5.42-2.69 1.29-2.69 2.69v8.11c0 1.57 1.57 2.59 3.39 2.9 1.29.21 2.62.14 3.84-.28 1.34-.46 2.35-1.37 2.35-2.62m16.46 4.54V33.08c0-2.06-2.38-3.18-4.75-3.18s-4.79 1.08-4.79 3.46v12.23h-1.78V28.4h1.78V30c1.29-1.4 3.11-1.82 4.75-1.82 3.25-.03 6.57 1.5 6.57 4.93v12.48zm5.63-24.53h1.99v3.11h-1.99zm.1 7.37h1.78v17.16h-1.78zm18.7 12.65c0 2.31-1.75 3.77-3.98 4.37v.03c-1.64.42-3.46.42-5.1 0-2.17-.59-3.98-2.06-3.98-4.47v-8c0-2.38 1.85-3.81 3.98-4.4.8-.21 1.68-.35 2.55-.35.84 0 1.71.14 2.55.35 2.24.63 3.98 2.06 3.98 4.4h-1.75c0-1.4-1.19-2.31-2.73-2.73a8 8 0 0 0-2.06-.28c-.73 0-1.43.1-2.1.28-1.29.35-2.69 1.19-2.69 2.76v7.97c0 1.57 1.36 2.41 2.69 2.8 1.29.35 2.87.35 4.16 0h.03c1.5-.42 2.69-1.33 2.69-2.73zm4.3.25c1.26 3.01 5.17 3.01 7.3 2.41 1.54-.42 2.73-1.36 2.73-2.76.04-2.41-2.41-2.73-4.86-3.04-3.22-.42-6.4-.8-6.36-4.82.03-2.41 1.78-3.91 4.02-4.58 2.76-.77 7.23-.45 8.56 2.52l-1.4.91c-1.29-2.2-4.51-2.34-6.71-1.71-1.54.45-2.73 1.4-2.73 2.87-.03 2.41 2.41 2.73 4.86 3.04 3.18.42 6.4.84 6.36 4.82-.04 2.38-1.78 3.84-4.02 4.47-3.04.87-8.07.28-9.26-3.15z" class="st1"/><circle cx="45.47" cy="44.79" r="1.26" class="st1"/><path d="M40.77 34.51a1.261 1.261 0 0 0 0-2.52 1.261 1.261 0 0 0 0 2.52" class="st1"/><path d="M57.72 15.71 31.24.43a3.17 3.17 0 0 0-3.18 0L1.59 15.71C.61 16.28 0 17.33 0 18.46v30.57c0 1.13.61 2.18 1.59 2.75l26.48 15.29c.49.28 1.04.43 1.59.43s1.1-.14 1.59-.43l26.48-15.29c.98-.57 1.59-1.62 1.59-2.75V18.46a3.24 3.24 0 0 0-1.6-2.75M45.47 48.39c-1.57 0-2.91-1.02-3.4-2.43h-7.75c-.65 0-1.17-.52-1.17-1.17s.52-1.17 1.17-1.17h7.75a3.6 3.6 0 0 1 3.4-2.43c1.98 0 3.6 1.61 3.6 3.6s-1.62 3.6-3.6 3.6M33.1 33.25c0-.53.43-.96.96-.96h3.24a3.6 3.6 0 0 1 3.46-2.64c1.98 0 3.6 1.61 3.6 3.6s-1.61 3.6-3.6 3.6c-1.65 0-3.04-1.12-3.46-2.64h-3.24a.96.96 0 0 1-.96-.96m12.37-7.03c-1.62 0-2.99-1.08-3.44-2.56h-8.51c-1.54 0-1.75 1.46-1.78 1.75v19.4a1.171 1.171 0 0 1-2.11.7L15.16 26v19.18c0 .65-.52 1.17-1.17 1.17s-1.17-.52-1.17-1.17V22.45a1.171 1.171 0 0 1 2.11-.7L29.4 41.28V25.29c.1-1.37 1.08-3.97 4.12-3.97h8.6c.52-1.34 1.83-2.3 3.35-2.3 1.98 0 3.6 1.61 3.6 3.6s-1.62 3.6-3.6 3.6" class="st1"/><circle cx="45.47" cy="22.62" r="1.26" class="st1"/></svg>