<svg xmlns="http://www.w3.org/2000/svg" width="308" height="57.294" viewBox="0 0 308 57.294"><defs><clipPath id="a"><path fill="none" d="M0 57.294h308V0H0Z" data-name="Path 7"/></clipPath></defs><g data-name="Group 54"><g data-name="Group 27"><path fill="#47ac5d" d="M0 0v57.293h168.342L139.659 0Z" data-name="Path 1"/></g><g data-name="Group 28"><path fill="#2b2e34" d="m139.658 0 28.682 57.293H308V0Z" data-name="Path 2"/></g><g clip-path="url(#a)" data-name="Group 33"><g data-name="Group 29"><path fill="#fff" d="M172.712 25.839V11.78h5.714c2.847 0 4.7 1.656 4.7 4.317 0 2.629-1.853 4.317-4.7 4.317h-4.006v5.425Zm1.708-7h3.945c1.957 0 2.971-1.1 2.971-2.743 0-1.667-1.015-2.744-2.971-2.744h-3.945Z" data-name="Path 3"/></g><g data-name="Group 30"><path fill="#fff" d="M192.472 11.78c2.847 0 4.7 1.6 4.7 4.172a3.91 3.91 0 0 1-3.074 3.965l3.478 5.922h-2.019l-3.3-5.715h-4.081v5.715h-1.708V11.78Zm-4.3 1.553v5.269h4.234c1.967 0 2.982-1.056 2.982-2.65 0-1.615-1.015-2.619-2.982-2.619Z" data-name="Path 4"/></g><g data-name="Group 31"><path fill="#fff" d="M199.914 18.809a6.954 6.954 0 0 1 7.205-7.227 6.954 6.954 0 0 1 7.205 7.226 6.96 6.96 0 0 1-7.205 7.238 6.96 6.96 0 0 1-7.205-7.237m7.205 5.642a5.286 5.286 0 0 0 5.415-5.642 5.277 5.277 0 0 0-5.415-5.627 5.277 5.277 0 0 0-5.414 5.632 5.286 5.286 0 0 0 5.414 5.637" data-name="Path 5"/></g><g data-name="Group 32"><path fill="#fff" d="M224.312 11.573a7.24 7.24 0 0 1 6.108 3.3l-1.334.976a5.61 5.61 0 0 0-4.774-2.676 5.423 5.423 0 0 0-5.435 5.632 5.47 5.47 0 0 0 5.487 5.642 5.72 5.72 0 0 0 4.855-2.63l1.283.921a7.3 7.3 0 0 1-6.139 3.3 7.15 7.15 0 0 1-7.277-7.229 7.113 7.113 0 0 1 7.226-7.236" data-name="Path 6"/></g></g><g data-name="Group 34"><path fill="#fff" d="M232.168 11.78h11.108v1.594h-4.7v12.465h-1.708V13.374h-4.7Z" data-name="Path 8"/></g><g data-name="Group 35"><path fill="#fff" d="M246.338 11.78h9.669v1.553h-7.961v4.5h6.874v1.556h-6.874v4.907h8.179v1.542h-9.887Z" data-name="Path 9"/></g><g clip-path="url(#a)" data-name="Group 39"><g data-name="Group 36"><path fill="#fff" d="M265.901 11.78c2.847 0 4.7 1.6 4.7 4.172a3.91 3.91 0 0 1-3.074 3.965l3.478 5.922h-2.019l-3.3-5.715h-4.081v5.715h-1.708V11.78Zm-4.3 1.553v5.269h4.234c1.967 0 2.982-1.056 2.982-2.65 0-1.615-1.015-2.619-2.982-2.619Z" data-name="Path 10"/></g><g data-name="Group 37"><path fill="#fff" d="M278.89 22.155c0-2.1 1.957-3.251 3.1-3.789-1.211-1.2-1.718-2.1-1.718-3.3 0-2.236 1.884-3.489 4.027-3.489 2.277 0 3.934 1.387 3.934 3.354 0 1.76-1.48 2.94-3.572 3.851l3.685 3.53a3.58 3.58 0 0 0 .621-2.35 11 11 0 0 0-.124-1.595h1.574a14 14 0 0 1 .1 1.543 5.04 5.04 0 0 1-1.046 3.375l2.712 2.557h-2.293l-1.48-1.377a6.4 6.4 0 0 1-4.359 1.584c-3.028-.003-5.161-1.608-5.161-3.894m1.739-.042c0 1.408 1.429 2.412 3.447 2.412a4.83 4.83 0 0 0 3.22-1.056l-4.234-4.08c-.8.373-2.433 1.149-2.433 2.723m1.273-7.1c0 1.18.7 1.822 1.677 2.733 2.04-.859 3.013-1.739 3.013-2.8a2.014 2.014 0 0 0-2.277-1.936c-1.2 0-2.412.631-2.412 2" data-name="Path 11"/></g><g data-name="Group 38"><path fill="#fff" d="M192.916 38.45a7.18 7.18 0 0 1 7.412-7.227 7.46 7.46 0 0 1 6.274 3.51l-2.619 1.936a4.22 4.22 0 0 0-3.655-2.256 3.8 3.8 0 0 0-3.924 4.037 3.814 3.814 0 0 0 3.924 4.058 4.3 4.3 0 0 0 3.717-2.236l2.609 1.9a7.25 7.25 0 0 1-6.326 3.52 7.2 7.2 0 0 1-7.412-7.242" data-name="Path 12"/></g></g><g data-name="Group 40"><path fill="#fff" d="M212.925 31.431v5.456h6.087v-5.456h3.406V45.49h-3.406v-5.746h-6.087v5.746h-3.406V31.431Z" data-name="Path 14"/></g><g data-name="Group 41"><path fill="#fff" d="M226.567 31.431h9.969v2.868h-6.563v2.609h5.746v2.857h-5.746v2.866h6.667v2.857h-10.073Z" data-name="Path 15"/></g><g clip-path="url(#a)" data-name="Group 43"><g data-name="Group 42"><path fill="#fff" d="M241.555 40.603a4.22 4.22 0 0 0 3.478 2.019c1.108 0 2.019-.445 2.019-1.087 0-.9-1.191-1.17-2.878-1.677-2.516-.756-4.8-1.563-4.8-4.441 0-2.588 2.526-4.193 5.1-4.193a6.43 6.43 0 0 1 5.528 3l-2.515 1.858a3.85 3.85 0 0 0-3.012-1.866c-.984 0-1.667.466-1.667 1.139 0 .931 1.076 1.1 2.6 1.6 3.178 1.056 5.083 1.894 5.083 4.462 0 2.93-2.857 4.276-5.539 4.276a6.45 6.45 0 0 1-5.952-3.23Z" data-name="Path 16"/></g></g><g data-name="Group 44"><path fill="#fff" d="M251.864 31.431h11.709v2.93h-4.152V45.49h-3.4V34.361h-4.157Z" data-name="Path 18"/></g><g data-name="Group 45"><path fill="#fff" d="M266.189 31.431h9.97v2.868h-6.564v2.609h5.746v2.857h-5.746v2.866h6.667v2.857h-10.073Z" data-name="Path 19"/></g><g clip-path="url(#a)" data-name="Group 49"><g data-name="Group 46"><path fill="#fff" d="M279.49 45.49V31.431h7.1a4.584 4.584 0 0 1 4.8 4.565 4.48 4.48 0 0 1-2.759 4.244l2.94 5.259h-3.675l-2.661-4.859h-2.345v4.845Zm3.4-7.744h2.967a1.813 1.813 0 0 0 2.05-1.75c0-.931-.756-1.667-2.05-1.667h-2.967Z" data-name="Path 20"/></g><g data-name="Group 47"><path fill="#fff" d="m145.772 43.97-14.584-29.167a5.9 5.9 0 0 0-7.118-2.961 5.98 5.98 0 0 0-3.465 3.066l-6.456 12.912-6.455-12.911a5.98 5.98 0 0 0-3.463-3.066 5.9 5.9 0 0 0-7.121 2.96l-9.035 18.071a4.02 4.02 0 0 1-3.6 2.222H70.943a5.9 5.9 0 0 1-5.8-6.881 5.99 5.99 0 0 1 5.963-4.893h9.647a14.33 14.33 0 0 0 12.82-7.923l.486-.972a1.99 1.99 0 0 0-1.779-2.879H70.949a17.6 17.6 0 0 0-12.19 4.894 15.4 15.4 0 0 1 2.459 7.9 15.7 15.7 0 0 1-4.477 11.485 16 16 0 0 1-1.515 1.368 18.09 18.09 0 0 0 16.039 9.674H87.71a10.51 10.51 0 0 0 9.453-5.843l5.2-10.407a.012.012 0 0 1 .021 0l6.5 12.995a5.89 5.89 0 0 0 6.277 3.168 6.08 6.08 0 0 0 4.339-3.338l6.412-12.824a.012.012 0 0 1 .022 0l7 14a4.06 4.06 0 0 0 3.631 2.245h7.412a2 2 0 0 0 1.792-2.9" data-name="Path 21"/></g><g data-name="Group 48"><path fill="#fff" d="M58.691 24.4a14.117 14.117 0 0 0-14.16-13.465H14.105a2.35 2.35 0 0 0-1.376.425 2.63 2.63 0 0 0-.875 3.344l.486.972a14.9 14.9 0 0 0 6.782 6.747 12.24 12.24 0 0 0 5.384 1.185h19.9a1.25 1.25 0 0 1 1.133.719.85.85 0 0 1 .134.637c0 .02-.017.036-.022.056a1.255 1.255 0 0 1-1.244 1.107H31.215a12.4 12.4 0 0 0-3.739.567A21.59 21.59 0 0 0 14.03 39.006l-2.284 5.483a2.15 2.15 0 0 0 .176 2 2.15 2.15 0 0 0 1.752.984h.008l9.708-.02h.067a2.57 2.57 0 0 0 2.378-1.572l1.143-2.581a7.79 7.79 0 0 1 7.125-4.638h10.728a13.75 13.75 0 0 0 9.938-4.206A13.76 13.76 0 0 0 58.691 24.4" data-name="Path 22"/></g></g></g></svg>