<svg xmlns="http://www.w3.org/2000/svg" xml:space="preserve" viewBox="0 0 179 72.8"><linearGradient id="a" x1="63.248" x2="39.963" y1="61.039" y2="-2.937" gradientTransform="matrix(1 0 0 -1 0 74)" gradientUnits="userSpaceOnUse"><stop offset="0" style="stop-color:#005892"/><stop offset=".048" style="stop-color:#0063a0"/><stop offset=".139" style="stop-color:#0081c5"/><stop offset=".261" style="stop-color:#00b1ff"/><stop offset=".33" style="stop-color:#11b3c7"/><stop offset=".412" style="stop-color:#23b68b"/><stop offset=".492" style="stop-color:#33b759"/><stop offset=".566" style="stop-color:#3fb933"/><stop offset=".634" style="stop-color:#47ba17"/><stop offset=".694" style="stop-color:#4cbb06"/><stop offset=".738" style="stop-color:#4ebb00"/><stop offset=".9" style="stop-color:#8ec200"/></linearGradient><circle cx="45.8" cy="60.9" r=".7" style="fill:url(#a)"/><linearGradient id="b" x1="61.042" x2="37.757" y1="61.842" y2="-2.133" gradientTransform="matrix(1 0 0 -1 0 74)" gradientUnits="userSpaceOnUse"><stop offset="0" style="stop-color:#005892"/><stop offset=".048" style="stop-color:#0063a0"/><stop offset=".139" style="stop-color:#0081c5"/><stop offset=".261" style="stop-color:#00b1ff"/><stop offset=".33" style="stop-color:#11b3c7"/><stop offset=".412" style="stop-color:#23b68b"/><stop offset=".492" style="stop-color:#33b759"/><stop offset=".566" style="stop-color:#3fb933"/><stop offset=".634" style="stop-color:#47ba17"/><stop offset=".694" style="stop-color:#4cbb06"/><stop offset=".738" style="stop-color:#4ebb00"/><stop offset=".9" style="stop-color:#8ec200"/></linearGradient><circle cx="42.1" cy="64.2" r=".9" style="fill:url(#b)"/><linearGradient id="c" x1="58.048" x2="34.763" y1="62.932" y2="-1.044" gradientTransform="matrix(1 0 0 -1 0 74)" gradientUnits="userSpaceOnUse"><stop offset="0" style="stop-color:#005892"/><stop offset=".048" style="stop-color:#0063a0"/><stop offset=".139" style="stop-color:#0081c5"/><stop offset=".261" style="stop-color:#00b1ff"/><stop offset=".33" style="stop-color:#11b3c7"/><stop offset=".412" style="stop-color:#23b68b"/><stop offset=".492" style="stop-color:#33b759"/><stop offset=".566" style="stop-color:#3fb933"/><stop offset=".634" style="stop-color:#47ba17"/><stop offset=".694" style="stop-color:#4cbb06"/><stop offset=".738" style="stop-color:#4ebb00"/><stop offset=".9" style="stop-color:#8ec200"/></linearGradient><circle cx="37.8" cy="66.7" r="1.1" style="fill:url(#c)"/><linearGradient id="d" x1="54.501" x2="31.215" y1="64.223" y2=".247" gradientTransform="matrix(1 0 0 -1 0 74)" gradientUnits="userSpaceOnUse"><stop offset="0" style="stop-color:#005892"/><stop offset=".048" style="stop-color:#0063a0"/><stop offset=".139" style="stop-color:#0081c5"/><stop offset=".261" style="stop-color:#00b1ff"/><stop offset=".33" style="stop-color:#11b3c7"/><stop offset=".412" style="stop-color:#23b68b"/><stop offset=".492" style="stop-color:#33b759"/><stop offset=".566" style="stop-color:#3fb933"/><stop offset=".634" style="stop-color:#47ba17"/><stop offset=".694" style="stop-color:#4cbb06"/><stop offset=".738" style="stop-color:#4ebb00"/><stop offset=".9" style="stop-color:#8ec200"/></linearGradient><circle cx="33.2" cy="68.3" r="1.3" style="fill:url(#d)"/><linearGradient id="e" x1="50.394" x2="27.109" y1="65.718" y2="1.742" gradientTransform="matrix(1 0 0 -1 0 74)" gradientUnits="userSpaceOnUse"><stop offset="0" style="stop-color:#005892"/><stop offset=".048" style="stop-color:#0063a0"/><stop offset=".139" style="stop-color:#0081c5"/><stop offset=".261" style="stop-color:#00b1ff"/><stop offset=".33" style="stop-color:#11b3c7"/><stop offset=".412" style="stop-color:#23b68b"/><stop offset=".492" style="stop-color:#33b759"/><stop offset=".566" style="stop-color:#3fb933"/><stop offset=".634" style="stop-color:#47ba17"/><stop offset=".694" style="stop-color:#4cbb06"/><stop offset=".738" style="stop-color:#4ebb00"/><stop offset=".9" style="stop-color:#8ec200"/></linearGradient><path d="M28.3 70.4c-.8 0-1.4-.6-1.4-1.4s.6-1.4 1.4-1.4 1.4.6 1.4 1.4-.7 1.4-1.4 1.4" style="fill:url(#e)"/><linearGradient id="f" x1="45.823" x2="22.538" y1="67.381" y2="3.406" gradientTransform="matrix(1 0 0 -1 0 74)" gradientUnits="userSpaceOnUse"><stop offset="0" style="stop-color:#005892"/><stop offset=".048" style="stop-color:#0063a0"/><stop offset=".139" style="stop-color:#0081c5"/><stop offset=".261" style="stop-color:#00b1ff"/><stop offset=".33" style="stop-color:#11b3c7"/><stop offset=".412" style="stop-color:#23b68b"/><stop offset=".492" style="stop-color:#33b759"/><stop offset=".566" style="stop-color:#3fb933"/><stop offset=".634" style="stop-color:#47ba17"/><stop offset=".694" style="stop-color:#4cbb06"/><stop offset=".738" style="stop-color:#4ebb00"/><stop offset=".9" style="stop-color:#8ec200"/></linearGradient><circle cx="23.3" cy="68.5" r="1.6" style="fill:url(#f)"/><linearGradient id="g" x1="41.175" x2="17.89" y1="69.073" y2="5.097" gradientTransform="matrix(1 0 0 -1 0 74)" gradientUnits="userSpaceOnUse"><stop offset="0" style="stop-color:#005892"/><stop offset=".048" style="stop-color:#0063a0"/><stop offset=".139" style="stop-color:#0081c5"/><stop offset=".261" style="stop-color:#00b1ff"/><stop offset=".33" style="stop-color:#11b3c7"/><stop offset=".412" style="stop-color:#23b68b"/><stop offset=".492" style="stop-color:#33b759"/><stop offset=".566" style="stop-color:#3fb933"/><stop offset=".634" style="stop-color:#47ba17"/><stop offset=".694" style="stop-color:#4cbb06"/><stop offset=".738" style="stop-color:#4ebb00"/><stop offset=".9" style="stop-color:#8ec200"/></linearGradient><path d="M18.6 68.7c-.9 0-1.7-.7-1.7-1.7 0-.9.7-1.7 1.7-1.7.9 0 1.7.7 1.7 1.7-.1 1-.8 1.7-1.7 1.7" style="fill:url(#g)"/><linearGradient id="h" x1="36.654" x2="13.369" y1="70.719" y2="6.743" gradientTransform="matrix(1 0 0 -1 0 74)" gradientUnits="userSpaceOnUse"><stop offset="0" style="stop-color:#005892"/><stop offset=".048" style="stop-color:#0063a0"/><stop offset=".139" style="stop-color:#0081c5"/><stop offset=".261" style="stop-color:#00b1ff"/><stop offset=".33" style="stop-color:#11b3c7"/><stop offset=".412" style="stop-color:#23b68b"/><stop offset=".492" style="stop-color:#33b759"/><stop offset=".566" style="stop-color:#3fb933"/><stop offset=".634" style="stop-color:#47ba17"/><stop offset=".694" style="stop-color:#4cbb06"/><stop offset=".738" style="stop-color:#4ebb00"/><stop offset=".9" style="stop-color:#8ec200"/></linearGradient><circle cx="14.3" cy="64.7" r="1.7" style="fill:url(#h)"/><linearGradient id="i" x1="32.27" x2="8.985" y1="72.314" y2="8.338" gradientTransform="matrix(1 0 0 -1 0 74)" gradientUnits="userSpaceOnUse"><stop offset="0" style="stop-color:#005892"/><stop offset=".048" style="stop-color:#0063a0"/><stop offset=".139" style="stop-color:#0081c5"/><stop offset=".261" style="stop-color:#00b1ff"/><stop offset=".33" style="stop-color:#11b3c7"/><stop offset=".412" style="stop-color:#23b68b"/><stop offset=".492" style="stop-color:#33b759"/><stop offset=".566" style="stop-color:#3fb933"/><stop offset=".634" style="stop-color:#47ba17"/><stop offset=".694" style="stop-color:#4cbb06"/><stop offset=".738" style="stop-color:#4ebb00"/><stop offset=".9" style="stop-color:#8ec200"/></linearGradient><path d="M10.5 63.3c-1 0-1.8-.8-1.8-1.8s.8-1.8 1.8-1.8 1.8.8 1.8 1.8-.8 1.8-1.8 1.8" style="fill:url(#i)"/><linearGradient id="j" x1="28.281" x2="4.996" y1="73.766" y2="9.79" gradientTransform="matrix(1 0 0 -1 0 74)" gradientUnits="userSpaceOnUse"><stop offset="0" style="stop-color:#005892"/><stop offset=".048" style="stop-color:#0063a0"/><stop offset=".139" style="stop-color:#0081c5"/><stop offset=".261" style="stop-color:#00b1ff"/><stop offset=".33" style="stop-color:#11b3c7"/><stop offset=".412" style="stop-color:#23b68b"/><stop offset=".492" style="stop-color:#33b759"/><stop offset=".566" style="stop-color:#3fb933"/><stop offset=".634" style="stop-color:#47ba17"/><stop offset=".694" style="stop-color:#4cbb06"/><stop offset=".738" style="stop-color:#4ebb00"/><stop offset=".9" style="stop-color:#8ec200"/></linearGradient><path d="M7.4 59.5c-1 0-1.9-.8-1.9-1.9 0-1 .8-1.9 1.9-1.9 1 0 1.9.8 1.9 1.9s-.9 1.9-1.9 1.9" style="fill:url(#j)"/><linearGradient id="k" x1="24.867" x2="1.582" y1="75.009" y2="11.033" gradientTransform="matrix(1 0 0 -1 0 74)" gradientUnits="userSpaceOnUse"><stop offset="0" style="stop-color:#005892"/><stop offset=".048" style="stop-color:#0063a0"/><stop offset=".139" style="stop-color:#0081c5"/><stop offset=".261" style="stop-color:#00b1ff"/><stop offset=".33" style="stop-color:#11b3c7"/><stop offset=".412" style="stop-color:#23b68b"/><stop offset=".492" style="stop-color:#33b759"/><stop offset=".566" style="stop-color:#3fb933"/><stop offset=".634" style="stop-color:#47ba17"/><stop offset=".694" style="stop-color:#4cbb06"/><stop offset=".738" style="stop-color:#4ebb00"/><stop offset=".9" style="stop-color:#8ec200"/></linearGradient><circle cx="5.1" cy="53.3" r="1.9" style="fill:url(#k)"/><linearGradient id="l" x1="22.037" x2="-1.249" y1="76.039" y2="12.063" gradientTransform="matrix(1 0 0 -1 0 74)" gradientUnits="userSpaceOnUse"><stop offset="0" style="stop-color:#005892"/><stop offset=".048" style="stop-color:#0063a0"/><stop offset=".139" style="stop-color:#0081c5"/><stop offset=".261" style="stop-color:#00b1ff"/><stop offset=".33" style="stop-color:#11b3c7"/><stop offset=".412" style="stop-color:#23b68b"/><stop offset=".492" style="stop-color:#33b759"/><stop offset=".566" style="stop-color:#3fb933"/><stop offset=".634" style="stop-color:#47ba17"/><stop offset=".694" style="stop-color:#4cbb06"/><stop offset=".738" style="stop-color:#4ebb00"/><stop offset=".9" style="stop-color:#8ec200"/></linearGradient><path d="M3.6 50.5c-1.1 0-1.9-.9-1.9-1.9s.9-1.9 1.9-1.9 1.9.9 1.9 1.9-.8 1.9-1.9 1.9" style="fill:url(#l)"/><linearGradient id="m" x1="19.895" x2="-3.39" y1="76.818" y2="12.843" gradientTransform="matrix(1 0 0 -1 0 74)" gradientUnits="userSpaceOnUse"><stop offset="0" style="stop-color:#005892"/><stop offset=".048" style="stop-color:#0063a0"/><stop offset=".139" style="stop-color:#0081c5"/><stop offset=".261" style="stop-color:#00b1ff"/><stop offset=".33" style="stop-color:#11b3c7"/><stop offset=".412" style="stop-color:#23b68b"/><stop offset=".492" style="stop-color:#33b759"/><stop offset=".566" style="stop-color:#3fb933"/><stop offset=".634" style="stop-color:#47ba17"/><stop offset=".694" style="stop-color:#4cbb06"/><stop offset=".738" style="stop-color:#4ebb00"/><stop offset=".9" style="stop-color:#8ec200"/></linearGradient><circle cx="3" cy="43.6" r="1.9" style="fill:url(#m)"/><linearGradient id="n" x1="18.585" x2="-4.7" y1="77.295" y2="13.32" gradientTransform="matrix(1 0 0 -1 0 74)" gradientUnits="userSpaceOnUse"><stop offset="0" style="stop-color:#005892"/><stop offset=".048" style="stop-color:#0063a0"/><stop offset=".139" style="stop-color:#0081c5"/><stop offset=".261" style="stop-color:#00b1ff"/><stop offset=".33" style="stop-color:#11b3c7"/><stop offset=".412" style="stop-color:#23b68b"/><stop offset=".492" style="stop-color:#33b759"/><stop offset=".566" style="stop-color:#3fb933"/><stop offset=".634" style="stop-color:#47ba17"/><stop offset=".694" style="stop-color:#4cbb06"/><stop offset=".738" style="stop-color:#4ebb00"/><stop offset=".9" style="stop-color:#8ec200"/></linearGradient><circle cx="3.3" cy="38.7" r="1.9" style="fill:url(#n)"/><linearGradient id="o" x1="18.19" x2="-5.095" y1="77.439" y2="13.463" gradientTransform="matrix(1 0 0 -1 0 74)" gradientUnits="userSpaceOnUse"><stop offset="0" style="stop-color:#005892"/><stop offset=".048" style="stop-color:#0063a0"/><stop offset=".139" style="stop-color:#0081c5"/><stop offset=".261" style="stop-color:#00b1ff"/><stop offset=".33" style="stop-color:#11b3c7"/><stop offset=".412" style="stop-color:#23b68b"/><stop offset=".492" style="stop-color:#33b759"/><stop offset=".566" style="stop-color:#3fb933"/><stop offset=".634" style="stop-color:#47ba17"/><stop offset=".694" style="stop-color:#4cbb06"/><stop offset=".738" style="stop-color:#4ebb00"/><stop offset=".9" style="stop-color:#8ec200"/></linearGradient><circle cx="4.6" cy="33.9" r="1.8" style="fill:url(#o)"/><linearGradient id="p" x1="18.598" x2="-4.687" y1="77.29" y2="13.315" gradientTransform="matrix(1 0 0 -1 0 74)" gradientUnits="userSpaceOnUse"><stop offset="0" style="stop-color:#005892"/><stop offset=".048" style="stop-color:#0063a0"/><stop offset=".139" style="stop-color:#0081c5"/><stop offset=".261" style="stop-color:#00b1ff"/><stop offset=".33" style="stop-color:#11b3c7"/><stop offset=".412" style="stop-color:#23b68b"/><stop offset=".492" style="stop-color:#33b759"/><stop offset=".566" style="stop-color:#3fb933"/><stop offset=".634" style="stop-color:#47ba17"/><stop offset=".694" style="stop-color:#4cbb06"/><stop offset=".738" style="stop-color:#4ebb00"/><stop offset=".9" style="stop-color:#8ec200"/></linearGradient><circle cx="6.7" cy="29.4" r="1.7" style="fill:url(#p)"/><linearGradient id="q" x1="19.665" x2="-3.62" y1="76.902" y2="12.927" gradientTransform="matrix(1 0 0 -1 0 74)" gradientUnits="userSpaceOnUse"><stop offset="0" style="stop-color:#005892"/><stop offset=".048" style="stop-color:#0063a0"/><stop offset=".139" style="stop-color:#0081c5"/><stop offset=".261" style="stop-color:#00b1ff"/><stop offset=".33" style="stop-color:#11b3c7"/><stop offset=".412" style="stop-color:#23b68b"/><stop offset=".492" style="stop-color:#33b759"/><stop offset=".566" style="stop-color:#3fb933"/><stop offset=".634" style="stop-color:#47ba17"/><stop offset=".694" style="stop-color:#4cbb06"/><stop offset=".738" style="stop-color:#4ebb00"/><stop offset=".9" style="stop-color:#8ec200"/></linearGradient><circle cx="9.4" cy="25.3" r="1.5" style="fill:url(#q)"/><linearGradient id="r" x1="21.427" x2="-1.858" y1="76.261" y2="12.285" gradientTransform="matrix(1 0 0 -1 0 74)" gradientUnits="userSpaceOnUse"><stop offset="0" style="stop-color:#005892"/><stop offset=".048" style="stop-color:#0063a0"/><stop offset=".139" style="stop-color:#0081c5"/><stop offset=".261" style="stop-color:#00b1ff"/><stop offset=".33" style="stop-color:#11b3c7"/><stop offset=".412" style="stop-color:#23b68b"/><stop offset=".492" style="stop-color:#33b759"/><stop offset=".566" style="stop-color:#3fb933"/><stop offset=".634" style="stop-color:#47ba17"/><stop offset=".694" style="stop-color:#4cbb06"/><stop offset=".738" style="stop-color:#4ebb00"/><stop offset=".9" style="stop-color:#8ec200"/></linearGradient><path d="M12.7 23c-.7 0-1.3-.6-1.3-1.3s.6-1.3 1.3-1.3 1.3.6 1.3 1.3-.5 1.3-1.3 1.3" style="fill:url(#r)"/><linearGradient id="s" x1="23.596" x2=".311" y1="75.471" y2="11.496" gradientTransform="matrix(1 0 0 -1 0 74)" gradientUnits="userSpaceOnUse"><stop offset="0" style="stop-color:#005892"/><stop offset=".048" style="stop-color:#0063a0"/><stop offset=".139" style="stop-color:#0081c5"/><stop offset=".261" style="stop-color:#00b1ff"/><stop offset=".33" style="stop-color:#11b3c7"/><stop offset=".412" style="stop-color:#23b68b"/><stop offset=".492" style="stop-color:#33b759"/><stop offset=".566" style="stop-color:#3fb933"/><stop offset=".634" style="stop-color:#47ba17"/><stop offset=".694" style="stop-color:#4cbb06"/><stop offset=".738" style="stop-color:#4ebb00"/><stop offset=".9" style="stop-color:#8ec200"/></linearGradient><path d="M16.4 19.4c-.6 0-1.1-.5-1.1-1.1s.5-1.1 1.1-1.1 1.1.5 1.1 1.1-.5 1.1-1.1 1.1" style="fill:url(#s)"/><linearGradient id="t" x1="25.682" x2="2.397" y1="74.712" y2="10.736" gradientTransform="matrix(1 0 0 -1 0 74)" gradientUnits="userSpaceOnUse"><stop offset="0" style="stop-color:#005892"/><stop offset=".048" style="stop-color:#0063a0"/><stop offset=".139" style="stop-color:#0081c5"/><stop offset=".261" style="stop-color:#00b1ff"/><stop offset=".33" style="stop-color:#11b3c7"/><stop offset=".412" style="stop-color:#23b68b"/><stop offset=".492" style="stop-color:#33b759"/><stop offset=".566" style="stop-color:#3fb933"/><stop offset=".634" style="stop-color:#47ba17"/><stop offset=".694" style="stop-color:#4cbb06"/><stop offset=".738" style="stop-color:#4ebb00"/><stop offset=".9" style="stop-color:#8ec200"/></linearGradient><path d="M20 15.8c-.5 0-.9-.4-.9-.9s.4-.9.9-.9.9.4.9.9-.4.9-.9.9" style="fill:url(#t)"/><linearGradient id="u" x1="27.281" x2="3.996" y1="74.13" y2="10.154" gradientTransform="matrix(1 0 0 -1 0 74)" gradientUnits="userSpaceOnUse"><stop offset="0" style="stop-color:#005892"/><stop offset=".048" style="stop-color:#0063a0"/><stop offset=".139" style="stop-color:#0081c5"/><stop offset=".261" style="stop-color:#00b1ff"/><stop offset=".33" style="stop-color:#11b3c7"/><stop offset=".412" style="stop-color:#23b68b"/><stop offset=".492" style="stop-color:#33b759"/><stop offset=".566" style="stop-color:#3fb933"/><stop offset=".634" style="stop-color:#47ba17"/><stop offset=".694" style="stop-color:#4cbb06"/><stop offset=".738" style="stop-color:#4ebb00"/><stop offset=".9" style="stop-color:#8ec200"/></linearGradient><path d="M23.2 11.9c-.4 0-.8-.3-.8-.8s.3-.8.8-.8.8.3.8.8-.4.8-.8.8" style="fill:url(#u)"/><linearGradient id="v" x1="28.233" x2="4.947" y1="73.784" y2="9.808" gradientTransform="matrix(1 0 0 -1 0 74)" gradientUnits="userSpaceOnUse"><stop offset="0" style="stop-color:#005892"/><stop offset=".048" style="stop-color:#0063a0"/><stop offset=".139" style="stop-color:#0081c5"/><stop offset=".261" style="stop-color:#00b1ff"/><stop offset=".33" style="stop-color:#11b3c7"/><stop offset=".412" style="stop-color:#23b68b"/><stop offset=".492" style="stop-color:#33b759"/><stop offset=".566" style="stop-color:#3fb933"/><stop offset=".634" style="stop-color:#47ba17"/><stop offset=".694" style="stop-color:#4cbb06"/><stop offset=".738" style="stop-color:#4ebb00"/><stop offset=".9" style="stop-color:#8ec200"/></linearGradient><circle cx="25.8" cy="6.9" r=".7" style="fill:url(#v)"/><linearGradient id="w" x1="28.636" x2="5.35" y1="73.637" y2="9.662" gradientTransform="matrix(1 0 0 -1 0 74)" gradientUnits="userSpaceOnUse"><stop offset="0" style="stop-color:#005892"/><stop offset=".048" style="stop-color:#0063a0"/><stop offset=".139" style="stop-color:#0081c5"/><stop offset=".261" style="stop-color:#00b1ff"/><stop offset=".33" style="stop-color:#11b3c7"/><stop offset=".412" style="stop-color:#23b68b"/><stop offset=".492" style="stop-color:#33b759"/><stop offset=".566" style="stop-color:#3fb933"/><stop offset=".634" style="stop-color:#47ba17"/><stop offset=".694" style="stop-color:#4cbb06"/><stop offset=".738" style="stop-color:#4ebb00"/><stop offset=".9" style="stop-color:#8ec200"/></linearGradient><path d="M27.9 3.4c-.5 0-1-.4-1-1s.4-1 1-1c.5 0 1 .4 1 1s-.5 1-1 1" style="fill:url(#w)"/><linearGradient id="x" x1="33.394" x2="10.108" y1="71.905" y2="7.93" gradientTransform="matrix(1 0 0 -1 0 74)" gradientUnits="userSpaceOnUse"><stop offset="0" style="stop-color:#005892"/><stop offset=".048" style="stop-color:#0063a0"/><stop offset=".139" style="stop-color:#0081c5"/><stop offset=".261" style="stop-color:#00b1ff"/><stop offset=".33" style="stop-color:#11b3c7"/><stop offset=".412" style="stop-color:#23b68b"/><stop offset=".492" style="stop-color:#33b759"/><stop offset=".566" style="stop-color:#3fb933"/><stop offset=".634" style="stop-color:#47ba17"/><stop offset=".694" style="stop-color:#4cbb06"/><stop offset=".738" style="stop-color:#4ebb00"/><stop offset=".9" style="stop-color:#8ec200"/></linearGradient><path d="M32.3 6.5c-.8 0-1.4-.6-1.4-1.4s.6-1.4 1.4-1.4 1.4.6 1.4 1.4-.6 1.4-1.4 1.4" style="fill:url(#x)"/><linearGradient id="y" x1="38.043" x2="14.757" y1="70.213" y2="6.237" gradientTransform="matrix(1 0 0 -1 0 74)" gradientUnits="userSpaceOnUse"><stop offset="0" style="stop-color:#005892"/><stop offset=".048" style="stop-color:#0063a0"/><stop offset=".139" style="stop-color:#0081c5"/><stop offset=".261" style="stop-color:#00b1ff"/><stop offset=".33" style="stop-color:#11b3c7"/><stop offset=".412" style="stop-color:#23b68b"/><stop offset=".492" style="stop-color:#33b759"/><stop offset=".566" style="stop-color:#3fb933"/><stop offset=".634" style="stop-color:#47ba17"/><stop offset=".694" style="stop-color:#4cbb06"/><stop offset=".738" style="stop-color:#4ebb00"/><stop offset=".9" style="stop-color:#8ec200"/></linearGradient><circle cx="36.4" cy="8.3" r="1.7" style="fill:url(#y)"/><linearGradient id="z" x1="42.435" x2="19.149" y1="68.615" y2="4.639" gradientTransform="matrix(1 0 0 -1 0 74)" gradientUnits="userSpaceOnUse"><stop offset="0" style="stop-color:#005892"/><stop offset=".048" style="stop-color:#0063a0"/><stop offset=".139" style="stop-color:#0081c5"/><stop offset=".261" style="stop-color:#00b1ff"/><stop offset=".33" style="stop-color:#11b3c7"/><stop offset=".412" style="stop-color:#23b68b"/><stop offset=".492" style="stop-color:#33b759"/><stop offset=".566" style="stop-color:#3fb933"/><stop offset=".634" style="stop-color:#47ba17"/><stop offset=".694" style="stop-color:#4cbb06"/><stop offset=".738" style="stop-color:#4ebb00"/><stop offset=".9" style="stop-color:#8ec200"/></linearGradient><circle cx="40.1" cy="11.8" r="1.8" style="fill:url(#z)"/><linearGradient id="A" x1="46.723" x2="23.437" y1="67.054" y2="3.078" gradientTransform="matrix(1 0 0 -1 0 74)" gradientUnits="userSpaceOnUse"><stop offset="0" style="stop-color:#005892"/><stop offset=".048" style="stop-color:#0063a0"/><stop offset=".139" style="stop-color:#0081c5"/><stop offset=".261" style="stop-color:#00b1ff"/><stop offset=".33" style="stop-color:#11b3c7"/><stop offset=".412" style="stop-color:#23b68b"/><stop offset=".492" style="stop-color:#33b759"/><stop offset=".566" style="stop-color:#3fb933"/><stop offset=".634" style="stop-color:#47ba17"/><stop offset=".694" style="stop-color:#4cbb06"/><stop offset=".738" style="stop-color:#4ebb00"/><stop offset=".9" style="stop-color:#8ec200"/></linearGradient><circle cx="43.5" cy="15.8" r="1.8" style="fill:url(#A)"/><linearGradient id="B" x1="50.633" x2="27.348" y1="65.631" y2="1.655" gradientTransform="matrix(1 0 0 -1 0 74)" gradientUnits="userSpaceOnUse"><stop offset="0" style="stop-color:#005892"/><stop offset=".048" style="stop-color:#0063a0"/><stop offset=".139" style="stop-color:#0081c5"/><stop offset=".261" style="stop-color:#00b1ff"/><stop offset=".33" style="stop-color:#11b3c7"/><stop offset=".412" style="stop-color:#23b68b"/><stop offset=".492" style="stop-color:#33b759"/><stop offset=".566" style="stop-color:#3fb933"/><stop offset=".634" style="stop-color:#47ba17"/><stop offset=".694" style="stop-color:#4cbb06"/><stop offset=".738" style="stop-color:#4ebb00"/><stop offset=".9" style="stop-color:#8ec200"/></linearGradient><circle cx="46.4" cy="20" r="1.6" style="fill:url(#B)"/><linearGradient id="C" x1="54.314" x2="31.029" y1="64.291" y2=".315" gradientTransform="matrix(1 0 0 -1 0 74)" gradientUnits="userSpaceOnUse"><stop offset="0" style="stop-color:#005892"/><stop offset=".048" style="stop-color:#0063a0"/><stop offset=".139" style="stop-color:#0081c5"/><stop offset=".261" style="stop-color:#00b1ff"/><stop offset=".33" style="stop-color:#11b3c7"/><stop offset=".412" style="stop-color:#23b68b"/><stop offset=".492" style="stop-color:#33b759"/><stop offset=".566" style="stop-color:#3fb933"/><stop offset=".634" style="stop-color:#47ba17"/><stop offset=".694" style="stop-color:#4cbb06"/><stop offset=".738" style="stop-color:#4ebb00"/><stop offset=".9" style="stop-color:#8ec200"/></linearGradient><path d="M48.9 25.8c-.7 0-1.2-.5-1.2-1.2s.5-1.2 1.2-1.2 1.2.5 1.2 1.2-.6 1.2-1.2 1.2" style="fill:url(#C)"/><linearGradient id="D" x1="57.451" x2="34.166" y1="63.149" y2="-.827" gradientTransform="matrix(1 0 0 -1 0 74)" gradientUnits="userSpaceOnUse"><stop offset="0" style="stop-color:#005892"/><stop offset=".048" style="stop-color:#0063a0"/><stop offset=".139" style="stop-color:#0081c5"/><stop offset=".261" style="stop-color:#00b1ff"/><stop offset=".33" style="stop-color:#11b3c7"/><stop offset=".412" style="stop-color:#23b68b"/><stop offset=".492" style="stop-color:#33b759"/><stop offset=".566" style="stop-color:#3fb933"/><stop offset=".634" style="stop-color:#47ba17"/><stop offset=".694" style="stop-color:#4cbb06"/><stop offset=".738" style="stop-color:#4ebb00"/><stop offset=".9" style="stop-color:#8ec200"/></linearGradient><circle cx="50.7" cy="29.4" r=".6" style="fill:url(#D)"/><linearGradient id="E" x1="96.05" x2="96.05" y1="13.563" y2="51.563" gradientTransform="matrix(1 0 0 -1 0 74)" gradientUnits="userSpaceOnUse"><stop offset=".344" style="stop-color:#005892"/><stop offset=".851" style="stop-color:#0094d1"/><stop offset="1" style="stop-color:#00b1ff"/></linearGradient><path d="M76.4 32.8h-7.8c0 4.1.2 4.4 3.8 4.4h4.2c3.4 0 5 .7 5 3.6h-5.8c-6.3 0-9.2 1.9-9.2 6.2 0 4.6 4.2 6.5 8.7 6.5 3.4 0 5.9-1.2 7.4-3.6 0 3.3.1 3.4 4.5 3.4V41.7c-.1-5.5-2.3-8.9-10.8-8.9m-.2 16.4c-3 0-4-.9-4-2.2 0-2.7.2-2.8 4.2-2.8h5.2c-.1 4.9-.1 5-5.4 5M63.5 36.8v16.5c-4.5 0-4.5 0-4.5-3.4-1.1 1.8-3.5 3.6-7 3.6-7.3 0-8.8-4-8.8-9.6V32.7c5.2 0 5.5.2 5.5 4.1v7.5c0 3.3.6 4.7 4.5 4.7 4.7 0 4.6 0 4.6-4.9V32.7c3.1 0 4.2.1 4.8.6 1 .7.9 2.5.9 3.5m-36.1-9.5c-10.3 0-12.9 6.4-12.9 13.3 0 6.2 2 12 9.9 13.1 0 4.8 2.3 6.8 8.8 6.8h3.5c0-4.2-.2-4.3-3.5-4.3-3.1 0-3.1 0-3.1-2.4 8.2-1.1 10.2-6.9 10.2-13.2 0-7-2.5-13.3-12.9-13.3m0 21.8c-5.8 0-7.2-3.6-7.2-8.6 0-8.4 0-8.5 7.2-8.5 5.9 0 7.2 3.6 7.2 8.6-.1 8.5 0 8.5-7.2 8.5m106.9-12.3v16.5c-5.2 0-5.5-.2-5.5-4.1V32.8c1.1 0 3.8-.2 4.8.6.5.5.7 1.4.7 3.4m-28.9-11.9v10.6c-.8-1.5-3.3-3-6.3-3-7.4 0-9.4 5-9.4 10.5s2.1 10.6 9.4 10.6c3.7 0 6.3-1.7 7.3-3.6 0 3.4.3 3.4 4.5 3.4V28.9c0-2-.1-3-.8-3.5-.9-.7-3.6-.5-4.7-.5M100.3 49c-4.1 0-5-2.1-5-6 0-6.1 0-5.8 5.1-5.8 4.3 0 5.2 2.1 5.2 5.8-.1 6-.1 6-5.3 6m54.7-1.7c0 3.3-3 6.1-9.7 6.1h-8c0-.9-.2-3.1.6-3.9.5-.5 1.4-.5 3.3-.5h4c.6 0 3.5.1 4.1-.2.3-.1.3-1.6.3-1.8 0-1.4-2.8-2-3.9-2.2-3.7-.8-8.5-.9-8.6-5.8-.1-3.9 3.1-6.2 9.6-6.2h7.3c0 .9.2 3-.5 3.8-.5.5-1.4.5-3.2.5h-3.6c-.5 0-3.3 0-3.8.2-.3.2-.2 1.8-.2 2.1 0 .4.3 1 1.7 1.4 3.9 1 10.6.6 10.6 6.5m22.6-5.9c0-5-3.3-9-9.9-9-8.6 0-10.9 5.1-10.9 10.5s2.3 10.4 10.8 10.4h8.3c0-4.1-.3-4.4-4-4.4h-4.5c-3.2 0-5.1-1.7-5.1-4.3h10.1c4.8.1 5.2.5 5.2-3.2m-15.2-.2c0-4.4.1-4.4 4.9-4.4 2.8 0 4.7 1.8 4.7 4.4zm-35.7-8.5v2.6c-.2 2.1-1.5 2-3.3 2-2.2 0-2.8.2-2.9 2.1-.1.7 0 1.6 0 2.6v11.4c-5.2 0-5.6-.2-5.6-4V32.7c4.5 0 4.5.2 4.5 3 1-1.7 3.3-3.2 7.3-3m8-5.1c0 1.5-1 2.8-2.3 3.2.3-.3.5-.8.4-1.6-.2-.9-1.1-1.5-1.1-1.5s-.2.3-.7.7c-.5.5-.8.8-.8 1.4 0 .4.2.8.5 1.1-1.3-.4-2.3-1.7-2.3-3.2 0-.9.4-1.7.9-2.3.6-.7.9-.8 1.4-1.4.7-.7.9-1.5.9-1.5s3.1 1.5 3.1 5.1" style="fill:url(#E)"/></svg>