<svg xmlns="http://www.w3.org/2000/svg" xml:space="preserve" id="Layer_1" x="0" y="0" viewBox="0 0 180.58 52.42"><style>.st0{fill:#f50514}</style><path d="M0 10.81h11.02v5.12c1.71-4.5 4.83-5.87 10.2-5.87v9.2h-3.2c-7.42 0-7.02 8.33-7.02 14.5l.01 2.98v14.94H0zm114.86 0h11.02v5.12c1.71-4.5 4.82-5.87 10.2-5.87v9.2h-3.2c-7.42 0-7.02 8.33-7.02 14.5l.02 2.98v14.94h-11.02zm23.88 0h11.1v40.88h-11.1zm11.3 20.45 8.29-20.45h10.33l-6.71 16.45h14.01v8.04h-14.01l6.74 16.39H158.3zM55.58 10.8h5.47V4.45h10.98v6.35h6.46v7.56h-6.46v23.02c.06 2.05 1.43 3.86 6.55 2.49.07 3.97 0 7.52 0 7.52-12.25 1.71-17.3.82-17.53-9.95l.07-.02h-.07V18.36h-5.47zm-17.74-.31h-.07c-15.53.32-15.53 8.31-15.47 21.24-.07 11.73 0 20.62 15.41 20.69h.19c15.41-.07 15.48-8.96 15.41-20.69.07-12.93.07-20.92-15.47-21.24m.03 34.24h-.02c-4.1-.01-3.89-2.07-4.08-13.19.13-11.71-.03-13.74 4.08-13.91h.02c4.12.17 3.95 2.2 4.08 13.91-.19 11.12.02 13.18-4.08 13.19m58.2-34.24H96c-15.54.32-15.54 8.31-15.47 21.24-.07 11.73 0 20.62 15.41 20.69h.2c15.41-.07 15.47-8.96 15.41-20.69.06-12.93.06-20.92-15.48-21.24m.03 34.24h-.02c-4.1-.01-3.89-2.07-4.08-13.19.13-11.71-.03-13.74 4.08-13.91h.02c4.12.17 3.96 2.2 4.08 13.91-.19 11.12.01 13.18-4.08 13.19m81.2-39.8c-.09-.21-.18-.37-.28-.5a.6.6 0 0 0-.22-.17c.25-.08.47-.2.65-.38.26-.25.39-.58.4-.98-.01-.56-.17-.97-.5-1.22-.32-.25-.75-.37-1.28-.37h-1.61v6h.75V4.56h.39q.27 0 .45.03.165.03.3.18.15.15.3.51l.84 1.97.02.05h.82zm-.2-2.03c0 .25-.07.44-.2.58s-.3.25-.51.31q-.315.09-.63.09h-.54v-1.9h.51c.26 0 .5.01.72.05.2.03.36.12.48.25.1.12.17.33.17.62" class="st0"/><path d="M176.16 8.82c-2.43 0-4.41-1.98-4.41-4.41S173.73 0 176.16 0s4.41 1.98 4.41 4.41c.01 2.43-1.97 4.41-4.41 4.41m0-8.12c-2.05 0-3.72 1.67-3.72 3.71a3.715 3.715 0 0 0 7.43 0c.01-2.05-1.66-3.71-3.71-3.71" class="st0"/></svg>