<svg xmlns="http://www.w3.org/2000/svg" width="218" height="72" fill="none" aria-label="Syensqo" viewBox="0 0 218 72"><path fill="#ff5730" d="M17.392 49.116a.8.8 0 0 0-.275-.054c-.24 0-.49.12-.633.419a1 1 0 0 0-.043.083 1 1 0 0 0-.045.086 1 1 0 0 0-.045.085 1 1 0 0 0-.045.086 1 1 0 0 0-.045.086 1 1 0 0 0-.045.085 1 1 0 0 0-.046.086 1 1 0 0 0-.045.085 1 1 0 0 0-.045.086 1 1 0 0 0-.045.085 1 1 0 0 0-.045.086 1 1 0 0 0-.045.086 1 1 0 0 0-.046.085 1 1 0 0 0-.045.086 1 1 0 0 0-.045.086 1 1 0 0 0-.045.085 1 1 0 0 0-.045.086 1 1 0 0 0-.045.085 1 1 0 0 0-.045.086 1 1 0 0 0-.046.085 1 1 0 0 0-.045.086 1 1 0 0 0-.045.086 1 1 0 0 0-.045.085 1 1 0 0 0-.045.086 1 1 0 0 0-.046.085 1 1 0 0 0-.045.086 1 1 0 0 0-.045.086 1 1 0 0 0-.045.085 1 1 0 0 0-.045.086q-.025.043-.045.085a1 1 0 0 0-.046.086l-.045.086q-.024.042-.045.085-.025.044-.045.086-.025.043-.045.085a1 1 0 0 0-.045.086q-.025.043-.046.086a1 1 0 0 0-.045.085 1 1 0 0 0-.045.086 1 1 0 0 0-.045.085 1 1 0 0 0-.045.086 1 1 0 0 0-.045.086l-.046.085-.045.086q-.024.043-.045.085-.025.044-.045.086-.025.043-.045.086a1 1 0 0 0-.045.085c-.016.03-.032.056-.046.086l-.045.085a1 1 0 0 0-.045.086c-.016.03-.031.056-.045.086q-.025.043-.045.085c-.016.03-.032.056-.045.086l-.046.085-.045.086c-.016.03-.031.056-.045.086q-.025.043-.045.085c-.016.03-.032.056-.045.086q-.025.043-.045.085-.025.044-.045.086l-.046.086-.045.085q-.024.043-.045.086-.025.043-.045.085-.025.044-.045.086l-.046.086-.045.085-.045.086q-.024.043-.045.085-.025.044-.045.086-.025.043-.045.086-.025.043-.046.085l-.045.086-.045.085-.045.086q-.025.043-.045.086-.025.042-.045.085-.025.043-.046.086l-.045.085-.045.086q-.024.043-.045.086-.025.042-.045.085-.025.043-.045.086l-.046.085-.045.086c-.016.03-.031.056-.045.086q-.025.042-.045.085c-.016.03-.032.056-.045.086q-.025.043-.045.085l-.046.086c-.015.03-.031.056-.045.086q-.024.042-.045.085c-.016.03-.031.056-.045.086q-.025.043-.045.085-.025.044-.045.086c-.016.03-.032.056-.046.086l-.045.085c-.016.03-.031.056-.045.086q-.025.043-.045.085-.025.044-.045.086c-.016.03-.032.056-.045.086q-.024.042-.046.085c-.015.03-.031.056-.045.086q-.024.042-.045.085-.025.044-.045.086l-.045.086q-.025.042-.045.085l-.046.086-.045.085-.045.086-.045.086-.045.085c-.016.03-.032.056-.045.086l-.046.085-.045.086-.045.085-.793 1.519-1.17 2.243c-.239.467-.487.937-.727 1.392a92 92 0 0 0-1.138 2.21 2.54 2.54 0 0 0 .018 1.953 2.54 2.54 0 0 0 1.398 1.372 2.54 2.54 0 0 0 2.125-.097 2.55 2.55 0 0 0 1.333-1.69q1.114-3.74 2.224-7.478l.027-.092a1 1 0 0 0 .027-.093 1 1 0 0 0 .027-.092 1 1 0 0 0 .028-.092 1 1 0 0 0 .027-.093 1 1 0 0 0 .027-.092 1 1 0 0 0 .027-.092 1 1 0 0 0 .027-.093 1 1 0 0 0 .027-.092 1 1 0 0 0 .027-.092 1 1 0 0 0 .027-.093 1 1 0 0 0 .027-.092 1 1 0 0 0 .027-.092 1 1 0 0 0 .028-.093 1 1 0 0 0 .027-.092 1 1 0 0 0 .027-.092 1 1 0 0 0 .027-.093 1 1 0 0 0 .027-.092 1 1 0 0 0 .027-.093 1 1 0 0 0 .027-.092 1 1 0 0 0 .027-.092 1 1 0 0 0 .027-.093 1 1 0 0 0 .027-.092 1 1 0 0 0 .028-.092 1 1 0 0 0 .027-.093 1 1 0 0 0 .027-.092 1 1 0 0 0 .027-.092 1 1 0 0 0 .027-.093 1 1 0 0 0 .027-.092 1 1 0 0 0 .027-.092 1 1 0 0 0 .027-.093 1 1 0 0 0 .027-.092 1 1 0 0 0 .027-.093 1 1 0 0 0 .028-.092 1 1 0 0 0 .027-.092 1 1 0 0 0 .027-.093 1 1 0 0 0 .027-.092 1 1 0 0 0 .027-.092 1 1 0 0 0 .027-.093 1 1 0 0 0 .027-.092 1 1 0 0 0 .027-.092 1 1 0 0 0 .027-.093 1 1 0 0 0 .027-.092 1 1 0 0 0 .028-.093 1 1 0 0 0 .027-.092 1 1 0 0 0 .027-.092 1 1 0 0 0 .027-.093 1 1 0 0 0 .027-.092 1 1 0 0 0 .027-.092 1 1 0 0 0 .027-.093 1 1 0 0 0 .027-.092 1 1 0 0 0 .028-.092 1 1 0 0 0 .027-.093 1 1 0 0 0 .027-.092 1 1 0 0 0 .027-.092 1 1 0 0 0 .027-.093 1 1 0 0 0 .027-.092 1 1 0 0 0 .027-.093 1 1 0 0 0 .027-.092 1 1 0 0 0 .027-.092 1 1 0 0 0 .027-.093 1 1 0 0 0 .027-.092 1 1 0 0 0 .028-.092 1 1 0 0 0 .027-.093 1 1 0 0 0 .027-.092 1 1 0 0 0 .027-.092 1 1 0 0 0 .027-.093 1 1 0 0 0 .027-.092 1 1 0 0 0 .027-.092 1 1 0 0 0 .027-.093 1 1 0 0 0 .027-.092 1 1 0 0 0 .027-.093 1 1 0 0 0 .028-.092 1 1 0 0 0 .027-.092 1 1 0 0 0 .027-.093 1 1 0 0 0 .027-.092 1 1 0 0 0 .027-.092 1 1 0 0 0 .027-.093 1 1 0 0 0 .027-.092 1 1 0 0 0 .027-.092 1 1 0 0 0 .027-.093 1 1 0 0 0 .027-.092 1 1 0 0 0 .028-.092q.016-.05.027-.093a1 1 0 0 0 .027-.092q.016-.05.027-.093a1 1 0 0 0 .027-.092q.017-.05.027-.092.016-.05.027-.093a1 1 0 0 0 .027-.092q.017-.05.027-.092a1 1 0 0 0 .027-.093q.017-.049.028-.092a1 1 0 0 0 .027-.092q.017-.05.027-.093.016-.05.027-.092a1 1 0 0 0 .027-.092q.017-.05.027-.093a1 1 0 0 0 .027-.092q.016-.05.027-.093a1 1 0 0 0 .027-.092q.017-.05.027-.092.017-.05.028-.093a1 1 0 0 0 .027-.092q.017-.05.027-.092a1 1 0 0 0 .027-.093q.016-.049.027-.092a1 1 0 0 0 .027-.092q.016-.05.027-.093.017-.05.027-.092a1 1 0 0 0 .027-.092q.017-.05.027-.093a1 1 0 0 0 .028-.092q.016-.05.027-.093a1 1 0 0 0 .027-.092q.016-.05.027-.092a1 1 0 0 0 .027-.093q.017-.049.027-.092a.69.69 0 0 0-.397-.896zM21.3 60.084v-.025c0-.023.005-.045.002-.068v-.024c0-.023.005-.045.003-.068v-.023c0-.024.004-.047.002-.072v-.024c0-.023.004-.045.002-.068v-.025c0-.022.005-.045.002-.067v-.025c0-.023.005-.045.003-.068v-.02c0-.025.004-.047.002-.072v-.02c0-.025.004-.05.002-.072v-.023c0-.025.005-.047.002-.072v-.025c0-.022.005-.045.003-.067v-.02c0-.025.004-.048.002-.073v-.02c0-.025.004-.047.002-.072v-.02c0-.025.005-.048.002-.072v-.016c0-.025.005-.052.003-.077v-.018c0-.025.004-.052.002-.076v-.02c0-.025.004-.048.002-.073v-.02c0-.025.005-.05.002-.072v-.016c0-.025.005-.052.003-.076v-.016c0-.025.004-.052.002-.077v-.016c0-.024.005-.051.002-.076v-.018c0-.025.005-.052.003-.077v-.013c0-.027.004-.054.002-.08v-.015c0-.025.004-.052.002-.077v-.015c0-.025.005-.052.002-.077v-.011c0-.027.005-.056.003-.083v-.012c0-.027.004-.056.002-.083v-.011c0-.027.004-.057.002-.084v-.009c0-.027.005-.056.002-.083v-.011c0-.027.005-.057.003-.084v-.01c0-.028.004-.057.002-.084v-.011c0-.027.004-.057.002-.084 0-.034.005-.063.002-.095 0-.033.005-.062.003-.094 0-.036.004-.065.002-.095 0-.034.004-.063.002-.094 0-.034.005-.063.002-.095 0-.034.005-.063.003-.095 0-.033.004-.063.002-.094 0-.034.004-.063.002-.095 0-.034.005-.063.002-.092 0-.034.005-.063.003-.095 0-.033.004-.063.002-.094 0-.034.004-.063.002-.095 0-.034.005-.063.002-.094 0-.034.005-.064.003-.095 0-.034.004-.063.002-.095 0-.033.004-.063.002-.094 0-.034.005-.063.002-.095 0-.034.005-.063.003-.095 0-.033.004-.063.002-.094 0-.034.005-.063.002-.095 0-.034.005-.063.003-.094 0-.034.004-.063.002-.095 0-.034.004-.063.002-.095 0-.033.005-.063.002-.094 0-.034.005-.063.003-.095 0-.034.004-.063.002-.094 0-.034.004-.063.002-.095 0-.034.005-.063.002-.092 0-.034.005-.064.003-.095 0-.034.004-.063.002-.095 0-.033.004-.063.002-.094q.005-.049.002-.095.005-.05.003-.094.004-.05.002-.095.004-.049.002-.095.005-.049.002-.094.005-.049.003-.095.004-.05.002-.094.004-.05.002-.095.005-.049.002-.095.005-.049.003-.094.004-.049.002-.095.004-.05.002-.094.005-.05.002-.095.005-.051.003-.095.004-.05.002-.094.004-.049.002-.095.005-.049.002-.095.005-.049.003-.094.004-.049.002-.095.005-.05.002-.094a1 1 0 0 0 .003-.095q.004-.049.002-.095.004-.049.002-.094.005-.049.002-.095.005-.05.003-.095.004-.048.002-.094.004-.05.002-.095.005-.05.002-.094.005-.051.003-.095.004-.05.002-.095.004-.05.002-.094.005-.051.002-.095.005-.05.003-.094.004-.051.002-.095.004-.05.002-.095.005-.05.002-.094.005-.051.003-.095a.713.713 0 0 0-.7-.777c-.12 0-.24.032-.35.095a.69.69 0 0 0-.35.502 1 1 0 0 0-.02.092 1 1 0 0 0-.021.093 1 1 0 0 0-.02.092 1 1 0 0 0-.02.092 1 1 0 0 0-.021.093 1 1 0 0 0-.02.092 1 1 0 0 0-.02.093 1 1 0 0 0-.021.092 1 1 0 0 0-.02.092 1 1 0 0 0-.02.093 1 1 0 0 0-.021.092 1 1 0 0 0-.02.092 1 1 0 0 0-.02.093 1 1 0 0 0-.021.092 1 1 0 0 0-.02.092 1 1 0 0 0-.02.093 1 1 0 0 0-.021.092 1 1 0 0 0-.02.092 1 1 0 0 0-.02.093 1 1 0 0 0-.021.092 1 1 0 0 0-.02.093 1 1 0 0 0-.02.092 1 1 0 0 0-.021.092 1 1 0 0 0-.02.093 1 1 0 0 0-.02.092 1 1 0 0 0-.021.092 1 1 0 0 0-.02.093 1 1 0 0 0-.02.092 1 1 0 0 0-.021.092 1 1 0 0 0-.02.093 1 1 0 0 0-.02.092 1 1 0 0 0-.021.092 1 1 0 0 0-.02.093 1 1 0 0 0-.02.092 1 1 0 0 0-.021.093 1 1 0 0 0-.02.092 1 1 0 0 0-.02.092 1 1 0 0 0-.021.093 1 1 0 0 0-.02.092 1 1 0 0 0-.02.092 1 1 0 0 0-.02.093 1 1 0 0 0-.021.092 1 1 0 0 0-.02.092 1 1 0 0 0-.02.093 1 1 0 0 0-.021.092 1 1 0 0 0-.02.092 1 1 0 0 0-.02.093 1 1 0 0 0-.021.092 1 1 0 0 0-.02.093 1 1 0 0 0-.02.092 1 1 0 0 0-.021.092 1 1 0 0 0-.02.093 1 1 0 0 0-.02.092 1 1 0 0 0-.021.092 1 1 0 0 0-.02.093 1 1 0 0 0-.02.092 1 1 0 0 0-.021.092 1 1 0 0 0-.02.093 1 1 0 0 0-.02.092 1 1 0 0 0-.021.092 1 1 0 0 0-.02.093 1 1 0 0 0-.02.092 1 1 0 0 0-.021.093 1 1 0 0 0-.02.092 1 1 0 0 0-.02.092q-.014.048-.021.093-.012.047-.02.092-.012.045-.02.092a1 1 0 0 0-.021.093q-.012.048-.02.092-.012.048-.02.092-.013.048-.021.093-.012.047-.02.092-.012.048-.02.092-.013.048-.021.093-.012.047-.02.092-.012.048-.02.093a1 1 0 0 0-.021.092q-.012.047-.02.092-.012.048-.02.093c-.007.031-.017.063-.021.092q-.012.047-.02.092l-.02.093a1 1 0 0 0-.021.092 1 1 0 0 0-.02.092q-.012.048-.02.093-.012.047-.02.092-.015.053-.021.092l-.02.093-.02.092a1 1 0 0 0-.021.092 1 1 0 0 0-.02.093v.013l-.02.08-.021.091-.02.093-.02.092a1 1 0 0 0-.021.093v.01l-.02.08-.005.016q-.01.037-.016.076v.014l-.02.078-.02.093-.02.092v.011l-.021.08v.01l-.02.08-.005.015q-.01.038-.016.077l-.004.015q-.01.038-.016.077v.014l-.02.078-.005.018-.016.075v.011l-.02.079-.005.016c-.006.024-.01.052-.015.076l-.005.016q-.01.038-.016.077l-.004.015q-.01.038-.016.077l-.005.02-.015.072-.005.016-.016.074-.004.018q-.01.037-.016.075l-.005.018-.015.072-.005.018q-.01.038-.016.074l-.004.016q-.01.038-.016.077l-.005.02-.015.072-.005.02-.016.072-.004.016-.016.077-.005.018-.015.072-.005.018q-.007.038-.016.072l-.004.018-.016.072-.52 2.399q-.495 2.278-.986 4.555a2.43 2.43 0 0 0 1.45 2.804c.718.307 1.556.221 2.24-.234.689-.455 1.095-1.194 1.09-1.975.053-1.568.1-3.136.15-4.702l.079-2.516v-.095q.004-.03.002-.063v-.029q.005-.032.002-.065v-.03q.005-.032.003-.065v-.031q.004-.032.002-.063v-.032q.004-.03.002-.063v-.032a.3.3 0 0 0 .002-.063v-.029q.005-.032.003-.065v-.03q.004-.032.002-.065v-.03q.004-.032.002-.065v-.031q.005-.03.002-.063v-.03q.005-.032.003-.065v-.029q.004-.033.002-.065v-.03q.004-.032.002-.065v-.03q.005-.032.002-.065v-.024a.3.3 0 0 0 .003-.068v-.027l.002-.065v-.027q.005-.033.002-.066v-.029q.005-.032.003-.065v-.025c0-.023.004-.045.002-.067v-.025c0-.023.004-.045.002-.068v-.025q.005-.033.002-.067v-.03q.005-.032.003-.065v-.025c0-.022.004-.045.002-.067v-.025c0-.023.004-.045.002-.068zm3.269.432v.02q0 .036.004.068v.02q0 .034.005.068v.02q0 .035.004.068v.02q0 .036.005.072v.016q0 .038.004.072v.016q0 .036.005.07v.018q0 .035.004.067v.018l.197 3.882.02.38q.032.69.068 1.381.02.382.038.766.016.35.036.7a2.28 2.28 0 0 0 1.428 2.037 2.25 2.25 0 0 0 2.375-.424c.664-.597.924-1.486.678-2.32q-.46-1.978-.924-3.953l-.689-2.944-.02-.086-.02-.086-.02-.083-.02-.086-.021-.087-.02-.086-.02-.083-.021-.088-.02-.086-.02-.085-.021-.086-.02-.086-.02-.085-.021-.083-.02-.088-.02-.086-.021-.085-.02-.086-.02-.086-.021-.085-.02-.086-.02-.086-.021-.085-.02-.086-.02-.085-.021-.086-.04-.171-.021-.086-.02-.085-.02-.086-.041-.171-.02-.086-.021-.085-.04-.172-.02-.085-.042-.171-.02-.086-.02-.085-.02-.086-.02-.086-.021-.085-.02-.086-.02-.086-.021-.085-.02-.086-.02-.085-.021-.086-.02-.085-.02-.086-.042-.171-.02-.086-.02-.085-.02-.086-.02-.086-.021-.085-.02-.086-.02-.086-.021-.085-.02-.086-.02-.085-.021-.086-.02-.085-.02-.086-.021-.086-.02-.085-.02-.086-.021-.086-.02-.085-.02-.086-.021-.085q-.008-.047-.02-.086l-.02-.086-.021-.085c-.007-.032-.011-.059-.02-.086l-.02-.085-.02-.086c-.008-.031-.012-.058-.021-.085l-.02-.086-.02-.086c-.008-.031-.012-.058-.021-.085l-.02-.086-.02-.086c-.008-.031-.012-.058-.021-.085l-.02-.086-.02-.085c-.008-.032-.012-.059-.021-.086l-.02-.085-.02-.086c-.008-.032-.012-.059-.021-.086l-.02-.085-.02-.086c-.008-.031-.012-.058-.021-.086l-.02-.085-.02-.086c-.008-.031-.012-.058-.021-.085q-.009-.047-.02-.086l-.02-.085c-.008-.032-.012-.059-.021-.086q-.009-.047-.02-.086l-.02-.085c-.008-.032-.012-.059-.021-.086q-.009-.045-.02-.085l-.02-.086c-.008-.032-.012-.059-.021-.086q-.009-.045-.02-.085l-.02-.086c-.008-.031-.012-.058-.021-.085-.007-.032-.011-.059-.02-.086l-.02-.086c-.008-.031-.012-.058-.021-.085q-.009-.047-.02-.086l-.02-.085q-.009-.047-.021-.086a.69.69 0 0 0-.795-.577.693.693 0 0 0-.603.775q-.001.047.005.086-.001.046.004.088-.001.046.005.088-.001.047.004.087-.001.046.005.088-.001.046.004.088-.001.046.005.088-.001.045.004.088-.001.045.005.088-.001.045.004.087-.001.046.005.088-.001.046.004.088-.001.046.005.088-.001.046.004.088-.001.045.005.088-.001.045.004.088-.001.045.005.087-.001.046.004.088-.001.046.005.088-.001.046.004.088-.001.046.005.088-.001.045.004.088-.001.045.005.087-.001.047.005.086-.001.046.004.088-.001.046.005.088-.001.045.004.088-.001.045.005.087-.001.047.004.088-.001.047.005.086-.001.045.004.088-.001.045.005.088-.001.045.004.088-.001.045.005.087-.001.046.004.088-.001.046.005.088-.001.046.004.088-.001.046.005.088-.001.045.004.088-.001.045.005.087-.001.047.004.088-.001.046.005.088-.001.046.004.088-.001.046.005.088-.001.045.004.088-.001.045.005.088-.001.045.004.087-.001.046.005.088-.001.046.004.088-.001.046.005.088-.001.046.004.088-.001.045.005.088-.001.045.004.088-.001.045.005.087-.001.046.005.088-.001.046.004.088-.001.046.005.088-.001.045.004.088-.001.045.005.088-.001.045.004.088-.001.045.005.087-.001.046.004.088 0 .046.005.088-.001.046.004.088-.001.046.005.088 0 .045.004.088 0 .045.005.087-.001.047.004.088-.001.046.005.088-.001.046.004.088-.001.046.005.088-.001.046.004.086-.001.045.005.087 0 .047.004.086.001.046.005.088-.001.045.004.085.001.046.005.088 0 .046.004.088.001.046.005.088 0 .046.004.088.001.045.005.088 0 .045.004.085.001.046.005.088 0 .046.005.088c0 .032.002.058.004.088q0 .045.005.088-.001.041.004.079v.009q0 .037.005.076v.011q0 .037.004.075v.009q0 .04.005.079v.009q0 .039.004.078v.01q0 .038.005.078v.01q0 .04.004.078v.011q0 .038.005.077v.011q0 .038.004.077v.011q0 .037.005.077v.009q0 .04.004.078v.01q0 .04.005.074v.013q0 .038.004.072v.016q0 .038.005.072v.016q0 .038.004.072v.016q.001.036.005.072v.016q0 .038.004.072v.016q.001.037.005.072v.016q0 .037.004.072v.015q.001.038.005.072v.016q0 .038.004.072v.016q.001.036.005.07v.018q0 .037.004.067v.018q.001.035.005.068v.018q0 .035.004.068v.02q.001.036.005.067zm11.901 2.406-1.908-3.537-1.657-3.072-.037-.068q-.016-.037-.036-.067c-.01-.025-.025-.048-.036-.068q-.018-.037-.036-.067-.018-.038-.036-.068-.018-.037-.036-.068l-.036-.067q-.019-.038-.037-.068-.017-.035-.036-.067-.016-.038-.036-.068-.018-.037-.036-.068-.018-.037-.036-.067-.018-.037-.036-.068-.018-.037-.036-.067l-.036-.068-.036-.067q-.019-.038-.037-.068-.017-.037-.036-.068-.018-.036-.036-.067-.018-.037-.036-.068-.018-.036-.036-.067-.018-.038-.036-.068l-.036-.067q-.018-.038-.037-.068-.016-.037-.036-.068-.018-.037-.036-.067-.018-.037-.036-.068-.018-.037-.036-.067-.018-.038-.036-.068l-.036-.068q-.019-.037-.037-.067-.017-.037-.036-.068-.017-.036-.036-.067-.018-.037-.036-.068-.018-.037-.036-.067-.018-.038-.036-.068-.018-.037-.036-.068-.018-.036-.037-.067-.017-.037-.036-.068-.017-.036-.036-.067-.018-.038-.036-.068-.018-.037-.036-.067-.018-.038-.036-.068-.018-.037-.036-.068l-.036-.067q-.018-.037-.037-.068-.017-.037-.036-.067-.017-.038-.036-.068-.018-.037-.036-.068-.018-.036-.036-.067-.018-.037-.036-.068l-.036-.067q-.018-.037-.037-.068-.017-.037-.036-.067-.017-.038-.036-.068-.018-.037-.036-.067-.018-.038-.036-.068-.018-.037-.036-.068l-.036-.067-.037-.068q-.017-.037-.036-.067-.017-.038-.036-.068l-.036-.067q-.018-.038-.036-.068-.018-.037-.036-.068-.018-.037-.036-.067l-.036-.068q-.018-.037-.037-.067-.017-.038-.036-.068-.017-.037-.036-.068-.018-.037-.036-.067-.018-.037-.036-.068-.018-.037-.036-.067-.018-.038-.036-.068-.019-.037-.037-.067-.017-.038-.036-.068-.017-.037-.036-.068-.018-.036-.036-.067-.018-.037-.036-.068-.018-.037-.036-.067-.018-.038-.036-.068l-.036-.067q-.018-.038-.037-.068-.017-.037-.036-.068-.017-.037-.036-.067-.018-.038-.036-.068-.018-.037-.036-.067-.018-.038-.036-.068l-.036-.068q-.019-.037-.037-.067-.017-.037-.036-.068-.017-.036-.036-.067-.018-.038-.036-.068-.018-.037-.036-.067-.018-.038-.036-.068l-.036-.068-.036-.067q-.018-.037-.037-.068-.017-.037-.036-.067-.018-.038-.036-.068-.018-.037-.036-.068-.018-.037-.036-.067a.69.69 0 0 0-.628-.406.7.7 0 0 0-.287.059.69.69 0 0 0-.386.894q.01.04.023.072.01.039.022.075l.023.074.022.074.023.075q.011.04.023.074.01.04.022.074l.023.075q.01.04.022.074l.023.074.023.075q.01.04.022.074l.023.074q.01.039.022.075.011.04.023.074l.022.074.023.075q.011.04.023.074.01.04.022.074l.023.075q.01.04.022.074.011.04.023.074l.023.075q.01.04.022.074l.023.074q.01.039.022.075.011.04.023.074l.022.074c.007.028.016.05.023.075q.011.04.023.074.01.04.022.074c.007.028.016.05.023.075l.022.074.023.075.023.074q.01.04.022.074l.023.075q.01.038.022.074.011.04.023.074l.022.075.023.074q.011.04.023.074.01.04.022.074l.023.075.022.074.023.075.023.074q.01.04.022.074l.023.075.022.074q.011.04.023.074l.022.075.023.074.023.074q.01.039.022.075l.023.074.022.074.023.075.022.074.023.074.023.075q.01.04.022.074.011.04.023.074l.022.074c.007.028.016.05.023.075l.023.074q.01.039.022.075l.023.074.022.074.023.075q.011.04.023.074.01.04.022.074l.023.075q.01.04.022.074.011.04.023.074l.022.075.023.074.023.074q.01.039.022.075.011.04.023.074l.022.074.023.075q.011.04.023.074.01.04.022.074l.023.075.022.074.023.074.023.075q.01.04.022.074l.023.074q.01.039.022.075.011.04.023.074l.022.074.023.075.023.074q.01.04.022.074l.023.075q.01.04.022.074l.023.074.023.075q.01.04.022.074l.926 2.89 1.08 3.374q.07.212.13.422c.26.851.484 1.585 1.45 1.982 1.06.417 1.952-.038 2.433-.604a2.12 2.12 0 0 0 .205-2.498zm4.888-6.334-.404-.424-5.192-5.422-.007-.009a.3.3 0 0 0-.038-.038l-.046-.047c-.018-.019-.029-.034-.045-.048l-.045-.047c-.018-.018-.03-.034-.045-.047l-.045-.048-.045-.047-.046-.047-.045-.048-.045-.047-.045-.047-.045-.047-.045-.048q-.023-.025-.046-.047-.022-.026-.045-.047c-.018-.018-.03-.034-.045-.048l-.045-.047c-.018-.018-.03-.034-.045-.047l-.045-.048-.046-.047c-.018-.018-.029-.034-.045-.047l-.045-.047-.045-.048-.045-.047-.045-.047-.046-.048q-.022-.025-.045-.047l-.045-.047-.045-.048-.045-.047-.045-.047-.046-.048q-.022-.025-.045-.047l-.045-.047-.045-.047-.045-.048c-.016-.018-.03-.031-.046-.047q-.022-.026-.045-.047L34 48.897l-.045-.047-.045-.047-.045-.048-.046-.047-.045-.047-.045-.047c-.016-.019-.03-.032-.045-.048l-.045-.047-.045-.047c-.016-.019-.03-.032-.046-.048q-.022-.025-.045-.047-.023-.026-.045-.047l-.045-.048-.045-.047-.045-.047-.045-.048q-.023-.025-.046-.047l-.045-.047-.045-.047c-.016-.019-.03-.032-.045-.048l-.045-.047-.045-.047-.046-.048c-.015-.018-.029-.031-.045-.047l-.045-.047-.045-.048-.045-.047-.045-.047q-.023-.026-.046-.047l-.045-.048-.045-.047q-.023-.027-.045-.047c-.016-.019-.03-.032-.045-.048l-.045-.047q-.023-.027-.046-.047-.023-.026-.045-.048a.7.7 0 0 0-.524-.245c-.165 0-.32.06-.443.157a.69.69 0 0 0-.144.956q.017.03.034.054.017.03.034.054.016.03.034.054a1 1 0 0 0 .067.11l.034.054q.017.03.034.054.017.03.034.054a1 1 0 0 0 .068.11q.016.031.034.055.015.03.034.054.016.03.033.054l.034.054.034.054q.017.03.034.054.017.03.034.054.017.03.034.054l.034.054q.015.03.034.054.016.03.033.054l.034.054.034.054q.017.03.034.055.017.03.034.054.017.03.034.054.016.03.034.054.015.03.034.054.016.03.033.054l.034.056.034.054a1 1 0 0 0 .068.11q.017.03.034.055a1 1 0 0 0 .068.11q.016.03.033.054l.034.054.034.054q.017.03.034.054.017.03.034.054.017.03.034.054l.034.054q.016.03.034.057.016.03.033.054l.034.054.034.054.034.054.034.056.034.055q.016.03.034.053l.034.055a1 1 0 0 0 .067.11l.034.054.034.054.034.054.005.01.029.047.004.008q.013.024.03.048.018.032.034.054l.004.009q.013.023.03.047l.033.056.034.055q.017.03.034.054l.034.054.004.009.03.047.004.009q.014.024.03.047l.004.01.03.047.033.054.007.01.027.044.005.009q.013.023.03.047l.004.01q.013.022.03.046.018.033.033.054l.007.012.027.042.009.014q.012.02.027.04l.005.01q.012.023.029.047l3.45 5.44.662 1.043c.247.426.574.89 1.148 1.108 1.133.437 2.012-.14 2.423-.766.443-.678.533-1.718-.267-2.516zm-7.326-12.074a.687.687 0 0 0 .09.944l.036.033.039.036q.019.02.038.036l.036.036.039.037.038.036.039.036.038.036.036.036.034.031.04.038.037.037.038.036.039.036.038.036.038.036q.018.016.032.031l.007.007.036.034.038.036.039.036.031.031c.018.019.03.028.04.039l.042.038q.016.015.031.032c.018.018.03.027.04.038l.04.036.04.038q.017.015.032.032l.04.038.04.038q.018.016.032.032l.039.036c.018.018.03.027.04.038l.039.036c.013.014.022.02.032.03l.008.008.034.032.041.038c.011.012.02.018.03.027l.008.01s.02.02.032.029c.018.018.03.027.04.038l.04.036.03.03.008.006q1.284 1.213 2.572 2.426l.707.667 1.547 1.46.278.26.596.562c.235.227.474.464.813.592 1.147.421 2.023-.171 2.382-.946.348-.75.244-1.829-.813-2.426l-1.998-1.18-4.955-2.924-.012-.007s-.02-.011-.029-.018l-.013-.009-.03-.018-.013-.009-.03-.018-.018-.011s-.018-.012-.027-.016l-.018-.011s-.018-.012-.027-.016l-.018-.011s-.018-.012-.027-.016l-.018-.011s-.018-.012-.027-.016l-.018-.011-.028-.016-.013-.01s-.02-.01-.03-.017l-.018-.011s-.018-.012-.027-.016l-.015-.01-.028-.015-.013-.009-.03-.018-.013-.01s-.02-.01-.03-.017l-.013-.01s-.02-.013-.032-.017l-.013-.01s-.02-.013-.032-.017l-.013-.01s-.02-.013-.032-.017l-.014-.01s-.02-.013-.031-.017l-.014-.01s-.02-.013-.031-.017l-.014-.01s-.02-.013-.031-.017l-.014-.01s-.02-.013-.032-.017l-.013-.01s-.02-.013-.032-.017l-.013-.01s-.02-.013-.032-.017l-.014-.01s-.02-.013-.031-.017l-.014-.01s-.02-.013-.031-.017l-.014-.01s-.02-.01-.03-.017l-.01-.007s-.023-.014-.034-.018l-.045-.027-.012-.007s-.02-.013-.031-.018l-.012-.007s-.02-.013-.031-.018l-.012-.007s-.02-.013-.031-.018l-.011-.006-.034-.02-.014-.007s-.02-.014-.032-.018l-.01-.007s-.021-.014-.032-.018l-.014-.007s-.02-.014-.032-.018l-.013-.009s-.02-.014-.032-.018l-.013-.007s-.02-.013-.032-.018l-.011-.007s-.02-.013-.032-.018l-.011-.006s-.02-.014-.032-.018l-.011-.007s-.02-.014-.032-.018l-.011-.007s-.02-.013-.032-.018l-.045-.027q-.026-.015-.043-.027a.76.76 0 0 0-.381-.11.69.69 0 0 0-.554.288zm1.82-3.217a.7.7 0 0 0 .332.89l.536.302 1.434.81 2.4 1.359 1.5.85q.183.098.36.204c.202.117.41.239.627.34 1.109.399 1.938-.216 2.238-.957.3-.739.131-1.755-.944-2.24a14 14 0 0 0-.93-.252 997 997 0 0 0-3.053-.782l-2.526-.646q-.445-.115-.89-.227-.111-.03-.223-.056a.7.7 0 0 0-.86.41zm.318-14.507a1.168 1.168 0 0 0-1.603-1.482 1.17 1.17 0 0 0-.614.746l-.172.543a.71.71 0 0 0 .393.912c.145.063.294.052.45.04l.456-.029a1.17 1.17 0 0 0 1.09-.732zm3.178 3.167a1.28 1.28 0 0 0-.447-1.54 1.284 1.284 0 0 0-1.606.05l-1.287 1.146a.71.71 0 0 0-.296.675c.032.26.195.47.434.564.147.063.291.054.452.038l1.483-.11c.58 0 1.066-.318 1.27-.825zm2.79 4.048a1.415 1.415 0 0 0-.34-1.574 1.44 1.44 0 0 0-1.004-.417c-.194 0-.393.04-.583.124l-3.028 1.14a.69.69 0 0 0-.44.65.69.69 0 0 0 .437.656c.1.043.204.05.312.059q.041.001.086.007l3.092.252a1.44 1.44 0 0 0 1.47-.899zm2.129 5.048c.21-.484.143-1.045-.18-1.502-.326-.457-.831-.71-1.362-.674l-.45.02-4.668.201h-.05c-.28 0-.602.117-.733.448a.703.703 0 0 0 .39.917c.167.054.341.104.508.153q.166.047.33.097l4.287 1.266c.79.237 1.619-.16 1.926-.923zM30.834 23.594a1.03 1.03 0 0 0 .569 1.338c.662.236 1.159-.129 1.337-.57.178-.442.079-1.05-.565-1.338a1.03 1.03 0 0 0-1.342.57m5.71-21.751a2.5 2.5 0 0 0-.95-.187c-.403 0-.805.094-1.175.286a2.55 2.55 0 0 0-1.333 1.69q-1.128 3.786-2.251 7.57l-.027.09a1 1 0 0 0-.028.093 1 1 0 0 0-.027.092 1 1 0 0 0-.027.092 1 1 0 0 0-.027.093 1 1 0 0 0-.027.092 1 1 0 0 0-.027.093 1 1 0 0 0-.027.092 1 1 0 0 0-.027.092 1 1 0 0 0-.027.092 1 1 0 0 0-.027.093 1 1 0 0 0-.028.092 1 1 0 0 0-.027.093 1 1 0 0 0-.027.092 1 1 0 0 0-.027.092 1 1 0 0 0-.027.093 1 1 0 0 0-.027.092 1 1 0 0 0-.027.092 1 1 0 0 0-.027.093 1 1 0 0 0-.027.092 1 1 0 0 0-.027.092 1 1 0 0 0-.028.093 1 1 0 0 0-.027.092 1 1 0 0 0-.027.092 1 1 0 0 0-.027.093 1 1 0 0 0-.027.092 1 1 0 0 0-.027.093 1 1 0 0 0-.027.092 1 1 0 0 0-.027.092 1 1 0 0 0-.027.093 1 1 0 0 0-.027.092 1 1 0 0 0-.028.092 1 1 0 0 0-.027.093 1 1 0 0 0-.027.092 1 1 0 0 0-.027.092 1 1 0 0 0-.027.093 1 1 0 0 0-.027.092 1 1 0 0 0-.027.092 1 1 0 0 0-.027.093 1 1 0 0 0-.027.092 1 1 0 0 0-.027.093 1 1 0 0 0-.028.092 1 1 0 0 0-.027.092 1 1 0 0 0-.027.093 1 1 0 0 0-.027.092 1 1 0 0 0-.027.092 1 1 0 0 0-.027.093 1 1 0 0 0-.027.092 1 1 0 0 0-.027.092 1 1 0 0 0-.027.093 1 1 0 0 0-.027.092 1 1 0 0 0-.028.093 1 1 0 0 0-.027.092 1 1 0 0 0-.027.092 1 1 0 0 0-.027.093 1 1 0 0 0-.027.092 1 1 0 0 0-.027.092 1 1 0 0 0-.027.093 1 1 0 0 0-.027.092 1 1 0 0 0-.027.092 1 1 0 0 0-.027.093q-.017.05-.028.092a1 1 0 0 0-.027.092 1 1 0 0 0-.027.093 1 1 0 0 0-.027.092 1 1 0 0 0-.027.093q-.017.049-.027.092a1 1 0 0 0-.027.092 1 1 0 0 0-.027.093 1 1 0 0 0-.027.092 1 1 0 0 0-.027.092 1 1 0 0 0-.028.093 1 1 0 0 0-.027.092 1 1 0 0 0-.027.092 1 1 0 0 0-.027.093 1 1 0 0 0-.027.092 1 1 0 0 0-.027.092 1 1 0 0 0-.027.093 1 1 0 0 0-.027.092 1 1 0 0 0-.027.093 1 1 0 0 0-.027.092 1 1 0 0 0-.028.092 1 1 0 0 0-.027.093 1 1 0 0 0-.027.092 1 1 0 0 0-.027.092 1 1 0 0 0-.027.093 1 1 0 0 0-.027.092 1 1 0 0 0-.027.092 1 1 0 0 0-.027.093 1 1 0 0 0-.027.092 1 1 0 0 0-.027.092 1 1 0 0 0-.028.093 1 1 0 0 0-.027.092 1 1 0 0 0-.027.092 1 1 0 0 0-.027.093 1 1 0 0 0-.027.092 1 1 0 0 0-.027.093 1 1 0 0 0-.027.092 1 1 0 0 0-.027.092 1 1 0 0 0-.027.093 1 1 0 0 0-.027.092q-.017.05-.028.092-.016.05-.027.093-.016.05-.027.092-.017.05-.027.092-.017.05-.027.093-.016.05-.027.092-.017.05-.027.092-.017.05-.027.093-.017.05-.027.092-.017.05-.028.093a1 1 0 0 0-.027.092q-.016.05-.027.092a1 1 0 0 0-.027.093q-.017.049-.027.092a1 1 0 0 0-.027.092q-.016.05-.027.093a.69.69 0 0 0 .397.896c.296.12.707.057.91-.367a1 1 0 0 0 .043-.083q.026-.045.045-.086a1 1 0 0 0 .046-.085 1 1 0 0 0 .045-.086 1 1 0 0 0 .045-.086 1 1 0 0 0 .045-.085 1 1 0 0 0 .045-.086 1 1 0 0 0 .046-.085 1 1 0 0 0 .045-.086 1 1 0 0 0 .045-.086 1 1 0 0 0 .045-.085 1 1 0 0 0 .045-.086 1 1 0 0 0 .045-.086 1 1 0 0 0 .046-.085 1 1 0 0 0 .045-.086 1 1 0 0 0 .045-.085 1 1 0 0 0 .045-.086 1 1 0 0 0 .045-.085 1 1 0 0 0 .045-.086 1 1 0 0 0 .046-.086 1 1 0 0 0 .045-.085 1 1 0 0 0 .045-.086 1 1 0 0 0 .045-.085 1 1 0 0 0 .045-.086 1 1 0 0 0 .045-.086 1 1 0 0 0 .046-.085 1 1 0 0 0 .045-.086l.045-.085a1 1 0 0 0 .045-.086 1 1 0 0 0 .045-.086q.025-.042.045-.085a1 1 0 0 0 .046-.086 1 1 0 0 0 .045-.085 1 1 0 0 0 .045-.086 1 1 0 0 0 .045-.086q.025-.043.045-.085a1 1 0 0 0 .045-.086l.046-.085.045-.086a1 1 0 0 0 .045-.086q.025-.043.045-.085.025-.044.045-.086a1 1 0 0 0 .045-.085 1 1 0 0 0 .046-.086l.045-.086a1 1 0 0 0 .045-.085c.016-.03.032-.056.045-.086q.025-.043.045-.085a1 1 0 0 0 .045-.086l.046-.086.045-.085c.016-.03.031-.056.045-.086q.025-.043.045-.085.025-.044.045-.086.025-.043.045-.086.024-.042.046-.085c.015-.03.031-.056.045-.086q.024-.043.045-.085.025-.044.045-.086.025-.043.045-.086l.046-.085.045-.086.045-.085.045-.086q.025-.043.045-.086.025-.043.045-.085.025-.044.045-.086l.046-.085.045-.086q.024-.043.045-.086.025-.043.045-.085.025-.043.045-.086l.046-.085.045-.086.045-.086q.024-.043.045-.085c.016-.03.032-.056.045-.086q.025-.043.045-.085.025-.044.045-.086l.046-.086.045-.085q.024-.043.045-.086.025-.043.045-.085.025-.044.045-.086c.016-.03.032-.056.045-.086q.024-.042.046-.085l.045-.086q.024-.043.045-.085.025-.044.045-.086c.016-.03.032-.056.045-.086q.025-.042.045-.085l.046-.086.045-.085.045-.086q.025-.043.045-.086.025-.043.045-.085.025-.043.045-.086l.046-.085.045-.086q.025-.043.045-.086.025-.042.045-.085.025-.043.045-.086l.045-.085.046-.086.045-.086q.025-.042.045-.085.025-.043.045-.086l.045-.085.046-.086.045-.086.045-.085q.025-.043.045-.086l.045-.085q.025-.044.045-.086l.046-.086.045-.085q.024-.043.045-.086l.763-1.462 1.2-2.3c.239-.464.485-.934.724-1.39.38-.72.773-1.468 1.139-2.212a2.54 2.54 0 0 0-.019-1.953 2.54 2.54 0 0 0-1.397-1.371zM24.11 12.01v.026c0 .022-.004.045-.002.067v.025c0 .023-.005.045-.002.068v.024c0 .023-.005.045-.003.068v.02c0 .025-.004.05-.002.072v.02c0 .025-.005.048-.002.073v.022c0 .025-.005.048-.003.072v.025c0 .023-.004.045-.002.068v.02c0 .025-.004.05-.002.072v.02c0 .025-.005.048-.002.072v.02c0 .025-.005.05-.003.073v.02c0 .025-.004.047-.002.072v.018c0 .025-.004.052-.002.077v.02l-.002.074v.02c0 .025-.005.048-.003.073v.015c0 .025-.004.052-.002.077v.016c0 .025-.004.052-.002.076v.016c0 .025-.005.052-.002.077v.018c0 .024-.005.052-.003.076v.016c0 .025-.004.052-.002.077v.015c0 .025-.004.052-.002.077v.016c0 .025-.005.052-.002.076v.016c0 .025-.005.052-.003.077v.011c0 .027-.004.056-.002.083v.012c0 .027-.004.056-.002.083v.016c0 .024-.005.052-.002.076v.016c0 .025-.005.052-.003.077v.011c0 .027-.004.056-.002.083v.012c0 .027-.004.056-.002.083v.011c0 .027-.005.056-.002.084 0 .033-.005.063-.003.094v.01c0 .026-.004.056-.002.082v.01c0 .026-.004.056-.002.083 0 .034-.005.063-.002.095 0 .033-.005.063-.003.094 0 .034-.004.063-.002.095 0 .034-.005.063-.002.094 0 .034-.005.063-.003.095 0 .034-.004.063-.002.095 0 .033-.004.063-.002.094 0 .034-.005.063-.002.095 0 .034-.005.063-.003.094 0 .034-.004.063-.002.095 0 .034-.004.063-.002.094 0 .034-.005.064-.002.095 0 .034-.005.063-.002.095 0 .034-.005.063-.003.094 0 .034-.004.063-.002.095 0 .034-.005.063-.002.095 0 .033-.005.063-.003.094 0 .034-.004.063-.002.095 0 .034-.004.063-.002.094 0 .034-.005.063-.002.095 0 .034-.005.063-.003.095 0 .033-.004.063-.002.094 0 .034-.004.063-.002.095 0 .034-.005.063-.002.095 0 .033-.005.063-.003.094 0 .034-.004.063-.002.095 0 .034-.004.063-.002.094 0 .034-.005.063-.002.095q-.005.049-.003.095c0 .033-.004.063-.002.094q-.005.049-.002.095-.005.05-.003.094c-.002.034-.004.063-.002.095q-.004.049-.002.095-.005.048-.002.094-.005.049-.003.095-.004.05-.002.094-.004.049-.002.095-.005.049-.002.095-.005.048-.002.094-.005.049-.003.095-.004.05-.002.094-.005.05-.002.095-.005.049-.003.095-.004.048-.002.094-.004.049-.002.095-.005.049-.002.095-.005.048-.003.094-.004.049-.002.095-.004.05-.002.094-.005.049-.002.095-.005.049-.003.095-.004.048-.002.094-.004.049-.002.095-.005.05-.002.094-.005.051-.003.095-.004.05-.002.095-.004.05-.002.094-.005.051-.002.095-.005.05-.003.094-.004.051-.002.095-.005.05-.002.095-.005.05-.003.094-.004.051-.002.095-.004.05-.002.095-.004.05-.002.094a.687.687 0 0 0 .535.75.69.69 0 0 0 .865-.572 1 1 0 0 0 .02-.092 1 1 0 0 0 .02-.093 1 1 0 0 0 .02-.092 1 1 0 0 0 .021-.092 1 1 0 0 0 .02-.093 1 1 0 0 0 .02-.092 1 1 0 0 0 .021-.092 1 1 0 0 0 .02-.093 1 1 0 0 0 .02-.092 1 1 0 0 0 .021-.092 1 1 0 0 0 .02-.093 1 1 0 0 0 .02-.092 1 1 0 0 0 .021-.093 1 1 0 0 0 .02-.092 1 1 0 0 0 .02-.092 1 1 0 0 0 .021-.093 1 1 0 0 0 .02-.092 1 1 0 0 0 .02-.092 1 1 0 0 0 .021-.093 1 1 0 0 0 .02-.092 1 1 0 0 0 .02-.093 1 1 0 0 0 .021-.092 1 1 0 0 0 .02-.092 1 1 0 0 0 .02-.092 1 1 0 0 0 .021-.093 1 1 0 0 0 .02-.092 1 1 0 0 0 .02-.093 1 1 0 0 0 .021-.092 1 1 0 0 0 .02-.092 1 1 0 0 0 .02-.093 1 1 0 0 0 .021-.092 1 1 0 0 0 .02-.092 1 1 0 0 0 .02-.093 1 1 0 0 0 .021-.092 1 1 0 0 0 .02-.093 1 1 0 0 0 .02-.092 1 1 0 0 0 .021-.092 1 1 0 0 0 .02-.093 1 1 0 0 0 .02-.092 1 1 0 0 0 .021-.092 1 1 0 0 0 .02-.093 1 1 0 0 0 .02-.092 1 1 0 0 0 .021-.092 1 1 0 0 0 .02-.093 1 1 0 0 0 .02-.092 1 1 0 0 0 .02-.092 1 1 0 0 0 .021-.093 1 1 0 0 0 .02-.092 1 1 0 0 0 .02-.093 1 1 0 0 0 .021-.092 1 1 0 0 0 .02-.092 1 1 0 0 0 .02-.093 1 1 0 0 0 .021-.092 1 1 0 0 0 .02-.092 1 1 0 0 0 .02-.093 1 1 0 0 0 .021-.092 1 1 0 0 0 .02-.092 1 1 0 0 0 .02-.093 1 1 0 0 0 .021-.092 1 1 0 0 0 .02-.092 1 1 0 0 0 .02-.093 1 1 0 0 0 .021-.092 1 1 0 0 0 .02-.093q.012-.047.02-.092.014-.048.021-.092a1 1 0 0 0 .02-.092 1 1 0 0 0 .02-.093q.013-.048.021-.092.012-.048.02-.093.012-.047.02-.092.014-.047.021-.092.012-.048.02-.093.012-.048.02-.092.014-.048.021-.092.012-.048.02-.093.012-.048.02-.092.013-.048.021-.092.012-.049.02-.093.012-.048.02-.092.014-.048.021-.092a1 1 0 0 0 .02-.093q.012-.047.02-.092c.007-.032.017-.063.021-.093q.012-.047.02-.092.012-.048.02-.092.015-.053.021-.093.014-.053.02-.092a1 1 0 0 0 .02-.092 1 1 0 0 0 .021-.093c.009-.036.016-.063.02-.092q.015-.053.02-.092.015-.054.02-.093a1 1 0 0 0 .021-.092 1 1 0 0 0 .02-.092 1 1 0 0 0 .02-.093l.005-.016.016-.076v-.014l.02-.079v-.013l.02-.079a1 1 0 0 0 .021-.092 1 1 0 0 0 .02-.093v-.01l.02-.08.005-.016q.01-.037.016-.076l.005-.016q.009-.039.015-.077l.005-.015q.01-.038.016-.077v-.011l.02-.081.005-.018.015-.075.005-.018q.01-.037.016-.074l.004-.016.016-.076.005-.016.015-.077.005-.015q.01-.038.016-.077l.004-.02.016-.072.005-.016.015-.077.005-.016.016-.076.004-.018q.01-.038.016-.074l.005-.016.015-.077.005-.015q.01-.038.016-.077l.004-.02.016-.072.005-.02.015-.073.005-.018q.007-.038.016-.072l.004-.018.016-.072.005-.018.015-.072.005-.025q.008-.033.013-.068l.005-.02.016-.072.51-2.356 1.016-4.69A2.43 2.43 0 0 0 27.863.21a2.3 2.3 0 0 0-.89-.18 2.45 2.45 0 0 0-1.35.414c-.689.455-1.095 1.194-1.09 1.975q-.078 2.386-.152 4.771L24.3 9.727v.097a.3.3 0 0 0-.003.063v.031q-.004.03-.002.063v.032a.3.3 0 0 0-.002.063v.03q-.005.032-.002.065v.029q-.005.032-.003.065v.03q-.004.032-.002.065v.031q-.004.03-.002.063v.03q-.005.032-.002.065v.03q-.005.032-.003.065v.029q-.004.033-.002.065v.03q-.004.032-.002.065v.03q-.005.032-.002.064v.027q-.005.033-.003.066v.029q-.004.033-.002.065v.03q-.004.032-.002.065v.025c0 .022-.005.045-.002.067v.025c0 .023-.005.045-.003.068v.027a.3.3 0 0 0-.002.067v.027q-.004.033-.002.066v.029q-.005.033-.002.065v.025c0 .023-.005.045-.003.068v.024c0 .023-.004.046-.002.068v.025c0 .022-.004.045-.002.067v.027q-.005.034-.002.068zm-3.262-.46q0-.038-.002-.07v-.019l-.004-.067v-.018q-.001-.036-.005-.068v-.02q0-.035-.005-.068v-.02q0-.035-.004-.068v-.02l-.005-.068v-.02q0-.034-.004-.067v-.02q0-.035-.005-.068v-.02l-.286-5.661-.039-.748-.036-.7a2.28 2.28 0 0 0-1.427-2.037 2.3 2.3 0 0 0-.852-.169 2.28 2.28 0 0 0-1.524.595c-.664.597-.924 1.486-.678 2.32l.91 3.897.703 3 .02.086.02.086.02.085q.012.043.021.086l.02.085.02.086.021.086.04.168a3 3 0 0 0 .041.174l.02.086.021.083a3 3 0 0 0 .04.173l.041.172.02.085.021.086.02.085.02.086.021.086.02.085.02.086.021.085.02.086.02.086.021.085.02.086.02.085.021.086.02.086.02.085.021.086.02.085.02.086.021.085.02.086.02.086.021.085.02.086.02.085.041.172.04.17.021.087.04.17.021.086.02.086.02.085.021.086.02.086.041.17.02.087.02.085.021.086.04.17.021.087.02.085.02.086.021.085.02.086.041.171.02.086.02.085.021.086.02.085.02.086.021.086.02.085.02.086.021.085.02.086.02.086.021.085q.009.047.02.086l.02.085q.009.047.021.086.009.047.02.086l.02.085q.009.047.021.086.009.046.02.086l.02.085.02.086c.008.031.012.058.021.085l.02.086.02.085c.008.032.012.06.021.086q.009.047.02.086l.02.085c.008.032.012.059.021.086.007.031.011.058.02.085l.02.086c.008.032.012.059.021.086q.009.046.02.085l.02.086c.008.031.012.058.021.085.007.032.011.059.02.086l.02.086c.008.031.012.058.021.085.007.032.011.059.02.086l.02.085c.008.032.012.059.021.086.007.032.011.059.02.086l.02.085c.008.032.012.059.021.086.007.031.011.058.02.085l.02.086c.008.032.012.059.021.086.007.031.011.058.02.085l.02.086c.008.031.012.058.021.085.007.032.011.059.02.086.095.46.477.62.795.575a.693.693 0 0 0 .603-.775q.001-.047-.004-.086.001-.047-.005-.088.001-.046-.004-.088.001-.045-.005-.088.001-.046-.004-.087.001-.048-.005-.088.001-.046-.004-.088.001-.046-.005-.088.001-.045-.004-.088.001-.045-.005-.088.001-.045-.004-.088.001-.045-.005-.087.001-.046-.004-.088.001-.046-.005-.088.001-.046-.004-.088.001-.046-.005-.088.001-.045-.005-.088.001-.045-.004-.087.001-.047-.005-.088.001-.046-.004-.088.001-.046-.005-.088.001-.046-.004-.088.001-.045-.005-.088.001-.045-.004-.088.001-.045-.005-.088.001-.045-.004-.087.001-.046-.005-.088.001-.046-.004-.088.001-.046-.005-.088.001-.045-.004-.088.001-.045-.005-.088.001-.045-.004-.087.001-.046-.005-.088.001-.046-.004-.088.001-.046-.005-.088c0-.032 0-.058-.004-.088q.001-.045-.005-.088.001-.045-.004-.088.001-.045-.005-.087.001-.046-.004-.088.001-.046-.005-.088.001-.046-.004-.088.001-.046-.005-.088.001-.045-.004-.088.001-.045-.005-.087.001-.047-.004-.088.001-.046-.005-.088.001-.046-.005-.088.001-.046-.004-.088.001-.045-.005-.088.001-.045-.004-.088.001-.045-.005-.087.001-.046-.004-.088.001-.046-.005-.088.001-.046-.004-.088.001-.046-.005-.088.001-.045-.004-.088.001-.045-.005-.088.001-.045-.004-.087.001-.046-.005-.088 0-.046-.004-.088.001-.047-.005-.086.001-.045-.004-.088.001-.046-.005-.085 0-.046-.004-.088-.001-.046-.005-.088 0-.045-.004-.088-.001-.045-.005-.088 0-.045-.004-.087-.001-.046-.005-.088 0-.046-.004-.088-.001-.046-.005-.088l-.004-.086q-.001-.045-.005-.087 0-.046-.004-.088-.001-.046-.005-.088 0-.046-.005-.088.001-.044-.004-.083l-.005-.088c0-.032 0-.056-.004-.084v-.01q0-.038-.005-.077v-.01q0-.038-.004-.078v-.01l-.005-.078v-.011l-.004-.077v-.011l-.005-.075v-.008c0-.028-.002-.052-.004-.08v-.008q0-.04-.005-.08v-.008q0-.04-.004-.08v-.008l-.005-.079v-.011l-.004-.074v-.012l-.005-.072v-.013q0-.037-.004-.072v-.016l-.005-.072v-.016l-.004-.072v-.016q-.001-.04-.005-.079v-.009q0-.04-.004-.079v-.009l-.005-.079v-.01l-.004-.077v-.012l-.005-.076v-.011q0-.037-.004-.077v-.01q-.001-.038-.005-.073v-.014q0-.04-.004-.074v-.014l-.005-.072v-.016l-.004-.072v-.015l-.005-.073v-.015l-.005-.072v-.016l-.004-.072v-.016l-.005-.072v-.016l-.004-.072v-.016l-.005-.072v-.016l-.004-.072v-.015zm-3.322 10.463c-.007-.028-.016-.05-.023-.075l-.023-.074q-.01-.04-.022-.075l-.023-.074q-.01-.04-.022-.074l-.023-.075-.022-.074-.023-.074-.023-.075q-.01-.04-.022-.074l-.023-.074-.022-.075q-.011-.04-.023-.074l-.023-.074q-.01-.039-.022-.075-.011-.04-.023-.074l-.022-.074-.023-.075-.022-.074-.023-.074-.023-.075q-.01-.04-.022-.074l-.023-.074c-.006-.027-.016-.05-.022-.075q-.011-.04-.023-.074l-.022-.074-.023-.075q-.011-.04-.023-.074-.01-.04-.022-.074l-.023-.075-.022-.074q-.011-.04-.023-.074l-.023-.075q-.01-.04-.022-.074l-.023-.074-.022-.075-.023-.074q-.011-.04-.023-.074-.01-.039-.022-.075-.011-.04-.023-.074-.01-.04-.022-.074l-.023-.075-.022-.074q-.011-.04-.023-.074l-.023-.075q-.01-.04-.022-.074l-.023-.074-.022-.075-.023-.074q-.011-.04-.023-.074-.01-.039-.022-.075-.011-.04-.023-.074-.01-.04-.022-.074l-.023-.075-.022-.074q-.011-.04-.023-.074l-.023-.075q-.01-.04-.022-.074-.011-.04-.023-.074l-.022-.075q-.011-.04-.023-.074-.011-.04-.023-.074-.01-.039-.022-.075l-.023-.074q-.01-.04-.022-.074l-.023-.075-.022-.074-.023-.074-.023-.075q-.01-.04-.022-.074l-.023-.074-.022-.075-.023-.074-.023-.074q-.01-.039-.022-.075-.011-.04-.023-.074-.01-.04-.022-.074l-.023-.075-.022-.074q-.011-.04-.023-.074l-.023-.075q-.01-.04-.022-.074l-.023-.074-.022-.075q-.011-.04-.023-.074l-.022-.074-.023-.075q-.011-.04-.023-.074l-.022-.074-.023-.075q-.011-.04-.023-.074-.01-.04-.022-.074l-.023-.075q-.01-.04-.022-.074l-.023-.074-.022-.075q-.011-.04-.023-.074l-.023-.075q-.01-.038-.022-.074-.011-.04-.023-.074-.01-.039-.022-.075l-.924-2.883-1.06-3.309q-.07-.212-.13-.421c-.26-.852-.481-1.586-1.45-1.985a2.2 2.2 0 0 0-.822-.162c-.691 0-1.26.354-1.61.766a2.12 2.12 0 0 0-.206 2.498l1.942 3.602 1.624 3.01q.016.034.036.067l.036.068q.018.037.037.067.016.038.036.068.017.037.036.067.018.038.036.068.018.037.036.068.018.037.036.067.018.037.036.068.018.037.037.067.016.038.036.068.017.037.036.067.018.038.036.068.018.037.036.068.018.037.036.067.018.037.036.068l.036.067q.019.038.037.068.017.037.036.068.017.037.036.067.018.037.036.068.018.037.036.067.018.038.036.068.018.037.036.067l.036.068q.018.037.037.068.016.037.036.067.018.037.036.068.018.037.036.067.018.038.036.068.018.037.036.068l.036.067.037.068q.016.037.036.067.018.037.036.068.018.037.036.067.018.038.036.068.018.037.036.067.018.038.036.068l.037.068q.017.037.036.067c.01.025.025.048.036.068q.018.037.036.067.018.038.036.068.018.037.036.068.018.037.036.067l.036.068q.019.037.037.067.016.038.036.068.018.037.036.067.018.038.036.068.018.037.036.068.018.037.036.067l.036.068q.018.037.037.067.017.038.036.068.018.037.036.067.018.038.036.068.018.037.036.068.018.037.036.067l.036.068q.019.037.037.067.017.038.036.068c.01.025.025.047.036.068q.018.037.036.067.018.037.036.068.018.037.036.067.018.038.036.068l.036.067q.018.038.037.068.017.037.036.068.017.037.036.067.018.037.036.068.018.037.036.067.018.038.036.068.018.037.036.068.018.037.037.067.016.037.036.068.016.037.036.067.018.038.036.068.018.037.036.067.018.038.036.068l.036.068.036.067.037.068q.016.037.036.067.017.038.036.068.018.037.036.067.018.038.036.068.018.037.036.068.018.037.036.067.019.038.037.068.016.037.036.067.016.038.036.068.018.037.036.067.018.038.036.068.018.037.036.068.018.037.036.067.018.037.037.068.017.037.036.067.017.038.036.068.018.037.036.067c.21.415.62.471.914.347a.69.69 0 0 0 .387-.894l-.023-.072zm-3.44 1.829-.034-.054-.034-.055-.034-.056-.034-.054-.034-.054-.034-.054-.034-.054-.034-.054-.033-.054-.034-.057-.034-.054-.034-.054-.034-.054-.036-.056-.034-.054-.034-.054-.034-.054-.034-.054-.033-.054-.034-.054-.034-.055-.034-.054-.034-.056-.034-.054-.034-.054-.034-.054-.033-.054-.034-.054-.034-.054-.034-.054-.034-.054a1 1 0 0 0-.068-.11l-.034-.055-.033-.054-.034-.054-.034-.054-.034-.054-.034-.054-.034-.054-.034-.056-.034-.055-.033-.054-.034-.054-.034-.054-.036-.056-.034-.054-.034-.054-.034-.054a1 1 0 0 0-.068-.11l-.034-.055-.034-.054-.006-.011-.027-.043-.005-.009q-.013-.023-.03-.047l-.033-.054-.034-.054-.034-.054q-.016-.03-.034-.057l-.034-.054-.034-.054-.006-.011-.027-.043-.007-.011-.027-.043-.005-.009q-.013-.023-.03-.047l-.004-.01-.029-.047-.007-.01-.027-.044-.007-.01-.027-.044-.004-.009-.03-.047-.034-.054-.033-.054-.007-.011-.027-.043-.005-.01q-.013-.022-.03-.046l-.004-.01-.029-.047-.005-.009-.029-.047-.007-.011-.027-.043-3.45-5.442q-.332-.521-.662-1.043c-.246-.426-.574-.89-1.148-1.109a2.2 2.2 0 0 0-.781-.153c-.754 0-1.332.446-1.642.92-.442.677-.533 1.718.267 2.515l.508.532 4.998 5.221.009.01.034.036.045.047c.018.018.03.034.045.047l.009.011.034.037.045.047.045.047.045.047c.018.018.03.034.045.048l.007.009a.3.3 0 0 0 .039.038l.045.047c.018.018.03.034.045.048l.045.047c.018.018.03.034.045.047q.023.026.046.047c.015.019.029.032.045.048l.045.047.007.007a.3.3 0 0 0 .038.038l.045.047.045.048.045.047.046.047q.022.026.045.048l.045.047.045.047.045.048.046.047.045.047.045.047c.018.019.03.034.045.048l.045.047.045.047.045.048q.023.025.046.047l.045.047.045.048.045.047.045.047.046.048q.022.025.045.047l.045.047.045.048.045.047.045.047q.023.026.046.047.022.025.045.048l.045.047.045.047.045.048.045.047.046.047q.022.026.045.047c.015.019.03.032.045.048l.045.047.045.047.045.048q.023.025.046.047.022.026.045.047l.045.048.045.047.045.047.045.048c.016.018.03.031.046.047q.022.025.045.047.022.026.045.047l.045.048.045.047.045.047.046.048.045.047q.022.026.045.047l.045.048.045.047.045.047q.023.027.046.048.022.025.045.047.022.025.045.047.023.027.045.047a.69.69 0 0 0 .967.088.69.69 0 0 0 .144-.955l-.034-.054zm-2.835 2.664-.038-.036-.039-.036-.038-.036-.038-.036-.037-.036q-.018-.02-.038-.036l-.038-.036q-.02-.02-.039-.036l-.036-.036-.038-.036q-.017-.015-.032-.032a.3.3 0 0 0-.043-.038l-.036-.036-.038-.036-.034-.032-.04-.038-.035-.034-.034-.031-.043-.04q-.018-.02-.038-.037l-.038-.036-.03-.029-.006-.007-.037-.034-.038-.036-.03-.029-.006-.007-.03-.027-.008-.009s-.023-.02-.032-.031q-.025-.027-.043-.038l-.03-.03-.006-.006s-.023-.02-.032-.032q-.025-.027-.043-.038l-.031-.032c-.018-.018-.03-.027-.04-.038l-.037-.034-.038-.036-.037-.034c-.015-.016-.027-.025-.038-.036-.018-.018-.03-.027-.04-.038l-.034-.034-5.7-5.375-.08-.074c-.232-.227-.474-.464-.813-.592a2.1 2.1 0 0 0-.743-.14c-.779 0-1.364.489-1.642 1.086-.347.75-.244 1.829.813 2.426l1.21.714 5.79 3.415.015.009.027.015.018.012.027.016.014.009s.02.01.03.018l.013.009s.02.013.031.018l.014.009s.02.013.031.018l.014.009s.02.01.03.018l.013.009.03.018.013.009.03.018.013.009.03.018.013.009s.02.011.029.018l.014.009s.02.013.031.018l.014.009s.02.013.031.018l.014.009.03.018.013.009s.02.013.031.018l.014.009s.02.014.032.018l.013.009s.02.014.032.018l.013.009.03.018.011.007.034.02.011.007s.02.013.032.018l.011.007s.02.013.032.018l.013.006s.02.014.032.018l.011.007s.02.014.032.018l.011.007s.02.013.032.018l.013.007s.02.013.032.018l.013.007s.02.013.032.017l.014.01s.02.013.031.017l.014.01s.02.013.031.018l.014.009s.02.013.032.018l.013.009s.02.013.032.018l.013.009s.02.013.032.018l.013.009s.02.013.032.018l.014.006s.02.014.031.018l.011.007s.02.014.032.018l.043.027.043.027.043.027.043.027c.018.012.031.018.045.027.018.012.031.018.045.027l.01.005.033.02.009.005.034.02a.69.69 0 0 0 .935-.178.687.687 0 0 0-.09-.944q-.02-.02-.037-.034zM9.23 29.813l-.635-.358q-.781-.444-1.567-.887l-2.234-1.264-1.465-.831c-.115-.063-.233-.131-.346-.196a7 7 0 0 0-.61-.33 1.73 1.73 0 0 0-2.247.954c-.187.452-.167.966.057 1.412.223.446.62.77 1.093.894l.993.255 2.98.764 2.411.619.854.218.185.048a.7.7 0 0 0 .858-.41.7.7 0 0 0-.332-.89zm1.561 14.635-.463.03a1.16 1.16 0 0 0-1.143.948c-.083.428.052 1.027.705 1.302.323.13.668.113.976-.047.316-.167.542-.464.62-.816l.147-.462a.71.71 0 0 0-.392-.912.7.7 0 0 0-.271-.05q-.09.001-.177.01zM9.7 41.696a.68.68 0 0 0-.429-.55.7.7 0 0 0-.269-.05q-.094 0-.192.012-.038.001-.074.007l-1.5.11c-.52.02-.978.34-1.172.815-.226.577-.05 1.18.447 1.541.5.36 1.13.342 1.606-.05l1.328-1.182a.68.68 0 0 0 .253-.655zM8.62 38.33a.7.7 0 0 0-.056-.635.69.69 0 0 0-.547-.331l-2.979-.243a2 2 0 0 0-.352-.032c-.648 0-1.183.334-1.414.906a1.41 1.41 0 0 0 .339 1.574 1.42 1.42 0 0 0 1.588.29l2.861-1.076c.296-.092.477-.239.558-.45zm-.031-3.874a.7.7 0 0 0-.391-.92 21 21 0 0 0-.495-.148q-.16-.045-.316-.094L3.53 32.156q-.228-.068-.454-.133a1.576 1.576 0 0 0-1.926.924c-.21.484-.143 1.045.18 1.502s.833.707 1.362.674l4.483-.194.66-.03c.28.014.618-.096.756-.443zm5.421 12.61a1.029 1.029 0 1 0-.772 1.908c.661.236 1.158-.129 1.336-.57.179-.442.08-1.05-.564-1.338M66.354 33.9c-4.499-.832-5.33-1.58-5.33-2.825 0-1.453 1.208-1.953 4.289-1.953 2.416 0 4.957.29 8.08.998v-4.03c-2.708-.624-5.664-.872-8.08-.872-5.872 0-9.163 2.077-9.163 6.147 0 3.366 1.875 5.36 8.914 6.564 3.957.665 4.955 1.372 4.955 2.742 0 1.453-1.082 2.243-4.747 2.243-4.248 0-6.414-.416-8.663-.955v4.03c2.624.54 4.998.831 8.663.831 6.83 0 9.62-2.865 9.62-6.48 0-3.116-1.499-5.152-8.536-6.438zm92.258 0c-4.499-.832-5.33-1.58-5.33-2.825 0-1.453 1.208-1.953 4.289-1.953 2.416 0 4.957.29 8.08.998v-4.03c-2.707-.624-5.664-.872-8.08-.872-5.872 0-9.162 2.077-9.162 6.147 0 3.366 1.874 5.36 8.913 6.564 3.957.665 4.955 1.372 4.955 2.742 0 1.453-1.081 2.243-4.747 2.243-4.248 0-6.414-.416-8.663-.955v4.03c2.624.54 4.998.831 8.663.831 6.83 0 9.621-2.865 9.621-6.48 0-3.116-1.5-5.152-8.537-6.438zm-69.396.033c-.793 1.33-1.292 2.16-1.708 3.156-.458-.998-.957-1.87-1.75-3.156l-4.955-8.224h-5.414l8.704 14c1 1.62.917 2.036.917 4.03v2.741h4.788v-2.74c0-1.994-.083-2.41.918-4.03l8.704-14h-5.206zm50.032 4.945-10.577-13.169h-4.594V46.46h4.747V33.17l10.539 13.29h4.632V25.709h-4.747zm-33.01-1.25h12.453V33.64h-12.453v-3.944h12.453V25.71h-17.2v15.91c0 3.075 1.915 4.861 5.332 4.861h12.322v-3.987h-12.907zm86.281-1.692c0-6.855-4.289-10.718-11.162-10.718s-11.37 3.863-11.37 10.758c0 6.896 4.373 10.842 11.162 10.842q1.905-.002 3.521-.37l1.929 2.533h5.418l-3.279-4.343c2.446-1.838 3.781-4.798 3.781-8.704zm-7.942 3.192h-5.147l2.794 3.66a8 8 0 0 1-.827.043c-3.957 0-6.538-2.117-6.538-6.938 0-4.404 2.416-6.688 6.331-6.688 3.914 0 6.455 2.244 6.455 6.812 0 2.147-.579 3.84-1.638 5.005zm22.261-13.91c-6.746 0-11.37 3.863-11.37 10.758 0 6.896 4.373 10.842 11.162 10.842 7.164 0 11.37-3.946 11.37-10.882s-4.289-10.718-11.162-10.718m.041 17.613c-3.957 0-6.539-2.117-6.539-6.938 0-4.404 2.417-6.688 6.331-6.688s6.455 2.244 6.455 6.812c0 4.32-2.333 6.812-6.247 6.812z" class="logo-fill"/></svg>