<svg xmlns="http://www.w3.org/2000/svg" data-name="WORT-/BILDMARKE sRGB" viewBox="0 0 283.46 65.86"><g class="c-logo-svg"><path d="M226.43 49.39v16.47l57.03-32.93L226.43 0v16.46l28.52 16.47z" style="fill:#b70032"/><path d="M24.7 18.67h8.23L16.46 47.19 0 18.67h8.23l8.23 14.26zM151.9 18a15 15 0 1 0 15 15 15 15 0 0 0-15-15m0 22.85a7.88 7.88 0 1 1 7.88-7.88 7.88 7.88 0 0 1-7.88 7.84zm-62.64-.04a7.88 7.88 0 1 1 5.57-13.45l5-5a15 15 0 1 0 0 21.17l-5-5a7.85 7.85 0 0 1-5.57 2.28m16.33-15.72h9.62v22.1h7.13v-22.1h9.63v-6.42h-26.38zm-63.38 22.1h22.1v-6.42H49.34v-4.99h11.69v-6.27H49.34v-4.42h14.97v-6.42h-22.1zm162.12-19a9.52 9.52 0 0 0-9.5-9.52h-17.59v28.52h7.13v-9.48h6.24l5.49 9.48h8.23L198.43 37a9.47 9.47 0 0 0 5.9-8.81m-10.16 3.17h-9.8V25h9.8a3.18 3.18 0 0 1 0 6.35z" class="js-logoSVG" style="transition:opacity .15s ease-in-out"/></g></svg>