<svg xmlns="http://www.w3.org/2000/svg" id="Layer_1" viewBox="0 0 162.42 47.63"><defs><style>.cls-5{fill:#6f6f6e}</style></defs><path d="M3.82 39.62h2.7v-.77H.3v.77H3v7.79h.82zm3.85 7.79h.82v-4.05h4.4v4.05h.82v-8.57h-.82v3.71h-4.4v-3.71h-.82zm8.95-4.08h3.91v-.77h-3.91v-2.94h4.18v-.77h-5v8.57h5.14v-.77h-4.32v-3.3Zm13.06 3.96q.585-.33.93-.84c.23-.34.39-.71.47-1.1.09-.4.13-.78.13-1.13v-5.37h-.82v5.27c0 .35-.04.68-.11 1.01-.08.33-.2.62-.37.87s-.4.46-.68.62-.63.24-1.04.24-.76-.08-1.04-.24-.51-.36-.68-.62a2.6 2.6 0 0 1-.37-.87c-.08-.33-.11-.66-.11-1.01v-5.27h-.82v5.37c0 .36.04.73.13 1.13s.24.77.47 1.1c.23.34.53.62.92.84s.89.33 1.49.33 1.09-.11 1.49-.33m4.6-8.45h-1.02v8.57h.82v-7.37h.02l4.7 7.37h1.03v-8.57H39v7.3h-.02l-4.7-7.3Zm8.44 0h-.82v8.57h.82zm1.94 0h-.89l3.08 8.57h.87l3.09-8.57h-.88l-2.62 7.44h-.02l-2.62-7.44Zm8.01 4.49h3.91v-.77h-3.91v-2.94h4.18v-.77h-5v8.57h5.14v-.77h-4.32v-3.3Zm6.69.07h1.37l2.23 4h1l-2.36-4.08c.3-.03.57-.1.82-.22a2.029 2.029 0 0 0 1.08-1.12c.11-.26.16-.55.16-.86 0-.42-.07-.77-.21-1.06s-.33-.52-.57-.71c-.25-.18-.54-.31-.88-.39s-.71-.12-1.1-.12h-2.37v8.57h.82v-4Zm0-3.81h1.46c.3 0 .58.03.83.09s.46.14.64.27c.17.12.31.28.41.47s.15.43.15.71c0 .51-.18.89-.53 1.14-.36.25-.86.38-1.53.38h-1.42v-3.06Zm10.51.07c-.2-.28-.49-.53-.88-.73-.39-.21-.85-.31-1.4-.31-.3 0-.6.05-.9.13-.3.09-.58.23-.83.42s-.46.44-.61.74c-.16.3-.23.65-.23 1.06 0 .39.06.71.19.98.12.27.29.49.49.67.21.18.44.33.7.44s.52.21.79.3c.26.09.51.18.74.27q.36.135.63.33c.18.13.33.3.44.49.11.2.17.45.17.75 0 .27-.05.51-.17.72-.11.21-.25.38-.42.52s-.36.25-.58.31c-.21.07-.42.1-.63.1-.43 0-.8-.1-1.11-.31-.32-.21-.56-.46-.73-.77l-.71.56c.15.21.31.39.5.56.19.16.4.29.62.4s.45.18.7.24c.24.05.49.08.73.08.32 0 .64-.05.95-.14.31-.1.6-.24.84-.45.25-.2.45-.46.6-.77s.23-.68.23-1.11-.07-.78-.21-1.06-.33-.51-.56-.69-.48-.33-.77-.44c-.28-.11-.57-.22-.85-.31-.23-.08-.45-.16-.65-.24-.21-.08-.39-.19-.56-.31q-.24-.195-.39-.45c-.1-.18-.15-.4-.15-.68s.05-.51.15-.71.24-.37.4-.5c.17-.13.35-.23.56-.3.21-.06.41-.1.6-.1.39 0 .72.08.99.23.27.16.5.36.67.62l.65-.56Zm2.63-.82h-.82v8.57h.82zm4.67.77h2.7v-.77h-6.22v.77h2.7v7.79h.82zm6.48 4.1 3.02-4.88h-.96l-2.45 4.15-2.43-4.15h-1.03l3.02 4.88v3.69h.82v-3.69Zm14.15-2.39c-.21-.55-.51-1.02-.89-1.42-.37-.4-.82-.71-1.33-.94s-1.07-.34-1.67-.34-1.16.11-1.67.34-.96.54-1.33.94c-.38.4-.67.87-.89 1.42-.21.55-.32 1.15-.32 1.8s.11 1.25.32 1.8.51 1.02.89 1.42c.37.4.82.71 1.33.94s1.07.34 1.67.34 1.16-.11 1.67-.34.96-.54 1.33-.94c.38-.4.67-.87.89-1.42.21-.55.32-1.15.32-1.8s-.11-1.25-.32-1.8m-.78 3.23c-.15.45-.37.85-.66 1.18q-.435.51-1.05.81c-.41.2-.88.3-1.39.3s-.98-.1-1.4-.3c-.41-.2-.77-.47-1.05-.81-.29-.34-.51-.73-.66-1.18a4.5 4.5 0 0 1 0-2.85c.15-.45.37-.85.66-1.19s.64-.61 1.05-.82c.41-.2.88-.3 1.4-.3s.98.1 1.39.3.77.47 1.05.82c.29.34.51.74.66 1.19s.23.93.23 1.42-.08.97-.23 1.43m3.57-1.2h3.76v-.77h-3.76v-2.96h4.04v-.77h-4.86v8.57h.82v-4.05Zm8.07-4.51h-.87l2.38 8.57h.96l2.03-7.36h.02l2.03 7.36h.96l2.38-8.57h-.86l-1.97 7.37h-.02l-2.02-7.37h-.98l-2.02 7.37h-.02l-1.99-7.37Zm11.75 6.32h4.17l.89 2.25h.91l-3.46-8.57h-.8l-3.49 8.57h.9zm2.09-5.35 1.78 4.55h-3.56zm5.83 3.59h1.37l2.23 4h1l-2.36-4.08c.3-.03.57-.1.82-.22a2.029 2.029 0 0 0 1.08-1.12c.11-.26.16-.55.16-.86 0-.42-.07-.77-.21-1.06s-.33-.52-.58-.71c-.25-.18-.54-.31-.88-.39s-.71-.12-1.1-.12h-2.37v8.57h.82v-4Zm0-3.81h1.46c.3 0 .58.03.83.09s.46.14.64.27c.17.12.31.28.41.47s.15.43.15.71c0 .51-.18.89-.53 1.14-.36.25-.87.38-1.53.38h-1.43zm5.9-.75h-.87l2.38 8.57h.96l2.03-7.36h.02l2.03 7.36h.96l2.38-8.57h-.86l-1.97 7.37h-.02l-2.02-7.37h-.98l-2.02 7.37h-.02l-1.99-7.37Zm11.89 0h-.82v8.57h.82zm8.24 6.74c-.28.44-.63.77-1.05.97q-.63.3-1.32.3c-.52 0-.98-.1-1.4-.3-.41-.2-.77-.47-1.05-.81-.29-.34-.51-.74-.66-1.19-.16-.45-.23-.92-.23-1.42s.08-.97.23-1.42.37-.85.66-1.19a3.16 3.16 0 0 1 2.47-1.11c.26 0 .5.03.72.1.22.06.43.15.62.25.19.11.35.23.49.36l.34.41.68-.53q-.21-.315-.51-.57c-.21-.17-.43-.31-.68-.43s-.52-.21-.8-.28-.58-.1-.87-.1c-.6 0-1.16.11-1.67.34s-.96.54-1.33.94c-.38.4-.67.87-.88 1.42s-.32 1.15-.32 1.8.1 1.25.31 1.8.5 1.02.87 1.42.82.71 1.33.94c.52.23 1.08.34 1.69.34a3.63 3.63 0 0 0 1.85-.48c.25-.15.48-.32.67-.51s.36-.4.49-.62l-.64-.44Zm2.82-6.74h-.82v8.57h.82v-4.56h.01l4.03 4.56h1.21l-4.3-4.68 4.07-3.89h-1.17l-3.84 3.85h-.01zM50.49 23.69 55.95 6.9c.22-.23.31-.33.5-.5 2.17-2.08 6.23-2.94 8.95-3.14l7.73 20.71 7.3-20.67h7.12l-10.4 26.5h-8.6l-7.16-19.77h-.18L54.88 29.8h-8.55L35.14 3.3h7.58zM126.61 3.3h.65v26.5h-6.28V9.13l-8.83 20.67h-7.4l-9.1-20.79V29.8h-6.38V3.3h.55c1.89 0 8.23.33 11.09 3.1l7.35 17.49 7.58-17.82c3-2.48 8.92-2.77 10.77-2.77M161.49 14.19V29.8h-15.72c-2.22 0-3.97-.12-5.27-.41-2.82-.53-5.08-1.63-6.79-3.26-2.26-2.16-3.37-5.18-3.37-9.09 0-4.12.97-7.26 3-9.46 2.54-2.85 6.89-4.28 12.94-4.28h15.21c-.32 2.49-2.12 4.4-2.12 4.4l-13.08.04c-2.82 0-4.85.74-6.15 2.2-1.29 1.47-1.94 3.59-1.94 6.36s.55 4.89 1.66 6.28c1.29 1.67 3.42 2.49 6.43 2.49h8.04v-6.24l-6.79.08s-2.04-1.88-2.54-4.73h16.5Z" class="cls-5"/><path d="M7.06 8.77S-3.4 21.11 1.14 27.23c0 0 3.77 5.42 13.63-2.59 0 0-10.15-8.57-7.71-15.87" style="fill:#f8b121"/><path d="M.91 29.36s2.97 3.61 8.86.92S31.08 16.1 29.2 9.42c0 0 6.19 9.97-.99 18.08 0 0-3.06 3.29-8.22 3.9-7.37.87-17.48 1.9-19.08-2.04" style="fill:#e32213"/><path d="M21.25.25S28.56-.97 31 2c0 0 2.22 2.82 0 6.92 0 0-1.29-6.24-9.75-8.67" style="fill:#0097d8"/><path d="M8.18 12.06S9.59 5.94 21.56 1.42c0 0-13.07-3.9-13.38 10.64" style="fill:#c9d300"/></svg>